999
dxfrw 0.6.3
  0
SECTION
  2
HEADER
  9
$ACADVER
  1
AC1021
  9
$DWGCODEPAGE
  3
ANSI_1252
  9
$INSBASE
 10
0
 20
0
 30
0
  9
$EXTMIN
 10
0
 20
0
 30
0
  9
$EXTMAX
 10
4100
 20
8000
 30
0
  9
$LIMMIN
 10
0
 20
0
  9
$LIMMAX
 10
420
 20
297
  9
$ORTHOMODE
 70
    0
  9
$REGENMODE
 70
    1
  9
$FILLMODE
 70
    1
  9
$QTEXTMODE
 70
    0
  9
$MIRRTEXT
 70
    0
  9
$LTSCALE
 40
1
  9
$ATTMODE
 70
    0
  9
$TEXTSIZE
 40
2.5
  9
$TRACEWID
 40
15.68
  9
$TEXTSTYLE
  7
STANDARD
  9
$CLAYER
  8
texte
  9
$CELTYPE
  6
BYLAYER
  9
$CECOLOR
 62
  256
  9
$CELTSCALE
 40
1
  9
$DISPSILH
 70
    0
  9
$DIMSCALE
 40
2.5
  9
$DIMASZ
 40
2.5
  9
$DIMEXO
 40
0.625
  9
$DIMDLI
 40
3.75
  9
$DIMRND
 40
0
  9
$DIMDLE
 40
0
  9
$DIMEXE
 40
1.25
  9
$DIMTP
 40
0
  9
$DIMTM
 40
0
  9
$DIMTXT
 40
2.5
  9
$DIMCEN
 40
2.5
  9
$DIMTSZ
 40
0
  9
$DIMTOL
 70
    0
  9
$DIMLIM
 70
    0
  9
$DIMTIH
 70
    0
  9
$DIMTOH
 70
    0
  9
$DIMSE1
 70
    0
  9
$DIMSE2
 70
    0
  9
$DIMTAD
 70
    1
  9
$DIMZIN
 70
    8
  9
$DIMBLK
  1

  9
$DIMASO
 70
    1
  9
$DIMSHO
 70
    1
  9
$DIMPOST
  1

  9
$DIMAPOST
  1

  9
$DIMALT
 70
    0
  9
$DIMALTD
 70
    3
  9
$DIMALTF
 40
0.03937
  9
$DIMLFAC
 40
1
  9
$DIMTOFL
 70
    1
  9
$DIMTVP
 40
0
  9
$DIMTIX
 70
    0
  9
$DIMSOXD
 70
    0
  9
$DIMSAH
 70
    0
  9
$DIMBLK1
  1

  9
$DIMBLK2
  1

  9
$DIMSTYLE
  2
STANDARD
  9
$DIMCLRD
 70
    0
  9
$DIMCLRE
 70
    0
  9
$DIMCLRT
 70
    0
  9
$DIMTFAC
 40
1
  9
$DIMGAP
 40
0.625
  9
$DIMJUST
 70
    0
  9
$DIMSD1
 70
    0
  9
$DIMSD2
 70
    0
  9
$DIMTOLJ
 70
    0
  9
$DIMTZIN
 70
    8
  9
$DIMALTZ
 70
    0
  9
$DIMALTTZ
 70
    0
  9
$DIMUPT
 70
    0
  9
$DIMDEC
 70
    2
  9
$DIMTDEC
 70
    2
  9
$DIMALTU
 70
    2
  9
$DIMALTTD
 70
    3
  9
$DIMTXSTY
  7
STANDARD
  9
$DIMAUNIT
 70
    0
  9
$DIMADEC
 70
    0
  9
$DIMALTRND
 40
0
  9
$DIMAZIN
 70
    0
  9
$DIMDSEP
 70
   44
  9
$DIMATFIT
 70
    3
  9
$DIMFRAC
 70
    0
  9
$DIMLDRBLK
  1
STANDARD
  9
$DIMLUNIT
 70
    2
  9
$DIMLWD
 70
   -2
  9
$DIMLWE
 70
   -2
  9
$DIMTMOVE
 70
    0
  9
$DIMFXL
 40
1
  9
$DIMFXLON
 70
    0
  9
$DIMJOGANG
 40
0.7854
  9
$DIMTFILL
 70
    0
  9
$DIMTFILLCLR
 70
    0
  9
$DIMARCSYM
 70
    0
  9
$DIMLTYPE
  6

  9
$DIMLTEX1
  6

  9
$DIMLTEX2
  6

  9
$LUNITS
 70
    2
  9
$LUPREC
 70
    4
  9
$SKETCHINC
 40
1
  9
$FILLETRAD
 40
0
  9
$AUNITS
 70
    0
  9
$AUPREC
 70
    2
  9
$MENU
  1
.
  9
$ELEVATION
 40
0
  9
$PELEVATION
 40
0
  9
$THICKNESS
 40
0
  9
$LIMCHECK
 70
    0
  9
$CHAMFERA
 40
0
  9
$CHAMFERB
 40
0
  9
$CHAMFERC
 40
0
  9
$CHAMFERD
 40
0
  9
$SKPOLY
 70
    0
  9
$USRTIMER
 70
    1
  9
$ANGBASE
 50
0
  9
$ANGDIR
 70
    0
  9
$PDMODE
 70
   34
  9
$PDSIZE
 40
0
  9
$PLINEWID
 40
0
  9
$SPLFRAME
 70
    0
  9
$SPLINETYPE
 70
    2
  9
$SPLINESEGS
 70
    8
  9
$HANDSEED
  5
20000
  9
$SURFTAB1
 70
    6
  9
$SURFTAB2
 70
    6
  9
$SURFTYPE
 70
    6
  9
$SURFU
 70
    6
  9
$SURFV
 70
    6
  9
$UCSBASE
  2

  9
$UCSNAME
  2

  9
$UCSORG
 10
0
 20
0
 30
0
  9
$UCSXDIR
 10
1
 20
0
 30
0
  9
$UCSYDIR
 10
0
 20
1
 30
0
  9
$UCSORTHOREF
  2

  9
$UCSORTHOVIEW
 70
    0
  9
$UCSORGTOP
 10
0
 20
0
 30
0
  9
$UCSORGBOTTOM
 10
0
 20
0
 30
0
  9
$UCSORGLEFT
 10
0
 20
0
 30
0
  9
$UCSORGRIGHT
 10
0
 20
0
 30
0
  9
$UCSORGFRONT
 10
0
 20
0
 30
0
  9
$UCSORGBACK
 10
0
 20
0
 30
0
  9
$PUCSBASE
  2

  9
$PUCSNAME
  2

  9
$PUCSORG
 10
0
 20
0
 30
0
  9
$PUCSXDIR
 10
1
 20
0
 30
0
  9
$PUCSYDIR
 10
0
 20
1
 30
0
  9
$PUCSORTHOREF
  2

  9
$PUCSORTHOVIEW
 70
    0
  9
$PUCSORGTOP
 10
0
 20
0
 30
0
  9
$PUCSORGBOTTOM
 10
0
 20
0
 30
0
  9
$PUCSORGLEFT
 10
0
 20
0
 30
0
  9
$PUCSORGRIGHT
 10
0
 20
0
 30
0
  9
$PUCSORGFRONT
 10
0
 20
0
 30
0
  9
$PUCSORGBACK
 10
0
 20
0
 30
0
  9
$USERI1
 70
    0
  9
$USERI2
 70
    0
  9
$USERI3
 70
    0
  9
$USERI4
 70
    0
  9
$USERI5
 70
    0
  9
$USERR1
 40
0
  9
$USERR2
 40
0
  9
$USERR3
 40
0
  9
$USERR4
 40
0
  9
$USERR5
 40
0
  9
$WORLDVIEW
 70
    1
  9
$SHADEDGE
 70
    3
  9
$SHADEDIF
 70
   70
  9
$TILEMODE
 70
    1
  9
$MAXACTVP
 70
   64
  9
$PINSBASE
 10
55.04183298034104
 20
14.67226023677635
 30
0
  9
$PLIMCHECK
 70
    0
  9
$PEXTMIN
 10
0
 20
0
 30
0
  9
$PEXTMAX
 10
0
 20
0
 30
0
  9
$GRIDMODE
 70
    1
  9
$SNAPSTYLE
 70
    0
  9
$PLIMMIN
 10
0
 20
0
  9
$PLIMMAX
 10
297
 20
210
  9
$UNITMODE
 70
    0
  9
$VISRETAIN
 70
    1
  9
$PLINEGEN
 70
    0
  9
$PSLTSCALE
 70
    1
  9
$TREEDEPTH
 70
 3020
  9
$CMLSTYLE
  2
Standard
  9
$CMLJUST
 70
    0
  9
$CMLSCALE
 40
20
  9
$PROXYGRAPHICS
 70
    1
  9
$MEASUREMENT
 70
    1
  9
$CELWEIGHT
370
   -1
  9
$ENDCAPS
280
    0
  9
$JOINSTYLE
280
    0
  9
$LWDISPLAY
290
    0
  9
$INSUNITS
 70
    4
  9
$HYPERLINKBASE
  1

  9
$STYLESHEET
  1

  9
$XEDIT
290
    1
  9
$CEPSNTYPE
380
    0
  9
$PSTYLEMODE
290
    1
  9
$EXTNAMES
290
    1
  9
$PSVPSCALE
 40
0.04545454545454546
  9
$OLESTARTUP
290
    0
  9
$SORTENTS
280
  127
  9
$INDEXCTL
280
    0
  9
$HIDETEXT
280
    1
  9
$XCLIPFRAME
290
    0
  9
$HALOGAP
280
    0
  9
$OBSCOLOR
 70
  257
  9
$OBSLTYPE
280
    0
  9
$INTERSECTIONDISPLAY
280
    0
  9
$INTERSECTIONCOLOR
 70
  257
  9
$DIMASSOC
280
    1
  9
$PROJECTNAME
  1

  9
$CAMERADISPLAY
290
    0
  9
$LENSLENGTH
 40
50
  9
$CAMERAHEIGHT
 40
0
  9
$STEPSPERSEC
 40
2
  9
$STEPSIZE
 40
50
  9
$3DDWFPREC
 40
2
  9
$PSOLWIDTH
 40
5
  9
$PSOLHEIGHT
 40
80
  9
$LOFTANG1
 40
1.570796326794897
  9
$LOFTANG2
 40
1.570796326794897
  9
$LOFTMAG1
 40
0
  9
$LOFTMAG2
 40
0
  9
$LOFTPARAM
 70
    7
  9
$LOFTNORMALS
280
    1
  9
$LATITUDE
 40
1
  9
$LONGITUDE
 40
1
  9
$NORTHDIRECTION
 40
0
  9
$TIMEZONE
 70
-8000
  9
$LIGHTGLYPHDISPLAY
280
    1
  9
$TILEMODELIGHTSYNCH
280
    1
  9
$SOLIDHIST
280
    1
  9
$SHOWHIST
280
    1
  9
$DWFFRAME
280
    2
  9
$DGNFRAME
280
    0
  9
$REALWORLDSCALE
290
    1
  9
$INTERFERECOLOR
 62
    1
  9
$CSHADOW
280
    0
  9
$SHADOWPLANELOCATION
 40
0
  0
ENDSEC
  0
SECTION
  2
CLASSES
  0
ENDSEC
  0
SECTION
  2
TABLES
  0
TABLE
  2
VPORT
  5
8
330
0
100
AcDbSymbolTable
 70
    1
  0
VPORT
  5
31
330
2
100
AcDbSymbolTableRecord
100
AcDbViewportTableRecord
  2
*ACTIVE
 70
    0
 10
0
 20
0
 11
1
 21
1
 12
4056.342090502772
 22
2383.805204227758
 13
0
 23
0
 14
10
 24
10
 15
10
 25
10
 16
0
 26
0
 36
1
 17
0
 27
0
 37
0
 40
5936.625663704578
 41
1.814946619217082
 42
50
 43
0
 44
0
 50
0
 51
0
 71
    0
 72
  100
 73
    1
 74
    3
 75
    0
 76
    1
 77
    0
 78
    0
281
    0
 65
    1
110
0
120
0
130
0
111
1
121
0
131
0
112
0
122
1
132
0
 79
    0
146
0
348
10020
 60
    7
 61
    5
292
1
282
    1
141
0
142
0
 63
  250
421
3358443
  0
ENDTAB
  0
TABLE
  2
LTYPE
  5
5
330
0
100
AcDbSymbolTable
 70
    4
  0
LTYPE
  5
14
330
5
100
AcDbSymbolTableRecord
100
AcDbLinetypeTableRecord
  2
ByBlock
 70
    0
  3

 72
   65
 73
    0
 40
0
  0
LTYPE
  5
15
330
5
100
AcDbSymbolTableRecord
100
AcDbLinetypeTableRecord
  2
ByLayer
 70
    0
  3

 72
   65
 73
    0
 40
0
  0
LTYPE
  5
16
330
5
100
AcDbSymbolTableRecord
100
AcDbLinetypeTableRecord
  2
Continuous
 70
    0
  3
Solid line
 72
   65
 73
    0
 40
0
  0
LTYPE
  5
32
330
5
100
AcDbSymbolTableRecord
100
AcDbLinetypeTableRecord
  2
DOT
 70
    0
  3
Dot . . . . . . . . . . . . . . . . . . . . . .
 72
   65
 73
    2
 40
6.35
 49
0
 74
    0
 49
-6.35
 74
    0
  0
LTYPE
  5
33
330
5
100
AcDbSymbolTableRecord
100
AcDbLinetypeTableRecord
  2
DOTTINY
 70
    0
  3
Dot (.15x) .....................................
 72
   65
 73
    2
 40
0.9525
 49
0
 74
    0
 49
-0.9525
 74
    0
  0
LTYPE
  5
34
330
5
100
AcDbSymbolTableRecord
100
AcDbLinetypeTableRecord
  2
DOT2
 70
    0
  3
Dot (.5x) .....................................
 72
   65
 73
    2
 40
3.175
 49
0
 74
    0
 49
-3.175
 74
    0
  0
LTYPE
  5
35
330
5
100
AcDbSymbolTableRecord
100
AcDbLinetypeTableRecord
  2
DOTX2
 70
    0
  3
Dot (2x) .  .  .  .  .  .  .  .  .  .  .  .  .
 72
   65
 73
    2
 40
12.7
 49
0
 74
    0
 49
-12.7
 74
    0
  0
LTYPE
  5
36
330
5
100
AcDbSymbolTableRecord
100
AcDbLinetypeTableRecord
  2
DASHED
 70
    0
  3
Dashed _ _ _ _ _ _ _ _ _ _ _ _ _ _ _ _ _
 72
   65
 73
    2
 40
19.05
 49
12.7
 74
    0
 49
-6.35
 74
    0
  0
LTYPE
  5
37
330
5
100
AcDbSymbolTableRecord
100
AcDbLinetypeTableRecord
  2
DASHEDTINY
 70
    0
  3
Dashed (.15x) _ _ _ _ _ _ _ _ _ _ _ _ _ _ _ _ _
 72
   65
 73
    2
 40
2.8575
 49
1.905
 74
    0
 49
-0.9525
 74
    0
  0
LTYPE
  5
38
330
5
100
AcDbSymbolTableRecord
100
AcDbLinetypeTableRecord
  2
DASHED2
 70
    0
  3
Dashed (.5x) _ _ _ _ _ _ _ _ _ _ _ _ _ _ _ _ _
 72
   65
 73
    2
 40
9.524999999999999
 49
6.35
 74
    0
 49
-3.175
 74
    0
  0
LTYPE
  5
39
330
5
100
AcDbSymbolTableRecord
100
AcDbLinetypeTableRecord
  2
DASHEDX2
 70
    0
  3
Dashed (2x) ____  ____  ____  ____  ____  ___
 72
   65
 73
    2
 40
38.09999999999999
 49
25.4
 74
    0
 49
-12.7
 74
    0
  0
LTYPE
  5
3A
330
5
100
AcDbSymbolTableRecord
100
AcDbLinetypeTableRecord
  2
DASHDOT
 70
    0
  3
Dash dot __ . __ . __ . __ . __ . __ . __ . __
 72
   65
 73
    4
 40
25.4
 49
12.7
 74
    0
 49
-6.35
 74
    0
 49
0
 74
    0
 49
-6.35
 74
    0
  0
LTYPE
  5
3B
330
5
100
AcDbSymbolTableRecord
100
AcDbLinetypeTableRecord
  2
DASHDOTTINY
 70
    0
  3
Dash dot (.15x) _._._._._._._._._._._._._._._.
 72
   65
 73
    4
 40
3.81
 49
1.905
 74
    0
 49
-0.9525
 74
    0
 49
0
 74
    0
 49
-0.9525
 74
    0
  0
LTYPE
  5
3C
330
5
100
AcDbSymbolTableRecord
100
AcDbLinetypeTableRecord
  2
DASHDOT2
 70
    0
  3
Dash dot (.5x) _._._._._._._._._._._._._._._.
 72
   65
 73
    4
 40
12.7
 49
6.35
 74
    0
 49
-3.175
 74
    0
 49
0
 74
    0
 49
-3.175
 74
    0
  0
LTYPE
  5
3D
330
5
100
AcDbSymbolTableRecord
100
AcDbLinetypeTableRecord
  2
DASHDOTX2
 70
    0
  3
Dash dot (2x) ____  .  ____  .  ____  .  ___
 72
   65
 73
    4
 40
50.8
 49
25.4
 74
    0
 49
-12.7
 74
    0
 49
0
 74
    0
 49
-12.7
 74
    0
  0
LTYPE
  5
3E
330
5
100
AcDbSymbolTableRecord
100
AcDbLinetypeTableRecord
  2
DIVIDE
 70
    0
  3
Divide ____ . . ____ . . ____ . . ____ . . ____
 72
   65
 73
    6
 40
31.75
 49
12.7
 74
    0
 49
-6.35
 74
    0
 49
0
 74
    0
 49
-6.35
 74
    0
 49
0
 74
    0
 49
-6.35
 74
    0
  0
LTYPE
  5
3F
330
5
100
AcDbSymbolTableRecord
100
AcDbLinetypeTableRecord
  2
DIVIDETINY
 70
    0
  3
Divide (.15x) __..__..__..__..__..__..__..__.._
 72
   65
 73
    6
 40
4.7625
 49
1.905
 74
    0
 49
-0.9525
 74
    0
 49
0
 74
    0
 49
-0.9525
 74
    0
 49
0
 74
    0
 49
-0.9525
 74
    0
  0
LTYPE
  5
40
330
5
100
AcDbSymbolTableRecord
100
AcDbLinetypeTableRecord
  2
DIVIDE2
 70
    0
  3
Divide (.5x) __..__..__..__..__..__..__..__.._
 72
   65
 73
    6
 40
15.875
 49
6.35
 74
    0
 49
-3.175
 74
    0
 49
0
 74
    0
 49
-3.175
 74
    0
 49
0
 74
    0
 49
-3.175
 74
    0
  0
LTYPE
  5
41
330
5
100
AcDbSymbolTableRecord
100
AcDbLinetypeTableRecord
  2
DIVIDEX2
 70
    0
  3
Divide (2x) ________  .  .  ________  .  .  _
 72
   65
 73
    6
 40
63.5
 49
25.4
 74
    0
 49
-12.7
 74
    0
 49
0
 74
    0
 49
-12.7
 74
    0
 49
0
 74
    0
 49
-12.7
 74
    0
  0
LTYPE
  5
42
330
5
100
AcDbSymbolTableRecord
100
AcDbLinetypeTableRecord
  2
BORDER
 70
    0
  3
Border __ __ . __ __ . __ __ . __ __ . __ __ .
 72
   65
 73
    6
 40
44.45
 49
12.7
 74
    0
 49
-6.35
 74
    0
 49
12.7
 74
    0
 49
-6.35
 74
    0
 49
0
 74
    0
 49
-6.35
 74
    0
  0
LTYPE
  5
43
330
5
100
AcDbSymbolTableRecord
100
AcDbLinetypeTableRecord
  2
BORDERTINY
 70
    0
  3
Border (.15x) __.__.__.__.__.__.__.__.__.__.__.
 72
   65
 73
    6
 40
6.6675
 49
1.905
 74
    0
 49
-0.9525
 74
    0
 49
1.905
 74
    0
 49
-0.9525
 74
    0
 49
0
 74
    0
 49
-0.9525
 74
    0
  0
LTYPE
  5
44
330
5
100
AcDbSymbolTableRecord
100
AcDbLinetypeTableRecord
  2
BORDER2
 70
    0
  3
Border (.5x) __.__.__.__.__.__.__.__.__.__.__.
 72
   65
 73
    6
 40
22.225
 49
6.35
 74
    0
 49
-3.175
 74
    0
 49
6.35
 74
    0
 49
-3.175
 74
    0
 49
0
 74
    0
 49
-3.175
 74
    0
  0
LTYPE
  5
45
330
5
100
AcDbSymbolTableRecord
100
AcDbLinetypeTableRecord
  2
BORDERX2
 70
    0
  3
Border (2x) ____  ____  .  ____  ____  .  ___
 72
   65
 73
    6
 40
88.89999999999999
 49
25.4
 74
    0
 49
-12.7
 74
    0
 49
25.4
 74
    0
 49
-12.7
 74
    0
 49
0
 74
    0
 49
-12.7
 74
    0
  0
LTYPE
  5
46
330
5
100
AcDbSymbolTableRecord
100
AcDbLinetypeTableRecord
  2
CENTER
 70
    0
  3
Center ____ _ ____ _ ____ _ ____ _ ____ _ ____
 72
   65
 73
    4
 40
50.8
 49
31.75
 74
    0
 49
-6.35
 74
    0
 49
6.35
 74
    0
 49
-6.35
 74
    0
  0
LTYPE
  5
47
330
5
100
AcDbSymbolTableRecord
100
AcDbLinetypeTableRecord
  2
CENTERTINY
 70
    0
  3
Center (.15x) ___ _ ___ _ ___ _ ___ _ ___ _ ___
 72
   65
 73
    4
 40
7.619999999999999
 49
4.7625
 74
    0
 49
-0.9525
 74
    0
 49
0.9525
 74
    0
 49
-0.9525
 74
    0
  0
LTYPE
  5
48
330
5
100
AcDbSymbolTableRecord
100
AcDbLinetypeTableRecord
  2
CENTER2
 70
    0
  3
Center (.5x) ___ _ ___ _ ___ _ ___ _ ___ _ ___
 72
   65
 73
    4
 40
28.575
 49
19.05
 74
    0
 49
-3.175
 74
    0
 49
3.175
 74
    0
 49
-3.175
 74
    0
  0
LTYPE
  5
49
330
5
100
AcDbSymbolTableRecord
100
AcDbLinetypeTableRecord
  2
CENTERX2
 70
    0
  3
Center (2x) ________  __  ________  __  _____
 72
   65
 73
    4
 40
101.6
 49
63.5
 74
    0
 49
-12.7
 74
    0
 49
12.7
 74
    0
 49
-12.7
 74
    0
  0
ENDTAB
  0
TABLE
  2
LAYER
  5
2
330
0
100
AcDbSymbolTable
 70
    1
  0
LAYER
  5
10
330
2
100
AcDbSymbolTableRecord
100
AcDbLayerTableRecord
  2
0
 70
    0
 62
    7
  6
CONTINUOUS
370
   70
390
F
  0
LAYER
  5
4A
330
2
100
AcDbSymbolTableRecord
100
AcDbLayerTableRecord
  2
R2V
 70
    0
 62
    7
  6
CONTINUOUS
370
   70
390
F
  0
LAYER
  5
4B
330
2
100
AcDbSymbolTableRecord
100
AcDbLayerTableRecord
  2
guide_text
 70
    0
 62
    6
  6
DOT2
290
0
370
    0
390
F
1001
LibreCad
1070
    1
  0
LAYER
  5
4C
330
2
100
AcDbSymbolTableRecord
100
AcDbLayerTableRecord
  2
texte
 70
    0
 62
    7
  6
CONTINUOUS
370
   13
390
F
  0
ENDTAB
  0
TABLE
  2
STYLE
  5
3
330
0
100
AcDbSymbolTable
 70
    3
  0
STYLE
  5
4D
330
2
100
AcDbSymbolTableRecord
100
AcDbTextStyleTableRecord
  2
standard
 70
    0
 40
0
 41
1
 50
0
 71
    0
 42
1
  3
standard
  4

  0
ENDTAB
  0
TABLE
  2
VIEW
  5
6
330
0
100
AcDbSymbolTable
 70
    0
  0
ENDTAB
  0
TABLE
  2
UCS
  5
7
330
0
100
AcDbSymbolTable
 70
    0
  0
ENDTAB
  0
TABLE
  2
APPID
  5
9
330
0
100
AcDbSymbolTable
 70
    1
  0
APPID
  5
12
330
9
100
AcDbSymbolTableRecord
100
AcDbRegAppTableRecord
  2
ACAD
 70
    0
  0
APPID
  5
4E
330
9
100
AcDbSymbolTableRecord
100
AcDbRegAppTableRecord
  2
LibreCad
 70
    0
  0
ENDTAB
  0
TABLE
  2
DIMSTYLE
  5
A
330
0
100
AcDbSymbolTable
 70
    1
100
AcDbDimStyleTable
 71
    1
  0
DIMSTYLE
105
4F
330
A
100
AcDbSymbolTableRecord
100
AcDbDimStyleTableRecord
  2
Standard
 70
    0
 40
2.5
 41
2.5
 42
0.625
 43
0.38
 44
1.25
 45
0
 46
0
 47
0
 48
0
 49
1
140
2.5
141
0.09
142
0
143
25.4
144
1
145
0
146
1
147
0.625
148
0
 71
    0
 72
    0
 73
    0
 74
    1
 75
    0
 76
    0
 77
    0
 78
    8
 79
    0
170
    0
171
    2
172
    0
173
    0
174
    0
175
    0
176
    0
177
    0
178
    0
179
    0
271
    2
272
    4
273
    2
274
    2
275
    0
276
    0
277
    2
278
   44
279
    0
280
    0
281
    0
282
    0
283
    1
284
    0
285
    0
286
    0
288
    0
289
    3
340
STANDARD
341

371
   -2
372
   -2
  0
ENDTAB
  0
TABLE
  2
BLOCK_RECORD
  5
1
330
0
100
AcDbSymbolTable
 70
    2
  0
BLOCK_RECORD
  5
1F
330
1
100
AcDbSymbolTableRecord
100
AcDbBlockTableRecord
  2
*Model_Space
 70
    0
280
    1
281
    0
  0
BLOCK_RECORD
  5
1E
330
1
100
AcDbSymbolTableRecord
100
AcDbBlockTableRecord
  2
*Paper_Space
 70
    0
280
    1
281
    0
  0
BLOCK_RECORD
  5
50
330
1
100
AcDbSymbolTableRecord
100
AcDbBlockTableRecord
  2
ACL_4
 70
    0
280
    1
281
    0
  0
BLOCK_RECORD
  5
53
330
1
100
AcDbSymbolTableRecord
100
AcDbBlockTableRecord
  2
blinder
 70
    0
280
    1
281
    0
  0
BLOCK_RECORD
  5
56
330
1
100
AcDbSymbolTableRecord
100
AcDbBlockTableRecord
  2
decoupe500
 70
    0
280
    1
281
    0
  0
BLOCK_RECORD
  5
59
330
1
100
AcDbSymbolTableRecord
100
AcDbBlockTableRecord
  2
F1
 70
    0
280
    1
281
    0
  0
BLOCK_RECORD
  5
5C
330
1
100
AcDbSymbolTableRecord
100
AcDbBlockTableRecord
  2
horiziode1000
 70
    0
280
    1
281
    0
  0
BLOCK_RECORD
  5
5F
330
1
100
AcDbSymbolTableRecord
100
AcDbBlockTableRecord
  2
minibeam
 70
    0
280
    1
281
    0
  0
BLOCK_RECORD
  5
62
330
1
100
AcDbSymbolTableRecord
100
AcDbBlockTableRecord
  2
par64
 70
    0
280
    1
281
    0
  0
BLOCK_RECORD
  5
65
330
1
100
AcDbSymbolTableRecord
100
AcDbBlockTableRecord
  2
pc1k
 70
    0
280
    1
281
    0
  0
BLOCK_RECORD
  5
68
330
1
100
AcDbSymbolTableRecord
100
AcDbBlockTableRecord
  2
pc500
 70
    0
280
    1
281
    0
  0
BLOCK_RECORD
  5
6B
330
1
100
AcDbSymbolTableRecord
100
AcDbBlockTableRecord
  2
stroboscope
 70
    0
280
    1
281
    0
  0
BLOCK_RECORD
  5
6E
330
1
100
AcDbSymbolTableRecord
100
AcDbBlockTableRecord
  2
sunstrip
 70
    0
280
    1
281
    0
  0
BLOCK_RECORD
  5
71
330
1
100
AcDbSymbolTableRecord
100
AcDbBlockTableRecord
  2
T20
 70
    0
280
    1
281
    0
  0
BLOCK_RECORD
  5
74
330
1
100
AcDbSymbolTableRecord
100
AcDbBlockTableRecord
  2
horiziode500
 70
    0
280
    1
281
    0
  0
ENDTAB
  0
ENDSEC
  0
SECTION
  2
BLOCKS
  0
BLOCK
  5
20
330
1F
100
AcDbEntity
  8
0
100
AcDbBlockBegin
  2
*Model_Space
 70
    0
 10
0
 20
0
 30
0
  3
*Model_Space
  1

  0
ENDBLK
  5
21
330
1F
100
AcDbEntity
  8
0
100
AcDbBlockEnd
  0
BLOCK
  5
1C
330
1B
100
AcDbEntity
  8
0
100
AcDbBlockBegin
  2
*Paper_Space
 70
    0
 10
0
 20
0
 30
0
  3
*Paper_Space
  1

  0
ENDBLK
  5
1D
330
1F
100
AcDbEntity
  8
0
100
AcDbBlockEnd
  0
BLOCK
  5
51
330
50
100
AcDbEntity
  8
0
100
AcDbBlockBegin
  2
ACL_4
 70
    0
 10
0
 20
0
  3
ACL_4
  1

  0
LWPOLYLINE
  5
77
100
AcDbEntity
  8
R2V
  6
ByLayer
 62
    0
370
   -1
100
AcDbPolyline
 90
    7
 70
    0
 43
0
 10
26.504854368932
 20
32.18446601941744
 10
26.504854368932
 20
335.0970873786408
 10
187.4271844660194
 20
335.0970873786408
 10
196.8932038834951
 20
13.25242718446601
 10
17.03883495145629
 20
13.25242718446601
 10
17.03883495145629
 20
32.18446601941744
 10
187.4271844660194
 20
32.18446601941744
  0
LWPOLYLINE
  5
78
100
AcDbEntity
  8
R2V
  6
ByLayer
 62
    0
370
   -1
100
AcDbPolyline
 90
    3
 70
    0
 43
0
 10
64.36893203883494
 20
32.18446601941744
 10
64.36893203883494
 20
316.1650485436893
 10
187.4271844660194
 20
316.1650485436893
  0
LWPOLYLINE
  5
79
100
AcDbEntity
  8
R2V
  6
ByLayer
 62
    0
370
   -1
100
AcDbPolyline
 90
    2
 70
    0
 43
0
 10
149.5631067961165
 20
32.18446601941744
 10
149.5631067961165
 20
316.1650485436893
  0
LWPOLYLINE
  5
7A
100
AcDbEntity
  8
R2V
  6
ByLayer
 62
    0
370
   -1
100
AcDbPolyline
 90
    2
 70
    0
 43
0
 10
187.4271844660194
 20
32.18446601941744
 10
196.8932038834951
 20
32.18446601941744
  0
LWPOLYLINE
  5
7B
100
AcDbEntity
  8
R2V
  6
ByLayer
 62
    0
370
   -1
100
AcDbPolyline
 90
    7
 70
    0
 43
0
 10
329.4174757281553
 20
32.18446601941744
 10
329.4174757281553
 20
335.0970873786408
 10
490.3398058252427
 20
335.0970873786408
 10
499.8058252427184
 20
13.25242718446601
 10
319.9514563106796
 20
13.25242718446601
 10
319.9514563106796
 20
32.18446601941744
 10
490.3398058252427
 20
32.18446601941744
  0
LWPOLYLINE
  5
7C
100
AcDbEntity
  8
R2V
  6
ByLayer
 62
    0
370
   -1
100
AcDbPolyline
 90
    3
 70
    0
 43
0
 10
367.2815533980582
 20
32.18446601941744
 10
367.2815533980582
 20
316.1650485436893
 10
490.3398058252427
 20
316.1650485436893
  0
LWPOLYLINE
  5
7D
100
AcDbEntity
  8
R2V
  6
ByLayer
 62
    0
370
   -1
100
AcDbPolyline
 90
    2
 70
    0
 43
0
 10
452.4757281553398
 20
32.18446601941744
 10
452.4757281553398
 20
316.1650485436893
  0
LWPOLYLINE
  5
7E
100
AcDbEntity
  8
R2V
  6
ByLayer
 62
    0
370
   -1
100
AcDbPolyline
 90
    2
 70
    0
 43
0
 10
490.3398058252427
 20
32.18446601941744
 10
499.8058252427184
 20
32.18446601941744
  0
LWPOLYLINE
  5
7F
100
AcDbEntity
  8
R2V
  6
ByLayer
 62
    0
370
   -1
100
AcDbPolyline
 90
    7
 70
    0
 43
0
 10
632.3300970873786
 20
32.18446601941744
 10
632.3300970873786
 20
335.0970873786408
 10
793.252427184466
 20
335.0970873786408
 10
802.7184466019417
 20
13.25242718446601
 10
622.8640776699028
 20
13.25242718446601
 10
622.8640776699028
 20
32.18446601941744
 10
793.252427184466
 20
32.18446601941744
  0
LWPOLYLINE
  5
80
100
AcDbEntity
  8
R2V
  6
ByLayer
 62
    0
370
   -1
100
AcDbPolyline
 90
    3
 70
    0
 43
0
 10
670.1941747572815
 20
32.18446601941744
 10
670.1941747572815
 20
316.1650485436893
 10
793.252427184466
 20
316.1650485436893
  0
LWPOLYLINE
  5
81
100
AcDbEntity
  8
R2V
  6
ByLayer
 62
    0
370
   -1
100
AcDbPolyline
 90
    2
 70
    0
 43
0
 10
755.3883495145631
 20
32.18446601941744
 10
755.3883495145631
 20
316.1650485436893
  0
LWPOLYLINE
  5
82
100
AcDbEntity
  8
R2V
  6
ByLayer
 62
    0
370
   -1
100
AcDbPolyline
 90
    2
 70
    0
 43
0
 10
793.252427184466
 20
32.18446601941744
 10
802.7184466019417
 20
32.18446601941744
  0
LWPOLYLINE
  5
83
100
AcDbEntity
  8
R2V
  6
ByLayer
 62
    0
370
   -1
100
AcDbPolyline
 90
    7
 70
    0
 43
0
 10
935.2427184466019
 20
32.18446601941744
 10
935.2427184466019
 20
335.0970873786408
 10
1096.165048543689
 20
335.0970873786408
 10
1105.631067961165
 20
13.25242718446601
 10
925.7766990291261
 20
13.25242718446601
 10
925.7766990291261
 20
32.18446601941744
 10
1096.165048543689
 20
32.18446601941744
  0
LWPOLYLINE
  5
84
100
AcDbEntity
  8
R2V
  6
ByLayer
 62
    0
370
   -1
100
AcDbPolyline
 90
    3
 70
    0
 43
0
 10
973.1067961165048
 20
32.18446601941744
 10
973.1067961165048
 20
316.1650485436893
 10
1096.165048543689
 20
316.1650485436893
  0
LWPOLYLINE
  5
85
100
AcDbEntity
  8
R2V
  6
ByLayer
 62
    0
370
   -1
100
AcDbPolyline
 90
    2
 70
    0
 43
0
 10
1058.300970873786
 20
32.18446601941744
 10
1058.300970873786
 20
316.1650485436893
  0
LWPOLYLINE
  5
86
100
AcDbEntity
  8
R2V
  6
ByLayer
 62
    0
370
   -1
100
AcDbPolyline
 90
    2
 70
    0
 43
0
 10
1096.165048543689
 20
32.18446601941744
 10
1105.631067961165
 20
32.18446601941744
  0
LWPOLYLINE
  5
87
100
AcDbEntity
  8
R2V
  6
ByLayer
 62
    0
370
   -1
100
AcDbPolyline
 90
    6
 70
    0
 43
0
 10
196.8932038834951
 20
202.5728155339806
 10
196.8932038834951
 20
363.4951456310679
 10
187.4271844660194
 20
382.4271844660194
 10
329.4174757281553
 20
382.4271844660194
 10
499.8058252427184
 20
363.4951456310679
 10
499.8058252427184
 20
202.5728155339806
  0
LWPOLYLINE
  5
88
100
AcDbEntity
  8
R2V
  6
ByLayer
 62
    0
370
   -1
100
AcDbPolyline
 90
    6
 70
    0
 43
0
 10
802.7184466019417
 20
202.5728155339806
 10
802.7184466019417
 20
363.4951456310679
 10
793.252427184466
 20
382.4271844660194
 10
935.2427184466019
 20
382.4271844660194
 10
1105.631067961165
 20
363.4951456310679
 10
1105.631067961165
 20
202.5728155339806
  0
LWPOLYLINE
  5
89
100
AcDbEntity
  8
R2V
  6
ByLayer
 62
    0
370
   -1
100
AcDbPolyline
 90
    2
 70
    0
 43
0
 10
26.504854368932
 20
278.3009708737864
 10
45.43689320388347
 20
278.3009708737864
  0
LWPOLYLINE
  5
8A
100
AcDbEntity
  8
R2V
  6
ByLayer
 62
    0
370
   -1
100
AcDbPolyline
 90
    2
 70
    0
 43
0
 10
187.4271844660194
 20
278.3009708737864
 10
168.4951456310679
 20
278.3009708737864
  0
LWPOLYLINE
  5
8B
100
AcDbEntity
  8
R2V
  6
ByLayer
 62
    0
370
   -1
100
AcDbPolyline
 90
    2
 70
    0
 43
0
 10
329.4174757281553
 20
278.3009708737864
 10
348.3495145631068
 20
278.3009708737864
  0
LWPOLYLINE
  5
8C
100
AcDbEntity
  8
R2V
  6
ByLayer
 62
    0
370
   -1
100
AcDbPolyline
 90
    2
 70
    0
 43
0
 10
490.3398058252427
 20
278.3009708737864
 10
471.4077669902912
 20
278.3009708737864
  0
LWPOLYLINE
  5
8D
100
AcDbEntity
  8
R2V
  6
ByLayer
 62
    0
370
   -1
100
AcDbPolyline
 90
    2
 70
    0
 43
0
 10
632.3300970873786
 20
278.3009708737864
 10
651.26213592233
 20
278.3009708737864
  0
LWPOLYLINE
  5
8E
100
AcDbEntity
  8
R2V
  6
ByLayer
 62
    0
370
   -1
100
AcDbPolyline
 90
    2
 70
    0
 43
0
 10
793.252427184466
 20
278.3009708737864
 10
774.3203883495145
 20
278.3009708737864
  0
LWPOLYLINE
  5
8F
100
AcDbEntity
  8
R2V
  6
ByLayer
 62
    0
370
   -1
100
AcDbPolyline
 90
    2
 70
    0
 43
0
 10
935.2427184466019
 20
278.3009708737864
 10
954.1747572815533
 20
278.3009708737864
  0
LWPOLYLINE
  5
90
100
AcDbEntity
  8
R2V
  6
ByLayer
 62
    0
370
   -1
100
AcDbPolyline
 90
    2
 70
    0
 43
0
 10
1096.165048543689
 20
278.3009708737864
 10
1077.233009708738
 20
278.3009708737864
  0
LWPOLYLINE
  5
91
100
AcDbEntity
  8
R2V
  6
ByLayer
 62
    0
370
   -1
100
AcDbPolyline
 90
    2
 70
    0
 43
0
 10
26.504854368932
 20
297.2330097087378
 10
45.43689320388347
 20
297.2330097087378
  0
LWPOLYLINE
  5
92
100
AcDbEntity
  8
R2V
  6
ByLayer
 62
    0
370
   -1
100
AcDbPolyline
 90
    2
 70
    0
 43
0
 10
187.4271844660194
 20
297.2330097087378
 10
168.4951456310679
 20
297.2330097087378
  0
LWPOLYLINE
  5
93
100
AcDbEntity
  8
R2V
  6
ByLayer
 62
    0
370
   -1
100
AcDbPolyline
 90
    2
 70
    0
 43
0
 10
329.4174757281553
 20
297.2330097087378
 10
348.3495145631068
 20
297.2330097087378
  0
LWPOLYLINE
  5
94
100
AcDbEntity
  8
R2V
  6
ByLayer
 62
    0
370
   -1
100
AcDbPolyline
 90
    2
 70
    0
 43
0
 10
490.3398058252427
 20
297.2330097087378
 10
471.4077669902912
 20
297.2330097087378
  0
LWPOLYLINE
  5
95
100
AcDbEntity
  8
R2V
  6
ByLayer
 62
    0
370
   -1
100
AcDbPolyline
 90
    2
 70
    0
 43
0
 10
632.3300970873786
 20
297.2330097087378
 10
651.26213592233
 20
297.2330097087378
  0
LWPOLYLINE
  5
96
100
AcDbEntity
  8
R2V
  6
ByLayer
 62
    0
370
   -1
100
AcDbPolyline
 90
    2
 70
    0
 43
0
 10
793.252427184466
 20
297.2330097087378
 10
774.3203883495145
 20
297.2330097087378
  0
LWPOLYLINE
  5
97
100
AcDbEntity
  8
R2V
  6
ByLayer
 62
    0
370
   -1
100
AcDbPolyline
 90
    2
 70
    0
 43
0
 10
935.2427184466019
 20
297.2330097087378
 10
954.1747572815533
 20
297.2330097087378
  0
LWPOLYLINE
  5
98
100
AcDbEntity
  8
R2V
  6
ByLayer
 62
    0
370
   -1
100
AcDbPolyline
 90
    2
 70
    0
 43
0
 10
1096.165048543689
 20
297.2330097087378
 10
1077.233009708738
 20
297.2330097087378
  0
LWPOLYLINE
  5
99
100
AcDbEntity
  8
R2V
  6
ByLayer
 62
    0
370
   -1
100
AcDbPolyline
 90
    2
 70
    0
 43
0
 10
26.504854368932
 20
316.1650485436893
 10
64.36893203883494
 20
316.1650485436893
  0
LWPOLYLINE
  5
9A
100
AcDbEntity
  8
R2V
  6
ByLayer
 62
    0
370
   -1
100
AcDbPolyline
 90
    2
 70
    0
 43
0
 10
329.4174757281553
 20
316.1650485436893
 10
367.2815533980582
 20
316.1650485436893
  0
LWPOLYLINE
  5
9B
100
AcDbEntity
  8
R2V
  6
ByLayer
 62
    0
370
   -1
100
AcDbPolyline
 90
    2
 70
    0
 43
0
 10
632.3300970873786
 20
316.1650485436893
 10
670.1941747572815
 20
316.1650485436893
  0
LWPOLYLINE
  5
9C
100
AcDbEntity
  8
R2V
  6
ByLayer
 62
    0
370
   -1
100
AcDbPolyline
 90
    2
 70
    0
 43
0
 10
935.2427184466019
 20
316.1650485436893
 10
973.1067961165048
 20
316.1650485436893
  0
LWPOLYLINE
  5
9D
100
AcDbEntity
  8
R2V
  6
ByLayer
 62
    0
370
   -1
100
AcDbPolyline
 90
    6
 70
    0
 43
0
 10
26.504854368932
 20
372.9611650485436
 10
-39.75728155339809
 20
382.4271844660194
 10
-39.75728155339809
 20
420.2912621359223
 10
1162.427184466019
 20
420.2912621359223
 10
1162.427184466019
 20
382.4271844660194
 10
1096.165048543689
 20
372.9611650485436
  0
LWPOLYLINE
  5
9E
100
AcDbEntity
  8
R2V
  6
ByLayer
 62
    0
370
   -1
100
AcDbPolyline
 90
    2
 70
    0
 43
0
 10
26.504854368932
 20
372.9611650485436
 10
187.4271844660194
 20
372.9611650485436
  0
LWPOLYLINE
  5
9F
100
AcDbEntity
  8
R2V
  6
ByLayer
 62
    0
370
   -1
100
AcDbPolyline
 90
    5
 70
    0
 43
0
 10
26.504854368932
 20
372.9611650485436
 10
17.03883495145629
 20
363.4951456310679
 10
7.57281553398056
 20
354.0291262135922
 10
7.57281553398056
 20
193.1067961165049
 10
17.03883495145629
 20
183.6407766990291
  0
LWPOLYLINE
  5
A0
100
AcDbEntity
  8
R2V
  6
ByLayer
 62
    0
370
   -1
100
AcDbPolyline
 90
    5
 70
    0
 43
0
 10
329.4174757281553
 20
372.9611650485436
 10
319.9514563106796
 20
363.4951456310679
 10
310.4854368932039
 20
354.0291262135922
 10
310.4854368932039
 20
193.1067961165049
 10
319.9514563106796
 20
183.6407766990291
  0
LWPOLYLINE
  5
A1
100
AcDbEntity
  8
R2V
  6
ByLayer
 62
    0
370
   -1
100
AcDbPolyline
 90
    5
 70
    0
 43
0
 10
490.3398058252427
 20
372.9611650485436
 10
490.3398058252427
 20
382.4271844660194
 10
632.3300970873786
 20
382.4271844660194
 10
641.7961165048544
 20
372.9611650485436
 10
793.252427184466
 20
372.9611650485436
  0
LWPOLYLINE
  5
A2
100
AcDbEntity
  8
R2V
  6
ByLayer
 62
    0
370
   -1
100
AcDbPolyline
 90
    5
 70
    0
 43
0
 10
632.3300970873786
 20
372.9611650485436
 10
622.8640776699028
 20
363.4951456310679
 10
613.3980582524272
 20
354.0291262135922
 10
613.3980582524272
 20
193.1067961165049
 10
622.8640776699028
 20
183.6407766990291
  0
LWPOLYLINE
  5
A3
100
AcDbEntity
  8
R2V
  6
ByLayer
 62
    0
370
   -1
100
AcDbPolyline
 90
    5
 70
    0
 43
0
 10
935.2427184466019
 20
372.9611650485436
 10
925.7766990291261
 20
363.4951456310679
 10
916.3106796116505
 20
354.0291262135922
 10
916.3106796116505
 20
193.1067961165049
 10
925.7766990291261
 20
183.6407766990291
  0
LWPOLYLINE
  5
A4
100
AcDbEntity
  8
R2V
  6
ByLayer
 62
    0
370
   -1
100
AcDbPolyline
 90
    3
 70
    0
 43
0
 10
-20.82524271844662
 20
183.6407766990291
 10
-11.35922330097091
 20
193.1067961165049
 10
-1.893203883495175
 20
193.1067961165049
  0
LWPOLYLINE
  5
A5
100
AcDbEntity
  8
R2V
  6
ByLayer
 62
    0
370
   -1
100
AcDbPolyline
 90
    3
 70
    0
 43
0
 10
282.0873786407767
 20
183.6407766990291
 10
291.5533980582524
 20
193.1067961165049
 10
301.0194174757281
 20
193.1067961165049
  0
LWPOLYLINE
  5
A6
100
AcDbEntity
  8
R2V
  6
ByLayer
 62
    0
370
   -1
100
AcDbPolyline
 90
    3
 70
    0
 43
0
 10
585
 20
183.6407766990291
 10
594.4660194174756
 20
193.1067961165049
 10
603.9320388349514
 20
193.1067961165049
  0
LWPOLYLINE
  5
A7
100
AcDbEntity
  8
R2V
  6
ByLayer
 62
    0
370
   -1
100
AcDbPolyline
 90
    3
 70
    0
 43
0
 10
887.9126213592233
 20
183.6407766990291
 10
897.3786407766989
 20
193.1067961165049
 10
906.8446601941747
 20
193.1067961165049
  0
LWPOLYLINE
  5
A8
100
AcDbEntity
  8
R2V
  6
ByLayer
 62
    0
370
   -1
100
AcDbPolyline
 90
    2
 70
    0
 43
0
 10
92.76699029126212
 20
278.3009708737864
 10
121.1650485436893
 20
278.3009708737864
  0
LWPOLYLINE
  5
A9
100
AcDbEntity
  8
R2V
  6
ByLayer
 62
    0
370
   -1
100
AcDbPolyline
 90
    2
 70
    0
 43
0
 10
395.6796116504854
 20
278.3009708737864
 10
424.0776699029126
 20
278.3009708737864
  0
LWPOLYLINE
  5
AA
100
AcDbEntity
  8
R2V
  6
ByLayer
 62
    0
370
   -1
100
AcDbPolyline
 90
    2
 70
    0
 43
0
 10
698.5922330097087
 20
278.3009708737864
 10
726.9902912621359
 20
278.3009708737864
  0
LWPOLYLINE
  5
AB
100
AcDbEntity
  8
R2V
  6
ByLayer
 62
    0
370
   -1
100
AcDbPolyline
 90
    2
 70
    0
 43
0
 10
1001.504854368932
 20
278.3009708737864
 10
1029.902912621359
 20
278.3009708737864
  0
LWPOLYLINE
  5
AC
100
AcDbEntity
  8
R2V
  6
ByLayer
 62
    0
370
   -1
100
AcDbPolyline
 90
    2
 70
    0
 43
0
 10
92.76699029126212
 20
297.2330097087378
 10
121.1650485436893
 20
297.2330097087378
  0
LWPOLYLINE
  5
AD
100
AcDbEntity
  8
R2V
  6
ByLayer
 62
    0
370
   -1
100
AcDbPolyline
 90
    2
 70
    0
 43
0
 10
395.6796116504854
 20
297.2330097087378
 10
424.0776699029126
 20
297.2330097087378
  0
LWPOLYLINE
  5
AE
100
AcDbEntity
  8
R2V
  6
ByLayer
 62
    0
370
   -1
100
AcDbPolyline
 90
    2
 70
    0
 43
0
 10
698.5922330097087
 20
297.2330097087378
 10
726.9902912621359
 20
297.2330097087378
  0
LWPOLYLINE
  5
AF
100
AcDbEntity
  8
R2V
  6
ByLayer
 62
    0
370
   -1
100
AcDbPolyline
 90
    2
 70
    0
 43
0
 10
1001.504854368932
 20
297.2330097087378
 10
1029.902912621359
 20
297.2330097087378
  0
ENDBLK
  5
52
330
50
100
AcDbEntity
  8
0
100
AcDbBlockEnd
  0
BLOCK
  5
54
330
53
100
AcDbEntity
  8
0
100
AcDbBlockBegin
  2
blinder
 70
    0
 10
0
 20
0
  3
blinder
  1

  0
LWPOLYLINE
  5
B0
100
AcDbEntity
  8
R2V
  6
ByLayer
 62
    0
370
   -1
100
AcDbPolyline
 90
   11
 70
    0
 43
0
 10
64.46937592842687
 20
36.30074606331209
 10
42.80273092842708
 20
57.96745606331206
 10
57.24716092842709
 20
94.07853106331208
 10
57.24716092842709
 20
108.522961063312
 10
64.46937592842687
 20
108.522961063312
 10
100.5804509284271
 20
94.07853106331208
 10
115.0249459284273
 20
94.07853106331208
 10
100.5804509284271
 20
50.74524106331205
 10
100.5804509284271
 20
36.30074606331209
 10
57.24716092842709
 20
57.96745606331206
 10
50.02494592842686
 20
65.18967106331206
  0
LWPOLYLINE
  5
B1
100
AcDbEntity
  8
R2V
  6
ByLayer
 62
    0
370
   -1
100
AcDbPolyline
 90
    4
 70
    0
 43
0
 10
64.46937592842687
 20
36.30074606331209
 10
71.6915909284271
 20
29.07853106331208
 10
86.13602092842711
 20
29.07853106331208
 10
93.35823592842689
 20
36.30074606331209
  0
LWPOLYLINE
  5
B2
100
AcDbEntity
  8
R2V
  6
ByLayer
 62
    0
370
   -1
100
AcDbPolyline
 90
   11
 70
    0
 43
0
 10
194.4693759284271
 20
36.30074606331209
 10
172.8027309284271
 20
57.96745606331206
 10
187.2471609284271
 20
94.07853106331208
 10
187.2471609284271
 20
108.522961063312
 10
194.4693759284271
 20
108.522961063312
 10
230.5804509284271
 20
94.07853106331208
 10
245.0249459284271
 20
94.07853106331208
 10
230.5804509284271
 20
50.74524106331205
 10
230.5804509284271
 20
36.30074606331209
 10
187.2471609284271
 20
57.96745606331206
 10
180.0249459284271
 20
65.18967106331206
  0
LWPOLYLINE
  5
B3
100
AcDbEntity
  8
R2V
  6
ByLayer
 62
    0
370
   -1
100
AcDbPolyline
 90
    4
 70
    0
 43
0
 10
194.4693759284271
 20
36.30074606331209
 10
201.6915909284271
 20
29.07853106331208
 10
216.1360209284271
 20
29.07853106331208
 10
223.3582359284271
 20
36.30074606331209
  0
LWPOLYLINE
  5
B4
100
AcDbEntity
  8
R2V
  6
ByLayer
 62
    0
370
   -1
100
AcDbPolyline
 90
    2
 70
    0
 43
0
 10
71.6915909284271
 20
43.5229610633121
 10
64.46937592842687
 20
36.30074606331209
  0
LWPOLYLINE
  5
B5
100
AcDbEntity
  8
R2V
  6
ByLayer
 62
    0
370
   -1
100
AcDbPolyline
 90
    3
 70
    0
 43
0
 10
86.13602092842711
 20
43.5229610633121
 10
93.35823592842689
 20
50.74524106331205
 10
100.5804509284271
 20
50.74524106331205
  0
LWPOLYLINE
  5
B6
100
AcDbEntity
  8
R2V
  6
ByLayer
 62
    0
370
   -1
100
AcDbPolyline
 90
    6
 70
    0
 43
0
 10
107.8027309284271
 20
43.5229610633121
 10
115.0249459284273
 20
50.74524106331205
 10
115.0249459284273
 20
57.96745606331206
 10
122.2471609284271
 20
65.18967106331206
 10
122.2471609284271
 20
79.63410106331207
 10
115.0249459284273
 20
86.85631606331208
  0
LWPOLYLINE
  5
B7
100
AcDbEntity
  8
R2V
  6
ByLayer
 62
    0
370
   -1
100
AcDbPolyline
 90
    2
 70
    0
 43
0
 10
201.6915909284271
 20
43.5229610633121
 10
194.4693759284271
 20
36.30074606331209
  0
LWPOLYLINE
  5
B8
100
AcDbEntity
  8
R2V
  6
ByLayer
 62
    0
370
   -1
100
AcDbPolyline
 90
    3
 70
    0
 43
0
 10
216.1360209284271
 20
43.5229610633121
 10
223.3582359284271
 20
50.74524106331205
 10
230.5804509284271
 20
50.74524106331205
  0
LWPOLYLINE
  5
B9
100
AcDbEntity
  8
R2V
  6
ByLayer
 62
    0
370
   -1
100
AcDbPolyline
 90
    6
 70
    0
 43
0
 10
237.8027309284271
 20
43.5229610633121
 10
245.0249459284271
 20
50.74524106331205
 10
245.0249459284271
 20
57.96745606331206
 10
252.2471609284271
 20
65.18967106331206
 10
252.2471609284271
 20
79.63410106331207
 10
245.0249459284271
 20
86.85631606331208
  0
LWPOLYLINE
  5
BA
100
AcDbEntity
  8
R2V
  6
ByLayer
 62
    0
370
   -1
100
AcDbPolyline
 90
    6
 70
    0
 43
0
 10
42.80273092842708
 20
57.96745606331206
 10
35.58045092842713
 20
65.18967106331206
 10
35.58045092842713
 20
79.63410106331207
 10
42.80273092842708
 20
86.85631606331208
 10
42.80273092842708
 20
94.07853106331208
 10
50.02494592842686
 20
101.300746063312
  0
LWPOLYLINE
  5
BB
100
AcDbEntity
  8
R2V
  6
ByLayer
 62
    0
370
   -1
100
AcDbPolyline
 90
    6
 70
    0
 43
0
 10
172.8027309284271
 20
57.96745606331206
 10
165.5804509284271
 20
65.18967106331206
 10
165.5804509284271
 20
79.63410106331207
 10
172.8027309284271
 20
86.85631606331208
 10
172.8027309284271
 20
94.07853106331208
 10
180.0249459284271
 20
101.300746063312
  0
LWPOLYLINE
  5
BC
100
AcDbEntity
  8
R2V
  6
ByLayer
 62
    0
370
   -1
100
AcDbPolyline
 90
    3
 70
    0
 43
0
 10
107.8027309284271
 20
79.63410106331207
 10
100.5804509284271
 20
86.85631606331208
 10
100.5804509284271
 20
94.07853106331208
  0
LWPOLYLINE
  5
BD
100
AcDbEntity
  8
R2V
  6
ByLayer
 62
    0
370
   -1
100
AcDbPolyline
 90
    3
 70
    0
 43
0
 10
237.8027309284271
 20
79.63410106331207
 10
230.5804509284271
 20
86.85631606331208
 10
230.5804509284271
 20
94.07853106331208
  0
LWPOLYLINE
  5
BE
100
AcDbEntity
  8
R2V
  6
ByLayer
 62
    0
370
   -1
100
AcDbPolyline
 90
    3
 70
    0
 43
0
 10
57.24716092842709
 20
94.07853106331208
 10
64.46937592842687
 20
94.07853106331208
 10
71.6915909284271
 20
101.300746063312
  0
LWPOLYLINE
  5
BF
100
AcDbEntity
  8
R2V
  6
ByLayer
 62
    0
370
   -1
100
AcDbPolyline
 90
    3
 70
    0
 43
0
 10
187.2471609284271
 20
94.07853106331208
 10
194.4693759284271
 20
94.07853106331208
 10
201.6915909284271
 20
101.300746063312
  0
LWPOLYLINE
  5
C0
100
AcDbEntity
  8
R2V
  6
ByLayer
 62
    0
370
   -1
100
AcDbPolyline
 90
    4
 70
    0
 43
0
 10
86.13602092842711
 20
101.300746063312
 10
93.35823592842689
 20
108.522961063312
 10
100.5804509284271
 20
108.522961063312
 10
107.8027309284271
 20
101.300746063312
  0
LWPOLYLINE
  5
C1
100
AcDbEntity
  8
R2V
  6
ByLayer
 62
    0
370
   -1
100
AcDbPolyline
 90
    4
 70
    0
 43
0
 10
216.1360209284271
 20
101.300746063312
 10
223.3582359284271
 20
108.522961063312
 10
230.5804509284271
 20
108.522961063312
 10
237.8027309284271
 20
101.300746063312
  0
LWPOLYLINE
  5
C2
100
AcDbEntity
  8
R2V
  6
ByLayer
 62
    0
370
   -1
100
AcDbPolyline
 90
    4
 70
    0
 43
0
 10
64.46937592842687
 20
108.522961063312
 10
71.6915909284271
 20
115.7452410633121
 10
86.13602092842711
 20
115.7452410633121
 10
93.35823592842689
 20
108.522961063312
  0
LWPOLYLINE
  5
C3
100
AcDbEntity
  8
R2V
  6
ByLayer
 62
    0
370
   -1
100
AcDbPolyline
 90
    4
 70
    0
 43
0
 10
194.4693759284271
 20
108.522961063312
 10
201.6915909284271
 20
115.7452410633121
 10
216.1360209284271
 20
115.7452410633121
 10
223.3582359284271
 20
108.522961063312
  0
LWPOLYLINE
  5
C4
100
AcDbEntity
  8
R2V
  6
ByLayer
 62
    0
370
   -1
100
AcDbPolyline
 90
   11
 70
    0
 43
0
 10
6.691590928427104
 20
130.189671063312
 10
13.91380592842688
 20
252.9674560633121
 10
273.9138059284271
 20
252.9674560633121
 10
273.9138059284271
 20
0.189671063312062
 10
6.691590928427104
 20
7.411886063312068
 10
6.691590928427104
 20
130.189671063312
 10
-7.752839071572907
 20
130.189671063312
 10
-0.5306240715726744
 20
303.522961063312
 10
288.3582359284271
 20
303.522961063312
 10
295.5804509284271
 20
130.189671063312
 10
281.1360209284271
 20
130.189671063312
  0
LWPOLYLINE
  5
C5
100
AcDbEntity
  8
R2V
  6
ByLayer
 62
    0
370
   -1
100
AcDbPolyline
 90
   11
 70
    0
 43
0
 10
64.46937592842687
 20
144.634101063312
 10
42.80273092842708
 20
166.300746063312
 10
57.24716092842709
 20
202.411886063312
 10
57.24716092842709
 20
216.8563160633121
 10
64.46937592842687
 20
216.8563160633121
 10
100.5804509284271
 20
202.411886063312
 10
115.0249459284273
 20
202.411886063312
 10
100.5804509284271
 20
159.0785310633121
 10
100.5804509284271
 20
144.634101063312
 10
57.24716092842709
 20
166.300746063312
 10
50.02494592842686
 20
173.522961063312
  0
LWPOLYLINE
  5
C6
100
AcDbEntity
  8
R2V
  6
ByLayer
 62
    0
370
   -1
100
AcDbPolyline
 90
    4
 70
    0
 43
0
 10
64.46937592842687
 20
144.634101063312
 10
71.6915909284271
 20
137.411886063312
 10
86.13602092842711
 20
137.411886063312
 10
93.35823592842689
 20
144.634101063312
  0
LWPOLYLINE
  5
C7
100
AcDbEntity
  8
R2V
  6
ByLayer
 62
    0
370
   -1
100
AcDbPolyline
 90
   11
 70
    0
 43
0
 10
194.4693759284271
 20
144.634101063312
 10
172.8027309284271
 20
166.300746063312
 10
187.2471609284271
 20
202.411886063312
 10
187.2471609284271
 20
216.8563160633121
 10
194.4693759284271
 20
216.8563160633121
 10
230.5804509284271
 20
202.411886063312
 10
245.0249459284271
 20
202.411886063312
 10
230.5804509284271
 20
159.0785310633121
 10
230.5804509284271
 20
144.634101063312
 10
187.2471609284271
 20
166.300746063312
 10
180.0249459284271
 20
173.522961063312
  0
LWPOLYLINE
  5
C8
100
AcDbEntity
  8
R2V
  6
ByLayer
 62
    0
370
   -1
100
AcDbPolyline
 90
    4
 70
    0
 43
0
 10
194.4693759284271
 20
144.634101063312
 10
201.6915909284271
 20
137.411886063312
 10
216.1360209284271
 20
137.411886063312
 10
223.3582359284271
 20
144.634101063312
  0
LWPOLYLINE
  5
C9
100
AcDbEntity
  8
R2V
  6
ByLayer
 62
    0
370
   -1
100
AcDbPolyline
 90
    2
 70
    0
 43
0
 10
71.6915909284271
 20
151.8563160633121
 10
64.46937592842687
 20
144.634101063312
  0
LWPOLYLINE
  5
CA
100
AcDbEntity
  8
R2V
  6
ByLayer
 62
    0
370
   -1
100
AcDbPolyline
 90
    3
 70
    0
 43
0
 10
86.13602092842711
 20
151.8563160633121
 10
93.35823592842689
 20
159.0785310633121
 10
100.5804509284271
 20
159.0785310633121
  0
LWPOLYLINE
  5
CB
100
AcDbEntity
  8
R2V
  6
ByLayer
 62
    0
370
   -1
100
AcDbPolyline
 90
    6
 70
    0
 43
0
 10
107.8027309284271
 20
151.8563160633121
 10
115.0249459284273
 20
159.0785310633121
 10
115.0249459284273
 20
166.300746063312
 10
122.2471609284271
 20
173.522961063312
 10
122.2471609284271
 20
187.9674560633121
 10
115.0249459284273
 20
195.189671063312
  0
LWPOLYLINE
  5
CC
100
AcDbEntity
  8
R2V
  6
ByLayer
 62
    0
370
   -1
100
AcDbPolyline
 90
    2
 70
    0
 43
0
 10
201.6915909284271
 20
151.8563160633121
 10
194.4693759284271
 20
144.634101063312
  0
LWPOLYLINE
  5
CD
100
AcDbEntity
  8
R2V
  6
ByLayer
 62
    0
370
   -1
100
AcDbPolyline
 90
    3
 70
    0
 43
0
 10
216.1360209284271
 20
151.8563160633121
 10
223.3582359284271
 20
159.0785310633121
 10
230.5804509284271
 20
159.0785310633121
  0
LWPOLYLINE
  5
CE
100
AcDbEntity
  8
R2V
  6
ByLayer
 62
    0
370
   -1
100
AcDbPolyline
 90
    6
 70
    0
 43
0
 10
237.8027309284271
 20
151.8563160633121
 10
245.0249459284271
 20
159.0785310633121
 10
245.0249459284271
 20
166.300746063312
 10
252.2471609284271
 20
173.522961063312
 10
252.2471609284271
 20
187.9674560633121
 10
245.0249459284271
 20
195.189671063312
  0
LWPOLYLINE
  5
CF
100
AcDbEntity
  8
R2V
  6
ByLayer
 62
    0
370
   -1
100
AcDbPolyline
 90
    6
 70
    0
 43
0
 10
42.80273092842708
 20
166.300746063312
 10
35.58045092842713
 20
173.522961063312
 10
35.58045092842713
 20
187.9674560633121
 10
42.80273092842708
 20
195.189671063312
 10
42.80273092842708
 20
202.411886063312
 10
50.02494592842686
 20
209.634101063312
  0
LWPOLYLINE
  5
D0
100
AcDbEntity
  8
R2V
  6
ByLayer
 62
    0
370
   -1
100
AcDbPolyline
 90
    6
 70
    0
 43
0
 10
172.8027309284271
 20
166.300746063312
 10
165.5804509284271
 20
173.522961063312
 10
165.5804509284271
 20
187.9674560633121
 10
172.8027309284271
 20
195.189671063312
 10
172.8027309284271
 20
202.411886063312
 10
180.0249459284271
 20
209.634101063312
  0
LWPOLYLINE
  5
D1
100
AcDbEntity
  8
R2V
  6
ByLayer
 62
    0
370
   -1
100
AcDbPolyline
 90
    3
 70
    0
 43
0
 10
107.8027309284271
 20
187.9674560633121
 10
100.5804509284271
 20
195.189671063312
 10
100.5804509284271
 20
202.411886063312
  0
LWPOLYLINE
  5
D2
100
AcDbEntity
  8
R2V
  6
ByLayer
 62
    0
370
   -1
100
AcDbPolyline
 90
    3
 70
    0
 43
0
 10
237.8027309284271
 20
187.9674560633121
 10
230.5804509284271
 20
195.189671063312
 10
230.5804509284271
 20
202.411886063312
  0
LWPOLYLINE
  5
D3
100
AcDbEntity
  8
R2V
  6
ByLayer
 62
    0
370
   -1
100
AcDbPolyline
 90
    3
 70
    0
 43
0
 10
57.24716092842709
 20
202.411886063312
 10
64.46937592842687
 20
202.411886063312
 10
71.6915909284271
 20
209.634101063312
  0
LWPOLYLINE
  5
D4
100
AcDbEntity
  8
R2V
  6
ByLayer
 62
    0
370
   -1
100
AcDbPolyline
 90
    3
 70
    0
 43
0
 10
187.2471609284271
 20
202.411886063312
 10
194.4693759284271
 20
202.411886063312
 10
201.6915909284271
 20
209.634101063312
  0
LWPOLYLINE
  5
D5
100
AcDbEntity
  8
R2V
  6
ByLayer
 62
    0
370
   -1
100
AcDbPolyline
 90
    4
 70
    0
 43
0
 10
86.13602092842711
 20
209.634101063312
 10
93.35823592842689
 20
216.8563160633121
 10
100.5804509284271
 20
216.8563160633121
 10
107.8027309284271
 20
209.634101063312
  0
LWPOLYLINE
  5
D6
100
AcDbEntity
  8
R2V
  6
ByLayer
 62
    0
370
   -1
100
AcDbPolyline
 90
    4
 70
    0
 43
0
 10
216.1360209284271
 20
209.634101063312
 10
223.3582359284271
 20
216.8563160633121
 10
230.5804509284271
 20
216.8563160633121
 10
237.8027309284271
 20
209.634101063312
  0
LWPOLYLINE
  5
D7
100
AcDbEntity
  8
R2V
  6
ByLayer
 62
    0
370
   -1
100
AcDbPolyline
 90
    4
 70
    0
 43
0
 10
64.46937592842687
 20
216.8563160633121
 10
71.6915909284271
 20
224.0785310633121
 10
86.13602092842711
 20
224.0785310633121
 10
93.35823592842689
 20
216.8563160633121
  0
LWPOLYLINE
  5
D8
100
AcDbEntity
  8
R2V
  6
ByLayer
 62
    0
370
   -1
100
AcDbPolyline
 90
    4
 70
    0
 43
0
 10
194.4693759284271
 20
216.8563160633121
 10
201.6915909284271
 20
224.0785310633121
 10
216.1360209284271
 20
224.0785310633121
 10
223.3582359284271
 20
216.8563160633121
  0
LWPOLYLINE
  5
D9
100
AcDbEntity
  8
R2V
  6
ByLayer
 62
    0
370
   -1
100
AcDbPolyline
 90
    7
 70
    0
 43
0
 10
71.6915909284271
 20
7.411886063312068
 10
136.6915909284271
 20
21.85631606331208
 10
129.4693759284273
 20
238.522961063312
 10
21.13602092842711
 20
231.300746063312
 10
28.35823592842689
 20
14.63410106331207
 10
64.46937592842687
 20
14.63410106331207
 10
78.91380592842688
 20
7.411886063312068
  0
LWPOLYLINE
  5
DA
100
AcDbEntity
  8
R2V
  6
ByLayer
 62
    0
370
   -1
100
AcDbPolyline
 90
    7
 70
    0
 43
0
 10
208.9138059284271
 20
7.411886063312068
 10
266.6915909284271
 20
21.85631606331208
 10
259.4693759284271
 20
238.522961063312
 10
151.1360209284271
 20
231.300746063312
 10
158.3582359284271
 20
14.63410106331207
 10
201.6915909284271
 20
14.63410106331207
 10
216.1360209284271
 20
7.411886063312068
  0
LWPOLYLINE
  5
DB
100
AcDbEntity
  8
R2V
  6
ByLayer
 62
    0
370
   -1
100
AcDbPolyline
 90
    2
 70
    0
 43
0
 10
71.6915909284271
 20
245.7452410633121
 10
78.91380592842688
 20
245.7452410633121
  0
LWPOLYLINE
  5
DC
100
AcDbEntity
  8
R2V
  6
ByLayer
 62
    0
370
   -1
100
AcDbPolyline
 90
    2
 70
    0
 43
0
 10
208.9138059284271
 20
245.7452410633121
 10
216.1360209284271
 20
245.7452410633121
  0
ENDBLK
  5
55
330
53
100
AcDbEntity
  8
0
100
AcDbBlockEnd
  0
BLOCK
  5
57
330
56
100
AcDbEntity
  8
0
100
AcDbBlockBegin
  2
decoupe500
 70
    0
 10
0
 20
0
  3
decoupe500
  1

  0
LWPOLYLINE
  5
DD
100
AcDbEntity
  8
R2V
  6
ByLayer
 62
    0
370
   -1
100
AcDbPolyline
 90
    7
 70
    0
 43
0
 10
14.69089634090835
 20
35.6303717798246
 10
14.69089634090835
 20
272.5534757798246
 10
129.7678803409084
 20
272.5534757798246
 10
136.5371043409084
 20
8.553475779824566
 10
7.921672340908344
 20
8.553475779824566
 10
7.921672340908344
 20
35.6303717798246
 10
129.7678803409084
 20
35.6303717798246
  0
LWPOLYLINE
  5
DE
100
AcDbEntity
  8
R2V
  6
ByLayer
 62
    0
370
   -1
100
AcDbPolyline
 90
    2
 70
    0
 43
0
 10
41.76788034090839
 20
35.6303717798246
 10
41.76788034090839
 20
279.3226997798247
  0
LWPOLYLINE
  5
DF
100
AcDbEntity
  8
R2V
  6
ByLayer
 62
    0
370
   -1
100
AcDbPolyline
 90
    2
 70
    0
 43
0
 10
102.6908963409084
 20
35.6303717798246
 10
102.6908963409084
 20
279.3226997798247
  0
LWPOLYLINE
  5
E0
100
AcDbEntity
  8
R2V
  6
ByLayer
 62
    0
370
   -1
100
AcDbPolyline
 90
    2
 70
    0
 43
0
 10
129.7678803409084
 20
35.6303717798246
 10
136.5371043409084
 20
35.6303717798246
  0
LWPOLYLINE
  5
E1
100
AcDbEntity
  8
R2V
  6
ByLayer
 62
    0
370
   -1
100
AcDbPolyline
 90
    9
 70
    0
 43
0
 10
28.22934434090837
 20
279.3226997798247
 10
28.22934434090837
 20
306.3995957798247
 10
129.7678803409084
 20
313.1688197798246
 10
143.3063283409084
 20
340.2458037798247
 10
136.5371043409084
 20
448.5534757798246
 10
7.921672340908344
 20
448.5534757798246
 10
7.921672340908344
 20
319.9380437798247
 10
14.69089634090835
 20
319.9380437798247
 10
28.22934434090837
 20
306.3995957798247
  0
LWPOLYLINE
  5
E2
100
AcDbEntity
  8
R2V
  6
ByLayer
 62
    0
370
   -1
100
AcDbPolyline
 90
    4
 70
    0
 43
0
 10
116.2293443409084
 20
279.3226997798247
 10
116.2293443409084
 20
299.6303717798245
 10
122.9986563409084
 20
292.8611477798247
 10
170.3832243409084
 20
292.8611477798247
  0
LWPOLYLINE
  5
E3
100
AcDbEntity
  8
R2V
  6
ByLayer
 62
    0
370
   -1
100
AcDbPolyline
 90
    2
 70
    0
 43
0
 10
28.22934434090837
 20
292.8611477798247
 10
-25.92444765909164
 20
292.8611477798247
  0
LWPOLYLINE
  5
E4
100
AcDbEntity
  8
R2V
  6
ByLayer
 62
    0
370
   -1
100
AcDbPolyline
 90
    7
 70
    0
 43
0
 10
41.76788034090839
 20
306.3995957798247
 10
41.76788034090839
 20
401.1688197798246
 10
34.99865634090838
 20
407.9380437798246
 10
34.99865634090838
 20
414.7073557798245
 10
41.76788034090839
 20
421.4765797798248
 10
102.6908963409084
 20
421.4765797798248
 10
102.6908963409084
 20
306.3995957798247
  0
LWPOLYLINE
  5
E5
100
AcDbEntity
  8
R2V
  6
ByLayer
 62
    0
370
   -1
100
AcDbPolyline
 90
    5
 70
    0
 43
0
 10
55.30632834090835
 20
306.3995957798247
 10
55.30632834090835
 20
401.1688197798246
 10
95.9216723409084
 20
401.1688197798246
 10
89.15244834090839
 20
394.3995957798246
 10
89.15244834090839
 20
306.3995957798247
  0
LWPOLYLINE
  5
E6
100
AcDbEntity
  8
R2V
  6
ByLayer
 62
    0
370
   -1
100
AcDbPolyline
 90
    2
 70
    0
 43
0
 10
136.5371043409084
 20
333.4765797798248
 10
143.3063283409084
 20
333.4765797798248
  0
LWPOLYLINE
  5
E7
100
AcDbEntity
  8
R2V
  6
ByLayer
 62
    0
370
   -1
100
AcDbPolyline
 90
    5
 70
    0
 43
0
 10
136.5371043409084
 20
333.4765797798248
 10
129.7678803409084
 20
333.4765797798248
 10
129.7678803409084
 20
394.3995957798246
 10
122.9986563409084
 20
401.1688197798246
 10
102.6908963409084
 20
401.1688197798246
  0
LWPOLYLINE
  5
E8
100
AcDbEntity
  8
R2V
  6
ByLayer
 62
    0
370
   -1
100
AcDbPolyline
 90
    6
 70
    0
 43
0
 10
34.99865634090838
 20
401.1688197798246
 10
21.46012034090836
 20
401.1688197798246
 10
14.69089634090835
 20
394.3995957798246
 10
14.69089634090835
 20
333.4765797798248
 10
7.921672340908344
 20
326.7073557798246
 10
7.921672340908344
 20
333.4765797798248
  0
LWPOLYLINE
  5
E9
100
AcDbEntity
  8
R2V
  6
ByLayer
 62
    0
370
   -1
100
AcDbPolyline
 90
    2
 70
    0
 43
0
 10
41.76788034090839
 20
401.1688197798246
 10
55.30632834090835
 20
401.1688197798246
  0
LWPOLYLINE
  5
EA
100
AcDbEntity
  8
R2V
  6
ByLayer
 62
    0
370
   -1
100
AcDbPolyline
 90
    2
 70
    0
 43
0
 10
41.76788034090839
 20
401.1688197798246
 10
34.99865634090838
 20
401.1688197798246
  0
LWPOLYLINE
  5
EB
100
AcDbEntity
  8
R2V
  6
ByLayer
 62
    0
370
   -1
100
AcDbPolyline
 90
    2
 70
    0
 43
0
 10
55.30632834090835
 20
292.8611477798247
 10
89.15244834090839
 20
292.8611477798247
  0
ENDBLK
  5
58
330
56
100
AcDbEntity
  8
0
100
AcDbBlockEnd
  0
BLOCK
  5
5A
330
59
100
AcDbEntity
  8
0
100
AcDbBlockBegin
  2
F1
 70
    0
 10
0
 20
0
  3
F1
  1

  0
LINE
  5
EC
100
AcDbEntity
  8
0
  6
ByLayer
 62
  256
370
   -1
100
AcDbLine
 10
0
 20
0
 11
164.0687441905106
 21
0
  0
LINE
  5
ED
100
AcDbEntity
  8
0
  6
ByLayer
 62
  256
370
   -1
100
AcDbLine
 10
164.0687441905106
 20
0
 11
145.8388880713164
 21
116.8661305968624
  0
LINE
  5
EE
100
AcDbEntity
  8
0
  6
ByLayer
 62
  256
370
   -1
100
AcDbLine
 10
145.8388880713164
 20
116.8661305968624
 11
145.8388880713164
 21
169.9870975455804
  0
LINE
  5
EF
100
AcDbEntity
  8
0
  6
ByLayer
 62
  256
370
   -1
100
AcDbLine
 10
145.8388880713164
 20
169.9870975455804
 11
37.97887948853941
 21
169.9870975455804
  0
LINE
  5
F0
100
AcDbEntity
  8
0
  6
ByLayer
 62
  256
370
   -1
100
AcDbLine
 10
37.97887948853941
 20
169.9870975455804
 11
37.97887948853941
 21
107.7596779717203
  0
LINE
  5
F1
100
AcDbEntity
  8
0
  6
ByLayer
 62
  256
370
   -1
100
AcDbLine
 10
37.97887948853941
 20
107.7596779717203
 11
15.19155514831027
 21
0
  0
LINE
  5
F2
100
AcDbEntity
  8
0
  6
ByLayer
 62
  256
370
   -1
100
AcDbLine
 10
37.97887948853941
 20
107.7596779717203
 11
147.2593964791781
 21
107.7596779717203
  0
LINE
  5
F3
100
AcDbEntity
  8
0
  6
ByLayer
 62
  256
370
   -1
100
AcDbLine
 10
53.17042904868231
 20
147.2209695287495
 11
53.17042904868231
 21
129.0080642783323
  0
LINE
  5
F4
100
AcDbEntity
  8
0
  6
ByLayer
 62
  256
370
   -1
100
AcDbLine
 10
75.95775338885232
 20
147.2209695287495
 11
75.95775338885232
 21
129.0080642783323
  0
LINE
  5
F5
100
AcDbEntity
  8
0
  6
ByLayer
 62
  256
370
   -1
100
AcDbLine
 10
100.2642393908877
 20
147.2209695287495
 11
100.2642393908877
 21
129.0080642783323
  0
LINE
  5
F6
100
AcDbEntity
  8
0
  6
ByLayer
 62
  256
370
   -1
100
AcDbLine
 10
145.8388880713164
 20
147.2209695287495
 11
145.8388880713164
 21
129.0080642783323
  0
LINE
  5
F7
100
AcDbEntity
  8
0
  6
ByLayer
 62
  256
370
   -1
100
AcDbLine
 10
127.6090263638366
 20
147.2209695287495
 11
127.6090263638366
 21
129.0080642783323
  0
LINE
  5
F8
100
AcDbEntity
  8
0
  6
ByLayer
 62
  256
370
   -1
100
AcDbLine
 10
37.97887948853941
 20
107.7596779717203
 11
12.231147724317
 21
123.6903464842476
  0
LINE
  5
F9
100
AcDbEntity
  8
0
  6
ByLayer
 62
  256
370
   -1
100
AcDbLine
 10
12.98201379903048
 20
206.4129056822901
 11
174.7028311178747
 21
206.4129056822901
  0
LINE
  5
FA
100
AcDbEntity
  8
0
  6
ByLayer
 62
  256
370
   -1
100
AcDbLine
 10
174.7028311178747
 20
206.4129056822901
 11
174.7028311178747
 21
124.454839147794
  0
LINE
  5
FB
100
AcDbEntity
  8
0
  6
ByLayer
 62
  256
370
   -1
100
AcDbLine
 10
174.7028311178747
 20
124.454839147794
 11
147.2593964791781
 21
107.7596779717203
  0
LINE
  5
FC
100
AcDbEntity
  8
0
  6
ByLayer
 62
  256
370
   -1
100
AcDbLine
 10
12.231147724317
 20
205.6484130187437
 11
12.231147724317
 21
123.6903464842476
  0
ENDBLK
  5
5B
330
59
100
AcDbEntity
  8
0
100
AcDbBlockEnd
  0
BLOCK
  5
5D
330
5C
100
AcDbEntity
  8
0
100
AcDbBlockBegin
  2
horiziode1000
 70
    0
 10
0
 20
0
  3
horiziode1000
  1

  0
LWPOLYLINE
  5
FD
100
AcDbEntity
  8
R2V
  6
ByLayer
 62
    0
370
   -1
100
AcDbPolyline
 90
   10
 70
    0
 43
0
 10
-19.53764106528388
 20
110.4240915081696
 10
-10.25193606528387
 20
249.7097965081696
 10
314.7480639347161
 20
249.7097965081696
 10
324.0337689347161
 20
110.4240915081696
 10
305.4623589347161
 20
110.4240915081696
 10
296.1766539347161
 20
212.5669765081695
 10
-0.9662310652838642
 20
203.2812065081694
 10
8.319473934716143
 20
8.281206508169362
 10
305.4623589347161
 20
17.56697650816955
 10
305.4623589347161
 20
110.4240915081696
  0
LWPOLYLINE
  5
FE
100
AcDbEntity
  8
R2V
  6
ByLayer
 62
    0
370
   -1
100
AcDbPolyline
 90
    2
 70
    0
 43
0
 10
-19.53764106528388
 20
110.4240915081696
 10
-0.9662310652838642
 20
110.4240915081696
  0
LWPOLYLINE
  5
FF
100
AcDbEntity
  8
R2V
  6
ByLayer
 62
    0
370
   -1
100
AcDbPolyline
 90
    4
 70
    0
 43
0
 10
-19.53764106528388
 20
110.4240915081696
 10
-38.10905106528389
 20
110.4240915081696
 10
-38.10905106528389
 20
101.1383865081693
 10
-47.39482106528385
 20
91.85268150816955
  0
LWPOLYLINE
  5
100
100
AcDbEntity
  8
R2V
  6
ByLayer
 62
    0
370
   -1
100
AcDbPolyline
 90
    5
 70
    0
 43
0
 10
26.89094893471611
 20
26.85268150816955
 10
286.8909489347161
 20
36.13838650816956
 10
277.6051789347162
 20
193.9955015081694
 10
17.60517893471615
 20
184.7097965081696
 10
26.89094893471611
 20
26.85268150816955
  0
LWPOLYLINE
  5
101
100
AcDbEntity
  8
R2V
  6
ByLayer
 62
    0
370
   -1
100
AcDbPolyline
 90
    2
 70
    0
 43
0
 10
64.03376893471614
 20
110.4240915081696
 10
240.4623589347161
 20
110.4240915081696
  0
ENDBLK
  5
5E
330
5C
100
AcDbEntity
  8
0
100
AcDbBlockEnd
  0
BLOCK
  5
60
330
5F
100
AcDbEntity
  8
0
100
AcDbBlockBegin
  2
minibeam
 70
    0
 10
0
 20
0
  3
minibeam
  1

  0
LWPOLYLINE
  5
102
100
AcDbEntity
  8
R2V
  6
ByLayer
 62
    0
370
   -1
100
AcDbPolyline
 90
    9
 70
    0
 43
0
 10
10.44318548586148
 20
54.97252669358068
 10
15.62175691443281
 20
106.758240979295
 10
41.51461405729015
 20
137.8296695507236
 10
124.3717569144328
 20
137.8296695507236
 10
155.4431854858615
 20
96.40109812215212
 10
155.4431854858615
 20
8.365383836437786
 10
10.44318548586148
 20
8.365383836437786
 10
10.44318548586148
 20
54.97252669358068
 10
155.4431854858615
 20
54.97252669358068
  0
LWPOLYLINE
  5
103
100
AcDbEntity
  8
R2V
  6
ByLayer
 62
    0
370
   -1
100
AcDbPolyline
 90
    7
 70
    0
 43
0
 10
0.08604262871858737
 20
75.68681240786634
 10
5.264614057289918
 20
132.6510981221521
 10
57.05032834300437
 20
184.4368124078665
 10
108.8360426287186
 20
184.4368124078665
 10
165.8003283430044
 20
127.4725266935807
 10
165.8003283430044
 20
75.68681240786634
 10
155.4431854858615
 20
75.68681240786634
  0
LWPOLYLINE
  5
104
100
AcDbEntity
  8
R2V
  6
ByLayer
 62
    0
370
   -1
100
AcDbPolyline
 90
    2
 70
    0
 43
0
 10
0.08604262871858737
 20
75.68681240786634
 10
10.44318548586148
 20
75.68681240786634
  0
LWPOLYLINE
  5
105
100
AcDbEntity
  8
R2V
  6
ByLayer
 62
    0
370
   -1
100
AcDbPolyline
 90
    2
 70
    0
 43
0
 10
0.08604262871858737
 20
75.68681240786634
 10
-15.44967165699563
 20
75.68681240786634
  0
LWPOLYLINE
  5
106
100
AcDbEntity
  8
R2V
  6
ByLayer
 62
    0
370
   -1
100
AcDbPolyline
 90
    2
 70
    0
 43
0
 10
10.44318548586148
 20
91.22252669358068
 10
155.4431854858615
 20
91.22252669358068
  0
ENDBLK
  5
61
330
5F
100
AcDbEntity
  8
0
100
AcDbBlockEnd
  0
BLOCK
  5
63
330
62
100
AcDbEntity
  8
0
100
AcDbBlockBegin
  2
par64
 70
    0
 10
0
 20
0
  3
par64
  1

  0
LWPOLYLINE
  5
107
100
AcDbEntity
  8
R2V
  6
ByLayer
 62
    0
370
   -1
100
AcDbPolyline
 90
    8
 70
    0
 43
0
 10
13.17019051051045
 20
2
 10
23.34032000000002
 20
347.7858061261261
 10
84.36134102102096
 20
398.6366366366365
 10
135.2122325525526
 20
398.6366366366365
 10
206.403383063063
 20
327.445425105105
 10
206.403383063063
 20
2
 10
94.53153153153153
 20
12.17019051051057
 10
23.34032000000002
 20
22.34032000000002
  0
LWPOLYLINE
  5
108
100
AcDbEntity
  8
R2V
  6
ByLayer
 62
    0
370
   -1
100
AcDbPolyline
 90
    3
 70
    0
 43
0
 10
13.17019051051045
 20
2
 10
94.53153153153153
 20
2
 10
94.53153153153153
 20
12.17019051051057
  0
LWPOLYLINE
  5
109
100
AcDbEntity
  8
R2V
  6
ByLayer
 62
    0
370
   -1
100
AcDbPolyline
 90
    2
 70
    0
 43
0
 10
13.17019051051045
 20
2
 10
-7.170190510510452
 20
2
  0
LWPOLYLINE
  5
10A
100
AcDbEntity
  8
R2V
  6
ByLayer
 62
    0
370
   -1
100
AcDbPolyline
 90
    2
 70
    0
 43
0
 10
206.403383063063
 20
2
 10
226.7437640840841
 20
2
  0
LWPOLYLINE
  5
10B
100
AcDbEntity
  8
R2V
  6
ByLayer
 62
    0
370
   -1
100
AcDbPolyline
 90
    2
 70
    0
 43
0
 10
94.53153153153153
 20
12.17019051051057
 10
94.53153153153153
 20
22.34032000000002
  0
LWPOLYLINE
  5
10C
100
AcDbEntity
  8
R2V
  6
ByLayer
 62
    0
370
   -1
100
AcDbPolyline
 90
    3
 70
    0
 43
0
 10
125.042042042042
 20
12.17019051051057
 10
125.042042042042
 20
22.34032000000002
 10
196.2332535735736
 20
22.34032000000002
  0
LWPOLYLINE
  5
10D
100
AcDbEntity
  8
R2V
  6
ByLayer
 62
    0
370
   -1
100
AcDbPolyline
 90
    2
 70
    0
 43
0
 10
196.2332535735736
 20
22.34032000000002
 10
206.403383063063
 20
22.34032000000002
  0
LWPOLYLINE
  5
10E
100
AcDbEntity
  8
R2V
  6
ByLayer
 62
    0
370
   -1
100
AcDbPolyline
 90
    2
 70
    0
 43
0
 10
23.34032000000002
 20
235.9138935735734
 10
196.2332535735736
 20
235.9138935735734
  0
LWPOLYLINE
  5
10F
100
AcDbEntity
  8
R2V
  6
ByLayer
 62
    0
370
   -1
100
AcDbPolyline
 90
    2
 70
    0
 43
0
 10
23.34032000000002
 20
235.9138935735734
 10
13.17019051051045
 20
235.9138935735734
  0
LWPOLYLINE
  5
110
100
AcDbEntity
  8
R2V
  6
ByLayer
 62
    0
370
   -1
100
AcDbPolyline
 90
    4
 70
    0
 43
0
 10
-7.170190510510452
 20
266.424404084084
 10
3
 20
429.1471471471471
 10
216.5735735735736
 20
429.1471471471471
 10
226.7437640840841
 20
235.9138935735734
  0
LWPOLYLINE
  5
111
100
AcDbEntity
  8
R2V
  6
ByLayer
 62
    0
370
   -1
100
AcDbPolyline
 90
    2
 70
    0
 43
0
 10
-7.170190510510452
 20
266.424404084084
 10
13.17019051051045
 20
266.424404084084
  0
LWPOLYLINE
  5
112
100
AcDbEntity
  8
R2V
  6
ByLayer
 62
    0
370
   -1
100
AcDbPolyline
 90
    4
 70
    0
 43
0
 10
-7.170190510510452
 20
266.424404084084
 10
-27.51051051051047
 20
266.424404084084
 10
-27.51051051051047
 20
256.2542745945946
 10
-37.68070102102104
 20
246.0840840840842
  0
LWPOLYLINE
  5
113
100
AcDbEntity
  8
R2V
  6
ByLayer
 62
    0
370
   -1
100
AcDbPolyline
 90
    2
 70
    0
 43
0
 10
13.17019051051045
 20
266.424404084084
 10
206.403383063063
 20
266.424404084084
  0
LWPOLYLINE
  5
114
100
AcDbEntity
  8
R2V
  6
ByLayer
 62
    0
370
   -1
100
AcDbPolyline
 90
    4
 70
    0
 43
0
 10
206.403383063063
 20
266.424404084084
 10
216.5735735735736
 20
266.424404084084
 10
216.5735735735736
 20
256.2542745945946
 10
206.403383063063
 20
266.424404084084
  0
LWPOLYLINE
  5
115
100
AcDbEntity
  8
R2V
  6
ByLayer
 62
    0
370
   -1
100
AcDbPolyline
 90
    2
 70
    0
 43
0
 10
13.17019051051045
 20
286.7647851051051
 10
206.403383063063
 20
286.7647851051051
  0
LWPOLYLINE
  5
116
100
AcDbEntity
  8
R2V
  6
ByLayer
 62
    0
370
   -1
100
AcDbPolyline
 90
    2
 70
    0
 43
0
 10
43.68070102102104
 20
307.1051051051052
 10
43.68070102102104
 20
327.445425105105
  0
LWPOLYLINE
  5
117
100
AcDbEntity
  8
R2V
  6
ByLayer
 62
    0
370
   -1
100
AcDbPolyline
 90
    2
 70
    0
 43
0
 10
84.36134102102096
 20
307.1051051051052
 10
84.36134102102096
 20
327.445425105105
  0
LWPOLYLINE
  5
118
100
AcDbEntity
  8
R2V
  6
ByLayer
 62
    0
370
   -1
100
AcDbPolyline
 90
    2
 70
    0
 43
0
 10
135.2122325525526
 20
307.1051051051052
 10
135.2122325525526
 20
327.445425105105
  0
LWPOLYLINE
  5
119
100
AcDbEntity
  8
R2V
  6
ByLayer
 62
    0
370
   -1
100
AcDbPolyline
 90
    2
 70
    0
 43
0
 10
175.8928725525525
 20
307.1051051051052
 10
175.8928725525525
 20
327.445425105105
  0
ENDBLK
  5
64
330
62
100
AcDbEntity
  8
0
100
AcDbBlockEnd
  0
BLOCK
  5
66
330
65
100
AcDbEntity
  8
0
100
AcDbBlockBegin
  2
pc1k
 70
    0
 10
0
 20
0
  3
pc1k
  1

  0
LWPOLYLINE
  5
11A
100
AcDbEntity
  8
R2V
  6
ByLayer
 62
    0
370
   -1
100
AcDbPolyline
 90
    8
 70
    0
 43
0
 10
29.27429317672113
 20
50.38605312847449
 10
38.55999817672114
 20
78.24316812847428
 10
224.2742931767211
 20
87.52893812847424
 10
233.5599981767211
 20
217.5289381284742
 10
233.5599981767211
 20
393.9574631284743
 10
1.417113176721159
 20
393.9574631284743
 10
-17.15429682327886
 20
208.2431681284743
 10
-35.72570682327887
 20
189.6717581284743
  0
LWPOLYLINE
  5
11B
100
AcDbEntity
  8
R2V
  6
ByLayer
 62
    0
370
   -1
100
AcDbPolyline
 90
    6
 70
    0
 43
0
 10
29.27429317672113
 20
50.38605312847449
 10
224.2742931767211
 20
50.38605312847449
 10
224.2742931767211
 20
13.24316812847428
 10
10.70288317672112
 20
13.24316812847428
 10
10.70288317672112
 20
50.38605312847449
 10
29.27429317672113
 20
50.38605312847449
  0
LWPOLYLINE
  5
11C
100
AcDbEntity
  8
R2V
  6
ByLayer
 62
    0
370
   -1
100
AcDbPolyline
 90
    2
 70
    0
 43
0
 10
205.7028831767211
 20
50.38605312847449
 10
205.7028831767211
 20
78.24316812847428
  0
LWPOLYLINE
  5
11D
100
AcDbEntity
  8
R2V
  6
ByLayer
 62
    0
370
   -1
100
AcDbPolyline
 90
    5
 70
    0
 43
0
 10
29.27429317672113
 20
78.24316812847428
 10
10.70288317672112
 20
87.52893812847424
 10
10.70288317672112
 20
319.6717581284743
 10
47.84570317672114
 20
319.6717581284743
 10
47.84570317672114
 20
87.52893812847424
  0
LWPOLYLINE
  5
11E
100
AcDbEntity
  8
R2V
  6
ByLayer
 62
    0
370
   -1
100
AcDbPolyline
 90
    2
 70
    0
 43
0
 10
47.84570317672114
 20
87.52893812847424
 10
57.13140817672115
 20
78.24316812847428
  0
LWPOLYLINE
  5
11F
100
AcDbEntity
  8
R2V
  6
ByLayer
 62
    0
370
   -1
100
AcDbPolyline
 90
    4
 70
    0
 43
0
 10
177.8457031767211
 20
87.52893812847424
 10
168.5599981767211
 20
356.8146431284742
 10
66.41711317672116
 20
347.5289381284742
 10
47.84570317672114
 20
319.6717581284743
  0
LWPOLYLINE
  5
120
100
AcDbEntity
  8
R2V
  6
ByLayer
 62
    0
370
   -1
100
AcDbPolyline
 90
    2
 70
    0
 43
0
 10
177.8457031767211
 20
87.52893812847424
 10
187.1314081767212
 20
78.24316812847428
  0
LWPOLYLINE
  5
121
100
AcDbEntity
  8
R2V
  6
ByLayer
 62
    0
370
   -1
100
AcDbPolyline
 90
    2
 70
    0
 43
0
 10
1.417113176721159
 20
217.5289381284742
 10
10.70288317672112
 20
217.5289381284742
  0
LWPOLYLINE
  5
122
100
AcDbEntity
  8
R2V
  6
ByLayer
 62
    0
370
   -1
100
AcDbPolyline
 90
    2
 70
    0
 43
0
 10
233.5599981767211
 20
217.5289381284742
 10
242.8457031767211
 20
217.5289381284742
  0
LWPOLYLINE
  5
123
100
AcDbEntity
  8
R2V
  6
ByLayer
 62
    0
370
   -1
100
AcDbPolyline
 90
    7
 70
    0
 43
0
 10
233.5599981767211
 20
217.5289381284742
 10
224.2742931767211
 20
217.5289381284742
 10
224.2742931767211
 20
319.6717581284743
 10
214.9885881767211
 20
328.9574631284743
 10
196.4171131767212
 20
328.9574631284743
 10
187.1314081767212
 20
319.6717581284743
 10
177.8457031767211
 20
319.6717581284743
  0
LWPOLYLINE
  5
124
100
AcDbEntity
  8
R2V
  6
ByLayer
 62
    0
370
   -1
100
AcDbPolyline
 90
    2
 70
    0
 43
0
 10
47.84570317672114
 20
319.6717581284743
 10
38.55999817672114
 20
319.6717581284743
  0
LWPOLYLINE
  5
125
100
AcDbEntity
  8
R2V
  6
ByLayer
 62
    0
370
   -1
100
AcDbPolyline
 90
    2
 70
    0
 43
0
 10
66.41711317672116
 20
328.9574631284743
 10
168.5599981767211
 20
328.9574631284743
  0
ENDBLK
  5
67
330
65
100
AcDbEntity
  8
0
100
AcDbBlockEnd
  0
BLOCK
  5
69
330
68
100
AcDbEntity
  8
0
100
AcDbBlockBegin
  2
pc500
 70
    0
 10
0
 20
0
  3
pc500
  1

  0
LWPOLYLINE
  5
126
100
AcDbEntity
  8
R2V
  6
ByLayer
 62
    0
370
   -1
100
AcDbPolyline
 90
    8
 70
    0
 43
0
 10
31.52111496871339
 20
43.7348171685444
 10
31.52111496871339
 20
71.59199716854437
 10
180.0925899687131
 20
80.87770216854437
 10
189.3782949687134
 20
173.7348171685444
 10
189.3782949687134
 20
331.5919971685444
 10
3.663999968713142
 20
331.5919971685444
 10
-14.90741003128687
 20
164.4491121685444
 10
-33.47888503128661
 20
145.8777021685446
  0
LWPOLYLINE
  5
127
100
AcDbEntity
  8
R2V
  6
ByLayer
 62
    0
370
   -1
100
AcDbPolyline
 90
    6
 70
    0
 43
0
 10
31.52111496871339
 20
43.7348171685444
 10
180.0925899687131
 20
43.7348171685444
 10
180.0925899687131
 20
15.87770216854437
 10
12.94970496871338
 20
15.87770216854437
 10
12.94970496871338
 20
43.7348171685444
 10
31.52111496871339
 20
43.7348171685444
  0
LWPOLYLINE
  5
128
100
AcDbEntity
  8
R2V
  6
ByLayer
 62
    0
370
   -1
100
AcDbPolyline
 90
    2
 70
    0
 43
0
 10
161.5211149687134
 20
43.7348171685444
 10
161.5211149687134
 20
71.59199716854437
  0
LWPOLYLINE
  5
129
100
AcDbEntity
  8
R2V
  6
ByLayer
 62
    0
370
   -1
100
AcDbPolyline
 90
    5
 70
    0
 43
0
 10
31.52111496871339
 20
71.59199716854437
 10
12.94970496871338
 20
80.87770216854437
 10
12.94970496871338
 20
257.3062921685446
 10
50.09258996871313
 20
257.3062921685446
 10
50.09258996871313
 20
71.59199716854437
  0
LWPOLYLINE
  5
12A
100
AcDbEntity
  8
R2V
  6
ByLayer
 62
    0
370
   -1
100
AcDbPolyline
 90
    7
 70
    0
 43
0
 10
142.9497049687134
 20
71.59199716854437
 10
142.9497049687134
 20
257.3062921685446
 10
152.2354099687132
 20
266.5919971685444
 10
170.8068199687132
 20
266.5919971685444
 10
180.0925899687131
 20
257.3062921685446
 10
180.0925899687131
 20
173.7348171685444
 10
189.3782949687134
 20
173.7348171685444
  0
LWPOLYLINE
  5
12B
100
AcDbEntity
  8
R2V
  6
ByLayer
 62
    0
370
   -1
100
AcDbPolyline
 90
    2
 70
    0
 43
0
 10
3.663999968713142
 20
173.7348171685444
 10
12.94970496871338
 20
173.7348171685444
  0
LWPOLYLINE
  5
12C
100
AcDbEntity
  8
R2V
  6
ByLayer
 62
    0
370
   -1
100
AcDbPolyline
 90
    2
 70
    0
 43
0
 10
189.3782949687134
 20
173.7348171685444
 10
198.6639999687131
 20
173.7348171685444
  0
LWPOLYLINE
  5
12D
100
AcDbEntity
  8
R2V
  6
ByLayer
 62
    0
370
   -1
100
AcDbPolyline
 90
    2
 70
    0
 43
0
 10
50.09258996871313
 20
257.3062921685446
 10
40.80681996871317
 20
257.3062921685446
  0
LWPOLYLINE
  5
12E
100
AcDbEntity
  8
R2V
  6
ByLayer
 62
    0
370
   -1
100
AcDbPolyline
 90
    5
 70
    0
 43
0
 10
50.09258996871313
 20
257.3062921685446
 10
59.37829496871336
 20
266.5919971685444
 10
133.6639999687131
 20
266.5919971685444
 10
133.6639999687131
 20
257.3062921685446
 10
142.9497049687134
 20
257.3062921685446
  0
LWPOLYLINE
  5
12F
100
AcDbEntity
  8
R2V
  6
ByLayer
 62
    0
370
   -1
100
AcDbPolyline
 90
    5
 70
    0
 43
0
 10
68.66399996871314
 20
266.5919971685444
 10
68.66399996871314
 20
285.1634071685444
 10
77.94970496871338
 20
294.4491121685444
 10
152.2354099687132
 20
294.4491121685444
 10
152.2354099687132
 20
266.5919971685444
  0
ENDBLK
  5
6A
330
68
100
AcDbEntity
  8
0
100
AcDbBlockEnd
  0
BLOCK
  5
6C
330
6B
100
AcDbEntity
  8
0
100
AcDbBlockBegin
  2
stroboscope
 70
    0
 10
0
 20
0
  3
stroboscope
  1

  0
LWPOLYLINE
  5
130
100
AcDbEntity
  8
R2V
  6
ByLayer
 62
    0
370
   -1
100
AcDbPolyline
 90
    8
 70
    0
 43
0
 10
-5.817391409510037
 20
125.7144590468513
 10
22.03978859049039
 20
125.7144590468513
 10
31.32549359049017
 20
218.5716390468513
 10
384.18260859049
 20
218.5716390468513
 10
393.4683135904902
 20
107.1430490468512
 10
384.18260859049
 20
14.28586904685119
 10
22.03978859049039
 20
23.57163904685126
 10
12.75401859048998
 20
107.1430490468512
  0
LWPOLYLINE
  5
131
100
AcDbEntity
  8
R2V
  6
ByLayer
 62
    0
370
   -1
100
AcDbPolyline
 90
    4
 70
    0
 43
0
 10
-5.817391409510037
 20
125.7144590468513
 10
-5.817391409510037
 20
116.4287540468512
 10
-15.10309640950982
 20
107.1430490468512
 10
-15.10309640950982
 20
88.57163904685126
  0
LWPOLYLINE
  5
132
100
AcDbEntity
  8
R2V
  6
ByLayer
 62
    0
370
   -1
100
AcDbPolyline
 90
    3
 70
    0
 43
0
 10
-5.817391409510037
 20
125.7144590468513
 10
-15.10309640950982
 20
125.7144590468513
 10
-15.10309640950982
 20
144.2858690468512
  0
LWPOLYLINE
  5
133
100
AcDbEntity
  8
R2V
  6
ByLayer
 62
    0
370
   -1
100
AcDbPolyline
 90
    5
 70
    0
 43
0
 10
-5.817391409510037
 20
125.7144590468513
 10
12.75401859048998
 20
265.0001640468512
 10
402.75401859049
 20
265.0001640468512
 10
421.3254935904902
 20
107.1430490468512
 10
430.6111985904899
 20
88.57163904685126
  0
LWPOLYLINE
  5
134
100
AcDbEntity
  8
R2V
  6
ByLayer
 62
    0
370
   -1
100
AcDbPolyline
 90
    2
 70
    0
 43
0
 10
3.468313590490197
 20
125.7144590468513
 10
-5.817391409510037
 20
125.7144590468513
  0
LWPOLYLINE
  5
135
100
AcDbEntity
  8
R2V
  6
ByLayer
 62
    0
370
   -1
100
AcDbPolyline
 90
    3
 70
    0
 43
0
 10
412.0397885904904
 20
125.7144590468513
 10
430.6111985904899
 20
125.7144590468513
 10
430.6111985904899
 20
144.2858690468512
  0
LWPOLYLINE
  5
136
100
AcDbEntity
  8
R2V
  6
ByLayer
 62
    0
370
   -1
100
AcDbPolyline
 90
    2
 70
    0
 43
0
 10
412.0397885904904
 20
125.7144590468513
 10
402.75401859049
 20
125.7144590468513
  0
LWPOLYLINE
  5
137
100
AcDbEntity
  8
R2V
  6
ByLayer
 62
    0
370
   -1
100
AcDbPolyline
 90
    5
 70
    0
 43
0
 10
87.03978859049039
 20
42.14304904685127
 10
337.75401859049
 20
51.42875404685128
 10
328.4683135904902
 20
190.7144590468513
 10
77.75401859048998
 20
181.4287540468513
 10
87.03978859049039
 20
42.14304904685127
  0
LWPOLYLINE
  5
138
100
AcDbEntity
  8
R2V
  6
ByLayer
 62
    0
370
   -1
100
AcDbPolyline
 90
    4
 70
    0
 43
0
 10
114.8969035904902
 20
70.00016404685118
 10
152.0397885904904
 20
116.4287540468512
 10
114.8969035904902
 20
125.7144590468513
 10
152.0397885904904
 20
162.8573440468513
  0
LWPOLYLINE
  5
139
100
AcDbEntity
  8
R2V
  6
ByLayer
 62
    0
370
   -1
100
AcDbPolyline
 90
    4
 70
    0
 43
0
 10
189.1826085904904
 20
70.00016404685118
 10
226.3254935904902
 20
116.4287540468512
 10
189.1826085904904
 20
125.7144590468513
 10
226.3254935904902
 20
162.8573440468513
  0
LWPOLYLINE
  5
13A
100
AcDbEntity
  8
R2V
  6
ByLayer
 62
    0
370
   -1
100
AcDbPolyline
 90
    4
 70
    0
 43
0
 10
263.4683135904902
 20
70.00016404685118
 10
300.6111985904899
 20
116.4287540468512
 10
263.4683135904902
 20
125.7144590468513
 10
300.6111985904899
 20
162.8573440468513
  0
ENDBLK
  5
6D
330
6B
100
AcDbEntity
  8
0
100
AcDbBlockEnd
  0
BLOCK
  5
6F
330
6E
100
AcDbEntity
  8
0
100
AcDbBlockBegin
  2
sunstrip
 70
    0
 10
0
 20
0
  3
sunstrip
  1

  0
LWPOLYLINE
  5
13B
100
AcDbEntity
  8
R2V
  6
ByLayer
 62
    0
370
   -1
100
AcDbPolyline
 90
   11
 70
    0
 43
0
 10
10.46292342327388
 20
69.52458719346015
 10
20.07829842327374
 20
117.6014621934601
 10
991.2321734232737
 20
117.6014621934601
 10
1000.847548423274
 20
11.83221219346015
 10
10.46292342327388
 20
11.83221219346015
 10
10.46292342327388
 20
69.52458719346015
 10
-8.767826576726293
 20
69.52458719346015
 10
0.8475484232735653
 20
136.8322121934602
 10
1010.462923423274
 20
136.8322121934602
 10
1020.078298423274
 20
69.52458719346015
 10
1000.847548423274
 20
69.52458719346015
  0
LWPOLYLINE
  5
13C
100
AcDbEntity
  8
R2V
  6
ByLayer
 62
    0
370
   -1
100
AcDbPolyline
 90
    5
 70
    0
 43
0
 10
68.15529842327351
 20
31.06296219346015
 10
106.6167984232738
 20
59.90921219346015
 10
77.77067342327382
 20
98.37071219346014
 10
39.30904842327345
 20
69.52458719346015
 10
68.15529842327351
 20
31.06296219346015
  0
LWPOLYLINE
  5
13D
100
AcDbEntity
  8
R2V
  6
ByLayer
 62
    0
370
   -1
100
AcDbPolyline
 90
    5
 70
    0
 43
0
 10
164.3090484232739
 20
31.06296219346015
 10
202.7706734232738
 20
59.90921219346015
 10
173.9245484232738
 20
98.37071219346014
 10
135.4629234232739
 20
69.52458719346015
 10
164.3090484232739
 20
31.06296219346015
  0
LWPOLYLINE
  5
13E
100
AcDbEntity
  8
R2V
  6
ByLayer
 62
    0
370
   -1
100
AcDbPolyline
 90
    5
 70
    0
 43
0
 10
260.4629234232739
 20
31.06296219346015
 10
298.9245484232738
 20
59.90921219346015
 10
270.0782984232737
 20
98.37071219346014
 10
231.6167984232738
 20
69.52458719346015
 10
260.4629234232739
 20
31.06296219346015
  0
LWPOLYLINE
  5
13F
100
AcDbEntity
  8
R2V
  6
ByLayer
 62
    0
370
   -1
100
AcDbPolyline
 90
    5
 70
    0
 43
0
 10
356.6167984232738
 20
31.06296219346015
 10
395.0782984232737
 20
59.90921219346015
 10
366.2321734232737
 20
98.37071219346014
 10
327.7706734232738
 20
69.52458719346015
 10
356.6167984232738
 20
31.06296219346015
  0
LWPOLYLINE
  5
140
100
AcDbEntity
  8
R2V
  6
ByLayer
 62
    0
370
   -1
100
AcDbPolyline
 90
    5
 70
    0
 43
0
 10
452.7706734232738
 20
31.06296219346015
 10
491.2321734232737
 20
59.90921219346015
 10
462.3860484232737
 20
98.37071219346014
 10
423.9245484232738
 20
69.52458719346015
 10
452.7706734232738
 20
31.06296219346015
  0
LWPOLYLINE
  5
141
100
AcDbEntity
  8
R2V
  6
ByLayer
 62
    0
370
   -1
100
AcDbPolyline
 90
    5
 70
    0
 43
0
 10
548.9245484232738
 20
31.06296219346015
 10
587.3860484232737
 20
59.90921219346015
 10
558.5399234232736
 20
98.37071219346014
 10
520.0782984232737
 20
69.52458719346015
 10
548.9245484232738
 20
31.06296219346015
  0
LWPOLYLINE
  5
142
100
AcDbEntity
  8
R2V
  6
ByLayer
 62
    0
370
   -1
100
AcDbPolyline
 90
    5
 70
    0
 43
0
 10
645.0782984232737
 20
31.06296219346015
 10
683.5399234232736
 20
59.90921219346015
 10
654.6936734232736
 20
98.37071219346014
 10
616.2321734232737
 20
69.52458719346015
 10
645.0782984232737
 20
31.06296219346015
  0
LWPOLYLINE
  5
143
100
AcDbEntity
  8
R2V
  6
ByLayer
 62
    0
370
   -1
100
AcDbPolyline
 90
    5
 70
    0
 43
0
 10
741.2321734232737
 20
31.06296219346015
 10
779.6936734232736
 20
59.90921219346015
 10
750.8475484232736
 20
98.37071219346014
 10
712.3860484232737
 20
69.52458719346015
 10
741.2321734232737
 20
31.06296219346015
  0
LWPOLYLINE
  5
144
100
AcDbEntity
  8
R2V
  6
ByLayer
 62
    0
370
   -1
100
AcDbPolyline
 90
    5
 70
    0
 43
0
 10
837.3860484232737
 20
31.06296219346015
 10
875.8475484232736
 20
59.90921219346015
 10
847.0014234232735
 20
98.37071219346014
 10
808.5399234232736
 20
69.52458719346015
 10
837.3860484232737
 20
31.06296219346015
  0
LWPOLYLINE
  5
145
100
AcDbEntity
  8
R2V
  6
ByLayer
 62
    0
370
   -1
100
AcDbPolyline
 90
    5
 70
    0
 43
0
 10
933.5399234232736
 20
31.06296219346015
 10
972.0014234232735
 20
59.90921219346015
 10
943.155298423274
 20
98.37071219346014
 10
904.6936734232736
 20
69.52458719346015
 10
933.5399234232736
 20
31.06296219346015
  0
ENDBLK
  5
70
330
6E
100
AcDbEntity
  8
0
100
AcDbBlockEnd
  0
BLOCK
  5
72
330
71
100
AcDbEntity
  8
0
100
AcDbBlockBegin
  2
T20
 70
    0
 10
0
 20
0
  3
T20
  1

  0
LWPOLYLINE
  5
146
100
AcDbEntity
  8
0
  6
ByLayer
 62
  256
370
   -1
100
AcDbPolyline
 90
    4
 70
    1
 43
0
 10
9.945479235608673
 20
64.64561503145649
 10
1010.415288900886
 20
64.64561503145649
 10
1010.415288900886
 20
9.90752266644779
 10
9.945479235608673
 20
9.90752266644779
  0
LINE
  5
147
100
AcDbEntity
  8
0
  6
ByLayer
 62
  256
370
   -1
100
AcDbLine
 10
9.945479235608673
 20
29.4568413682365
 11
1010.415288900886
 21
29.4568413682365
  0
ELLIPSE
  5
148
100
AcDbEntity
  8
0
  6
ByLayer
 62
  256
370
   -1
100
AcDbEllipse
 10
37.83005073133336
 20
19.72187488216707
 30
0
 11
27.63462730008149
 21
0.4318454052115789
 31
0
 40
0.3382783195206969
 41
6.283185307179583
 42
12.56637061435917
  0
ELLIPSE
  5
149
100
AcDbEntity
  8
0
  6
ByLayer
 62
  256
370
   -1
100
AcDbEllipse
 10
93.16573908354258
 20
19.66636338361639
 30
0
 11
27.63462730008149
 21
0.4318454052115789
 31
0
 40
0.3382783195206969
 41
9.325873406851315e-15
 42
0
  0
ELLIPSE
  5
14A
100
AcDbEntity
  8
0
  6
ByLayer
 62
  256
370
   -1
100
AcDbEllipse
 10
148.9272518185162
 20
19.78929220631881
 30
0
 11
27.63462730008149
 21
0.4318454052115789
 31
0
 40
0.3382783195206969
 41
6.283185307179584
 42
12.56637061435917
  0
ELLIPSE
  5
14B
100
AcDbEntity
  8
0
  6
ByLayer
 62
  256
370
   -1
100
AcDbEllipse
 10
204.2629401707254
 20
19.73378070776812
 30
0
 11
27.63462730008149
 21
0.4318454052115789
 31
0
 40
0.3382783195206969
 41
6.283185307179584
 42
12.56637061435917
  0
ELLIPSE
  5
14C
100
AcDbEntity
  8
0
  6
ByLayer
 62
  256
370
   -1
100
AcDbEllipse
 10
260.2245671793185
 20
19.83458127852623
 30
0
 11
27.63462730008149
 21
0.4318454052115789
 31
0
 40
0.3382783195206969
 41
6.283185307179584
 42
12.56637061435917
  0
ELLIPSE
  5
14D
100
AcDbEntity
  8
0
  6
ByLayer
 62
  256
370
   -1
100
AcDbEllipse
 10
315.5602555315281
 20
19.7790697799752
 30
0
 11
27.63462730008149
 21
0.4318454052115789
 31
0
 40
0.3382783195206969
 41
6.283185307179584
 42
12.56637061435917
  0
ELLIPSE
  5
14E
100
AcDbEntity
  8
0
  6
ByLayer
 62
  256
370
   -1
100
AcDbEllipse
 10
371.3217682665013
 20
19.90199860267751
 30
0
 11
27.63462730008149
 21
0.4318454052115789
 31
0
 40
0.3382783195206969
 41
6.283185307179584
 42
12.56637061435917
  0
ELLIPSE
  5
14F
100
AcDbEntity
  8
0
  6
ByLayer
 62
  256
370
   -1
100
AcDbEllipse
 10
426.6574566187105
 20
19.84648710412682
 30
0
 11
27.63462730008149
 21
0.4318454052115789
 31
0
 40
0.3382783195206969
 41
6.283185307179583
 42
12.56637061435917
  0
ELLIPSE
  5
150
100
AcDbEntity
  8
0
  6
ByLayer
 62
  256
370
   -1
100
AcDbEllipse
 10
482.0412966882755
 20
20.05063356681137
 30
0
 11
27.63462730008149
 21
0.4318454052115789
 31
0
 40
0.3382783195206969
 41
6.283185307179584
 42
12.56637061435917
  0
ELLIPSE
  5
151
100
AcDbEntity
  8
0
  6
ByLayer
 62
  256
370
   -1
100
AcDbEllipse
 10
537.3769850404847
 20
19.99512206826012
 30
0
 11
27.63462730008149
 21
0.4318454052115789
 31
0
 40
0.3382783195206969
 41
6.283185307179584
 42
12.56637061435917
  0
ELLIPSE
  5
152
100
AcDbEntity
  8
0
  6
ByLayer
 62
  256
370
   -1
100
AcDbEllipse
 10
593.1384977754587
 20
20.11805089096242
 30
0
 11
27.63462730008149
 21
0.4318454052115789
 31
0
 40
0.3382783195206969
 41
9.769962616701378e-15
 42
0
  0
ELLIPSE
  5
153
100
AcDbEntity
  8
0
  6
ByLayer
 62
  256
370
   -1
100
AcDbEllipse
 10
648.474186127668
 20
20.06253939241196
 30
0
 11
27.63462730008149
 21
0.4318454052115789
 31
0
 40
0.3382783195206969
 41
6.283185307179584
 42
12.56637061435917
  0
ELLIPSE
  5
154
100
AcDbEntity
  8
0
  6
ByLayer
 62
  256
370
   -1
100
AcDbEllipse
 10
704.4358131362596
 20
20.16333996317007
 30
0
 11
27.63462730008149
 21
0.4318454052115789
 31
0
 40
0.3382783195206969
 41
6.283185307179583
 42
12.56637061435917
  0
ELLIPSE
  5
155
100
AcDbEntity
  8
0
  6
ByLayer
 62
  256
370
   -1
100
AcDbEllipse
 10
759.7715014884693
 20
20.10782846461939
 30
0
 11
27.63462730008149
 21
0.4318454052115789
 31
0
 40
0.3382783195206969
 41
6.283185307179584
 42
12.56637061435917
  0
ELLIPSE
  5
156
100
AcDbEntity
  8
0
  6
ByLayer
 62
  256
370
   -1
100
AcDbEllipse
 10
815.5330142234434
 20
20.23075728732169
 30
0
 11
27.63462730008149
 21
0.4318454052115789
 31
0
 40
0.3382783195206969
 41
9.325873406851315e-15
 42
0
  0
ELLIPSE
  5
157
100
AcDbEntity
  8
0
  6
ByLayer
 62
  256
370
   -1
100
AcDbEllipse
 10
870.8687025756526
 20
20.17524578877112
 30
0
 11
27.63462730008149
 21
0.4318454052115789
 31
0
 40
0.3382783195206969
 41
6.283185307179583
 42
12.56637061435917
  0
ELLIPSE
  5
158
100
AcDbEntity
  8
0
  6
ByLayer
 62
  256
370
   -1
100
AcDbEllipse
 10
926.6481988660785
 20
19.83922304189559
 30
0
 11
27.63462730008149
 21
0.4318454052115789
 31
0
 40
0.3382783195206969
 41
6.283185307179583
 42
12.56637061435917
  0
ELLIPSE
  5
159
100
AcDbEntity
  8
0
  6
ByLayer
 62
  256
370
   -1
100
AcDbEllipse
 10
982.2106620245431
 20
20.22340013537894
 30
0
 11
27.63462730008149
 21
0.4318454052115789
 31
0
 40
0.3382783195206969
 41
6.283185307179583
 42
12.56637061435917
  0
ENDBLK
  5
73
330
71
100
AcDbEntity
  8
0
100
AcDbBlockEnd
  0
BLOCK
  5
75
330
74
100
AcDbEntity
  8
0
100
AcDbBlockBegin
  2
horiziode500
 70
    0
 10
0
 20
0
  3
horiziode500
  1

  0
LWPOLYLINE
  5
15A
100
AcDbEntity
  8
R2V
  6
ByLayer
 62
    0
370
   -1
100
AcDbPolyline
 90
   11
 70
    0
 43
0
 10
21.2795074703572
 20
86.35611234189787
 10
30.56521247035698
 20
142.0704073418979
 10
216.2795074703572
 20
142.0704073418979
 10
216.2795074703572
 20
12.07040734189786
 10
21.2795074703572
 20
21.35611234189787
 10
21.2795074703572
 20
86.35611234189787
 10
2.708032470357011
 20
86.35611234189787
 10
11.99380247035697
 20
169.9275873418978
 10
234.8509174703572
 20
169.9275873418978
 10
244.136622470357
 20
86.35611234189787
 10
225.565212470357
 20
86.35611234189787
  0
LWPOLYLINE
  5
15B
100
AcDbEntity
  8
R2V
  6
ByLayer
 62
    0
370
   -1
100
AcDbPolyline
 90
    5
 70
    0
 43
0
 10
49.136622470357
 20
30.64188234189783
 10
206.993802470357
 20
39.92758734189783
 10
197.708032470357
 20
123.4989973418978
 10
39.85091747035722
 20
114.2132923418978
 10
49.136622470357
 20
30.64188234189783
  0
LWPOLYLINE
  5
15C
100
AcDbEntity
  8
R2V
  6
ByLayer
 62
    0
370
   -1
100
AcDbPolyline
 90
    2
 70
    0
 43
0
 10
67.70803247035701
 20
77.07040734189786
 10
179.136622470357
 20
77.07040734189786
  0
ENDBLK
  5
76
330
74
100
AcDbEntity
  8
0
100
AcDbBlockEnd
  0
ENDSEC
  0
SECTION
  2
ENTITIES
  0
INSERT
  5
15D
100
AcDbEntity
  8
0
  6
ByLayer
 62
  256
370
   -1
100
AcDbBlockReference
  2
ACL_4
 10
500
 20
100
 30
0
 41
1
 42
1
 43
0
 50
90
 70
    1
 71
    1
 44
0
 45
0
  0
INSERT
  5
15E
100
AcDbEntity
  8
0
  6
ByLayer
 62
  256
370
   -1
100
AcDbBlockReference
  2
sunstrip
 10
400
 20
1400
 30
0
 41
1
 42
1
 43
0
 50
90
 70
    1
 71
    1
 44
0
 45
0
  0
INSERT
  5
15F
100
AcDbEntity
  8
0
  6
ByLayer
 62
  256
370
   -1
100
AcDbBlockReference
  2
T20
 10
360.31726225794
 20
2586.277237984769
 30
0
 41
1
 42
1
 43
0
 50
90
 70
    1
 71
    1
 44
0
 45
0
  0
LINE
  5
160
100
AcDbEntity
  8
guide_text
  6
ByLayer
 62
  256
370
   -1
100
AcDbLine
 10
600
 20
0
 11
600.0000000000005
 21
8000
  0
INSERT
  5
161
100
AcDbEntity
  8
0
  6
ByLayer
 62
  256
370
   -1
100
AcDbBlockReference
  2
pc1k
 10
1381.865419272805
 20
1702.14089728034
 30
0
 41
1
 42
1
 43
0
 50
0
 70
    1
 71
    1
 44
0
 45
0
  0
INSERT
  5
162
100
AcDbEntity
  8
0
  6
ByLayer
 62
  256
370
   -1
100
AcDbBlockReference
  2
decoupe500
 10
1433.261998759364
 20
2225.959975726833
 30
0
 41
1
 42
1
 43
0
 50
0
 70
    1
 71
    1
 44
0
 45
0
  0
INSERT
  5
163
100
AcDbEntity
  8
0
  6
ByLayer
 62
  256
370
   -1
100
AcDbBlockReference
  2
pc500
 10
1418.437850205043
 20
1266.096356834536
 30
0
 41
1
 42
1
 43
0
 50
0
 70
    1
 71
    1
 44
0
 45
0
  0
INSERT
  5
164
100
AcDbEntity
  8
0
  6
ByLayer
 62
  256
370
   -1
100
AcDbBlockReference
  2
par64
 10
1414.731813066463
 20
736.1330460175523
 30
0
 41
1
 42
1
 43
0
 50
0
 70
    1
 71
    1
 44
0
 45
0
  0
INSERT
  5
165
100
AcDbEntity
  8
0
  6
ByLayer
 62
  256
370
   -1
100
AcDbBlockReference
  2
F1
 10
1434.109254714047
 20
366.8678403365168
 30
0
 41
1
 42
1
 43
0
 50
0
 70
    1
 71
    1
 44
0
 45
0
  0
INSERT
  5
166
100
AcDbEntity
  8
0
  6
ByLayer
 62
  256
370
   -1
100
AcDbBlockReference
  2
minibeam
 10
1450.451526010287
 20
50.91726194254863
 30
0
 41
1
 42
1
 43
0
 50
0
 70
    1
 71
    1
 44
0
 45
0
  0
LINE
  5
167
100
AcDbEntity
  8
guide_text
  6
ByLayer
 62
  256
370
   -1
100
AcDbLine
 10
1700
 20
0
 11
1700
 21
8000
  0
INSERT
  5
168
100
AcDbEntity
  8
0
  6
ByLayer
 62
  256
370
   -1
100
AcDbBlockReference
  2
horiziode1000
 10
2746.481623777913
 20
1359.156290741377
 30
0
 41
1
 42
1
 43
0
 50
0
 70
    1
 71
    1
 44
0
 45
0
  0
INSERT
  5
169
100
AcDbEntity
  8
0
  6
ByLayer
 62
  256
370
   -1
100
AcDbBlockReference
  2
blinder
 10
2751.929047543326
 20
874.3355756195986
 30
0
 41
1
 42
1
 43
0
 50
0
 70
    1
 71
    1
 44
0
 45
0
  0
INSERT
  5
16A
100
AcDbEntity
  8
0
  6
ByLayer
 62
  256
370
   -1
100
AcDbBlockReference
  2
stroboscope
 10
2697.185799761386
 20
401.4088527060026
 30
0
 41
1
 42
1
 43
0
 50
0
 70
    1
 71
    1
 44
0
 45
0
  0
LINE
  5
16B
100
AcDbEntity
  8
guide_text
  6
ByLayer
 62
  256
370
   -1
100
AcDbLine
 10
3200
 20
0
 11
3200
 21
8000
  0
MTEXT
  5
16C
100
AcDbEntity
  8
0
  6
ByLayer
 62
  256
370
   -1
100
AcDbMText
 10
2050
 20
3968.298795833898
 30
0
 40
150
 41
766.6666666666807
 71
    5
 72
    1
  1
Lgende
  7
standard
210
0
220
0
230
1
 50
0
 73
    2
 44
1
  0
MTEXT
  5
16D
100
AcDbEntity
  8
texte
  6
ByLayer
 62
  256
370
   -1
100
AcDbMText
 10
600
 20
642.7960043187629
 30
0
 40
100
 41
222.2222222222222
 71
    4
 72
    1
  1
ACL
  7
standard
210
0
220
0
230
1
 50
0
 73
    2
 44
1
  0
MTEXT
  5
16E
100
AcDbEntity
  8
texte
  6
ByLayer
 62
  256
370
   -1
100
AcDbMText
 10
600.0000000000001
 20
1906.598317894636
 30
0
 40
100
 41
533.3333635618428
 71
    4
 72
    1
  1
Sunstrip
  7
standard
210
0
220
0
230
1
 50
0
 73
    2
 44
1
  0
MTEXT
  5
16F
100
AcDbEntity
  8
texte
  6
ByLayer
 62
  256
370
   -1
100
AcDbMText
 10
600.0000000000002
 20
3105.03154628555
 30
0
 40
100
 41
211.1111111111111
 71
    4
 72
    1
  1
T20
  7
standard
210
0
220
0
230
1
 50
0
 73
    2
 44
1
  0
MTEXT
  5
170
100
AcDbEntity
  8
texte
  6
ByLayer
 62
  256
370
   -1
100
AcDbMText
 10
1700
 20
2457.808611835529
 30
0
 40
100
 41
819.4444444444629
 71
    4
 72
    1
  1
Dcoupe 650
  7
standard
210
0
220
0
230
1
 50
0
 73
    2
 44
1
  0
MTEXT
  5
171
100
AcDbEntity
  8
texte
  6
ByLayer
 62
  256
370
   -1
100
AcDbMText
 10
1700
 20
1902.046820465312
 30
0
 40
100
 41
341.6666666666667
 71
    4
 72
    1
  1
PC 1k
  7
standard
210
0
220
0
230
1
 50
0
 73
    2
 44
1
  0
MTEXT
  5
172
100
AcDbEntity
  8
texte
  6
ByLayer
 62
  256
370
   -1
100
AcDbMText
 10
1700
 20
1432.52392775599
 30
0
 40
100
 41
441.6666666666791
 71
    4
 72
    1
  1
PC 650
  7
standard
210
0
220
0
230
1
 50
0
 73
    2
 44
1
  0
MTEXT
  5
173
100
AcDbEntity
  8
texte
  6
ByLayer
 62
  256
370
   -1
100
AcDbMText
 10
1700
 20
919.8815857162213
 30
0
 40
100
 41
486.1111111111173
 71
    4
 72
    1
  1
PAR 64
  7
standard
210
0
220
0
230
1
 50
0
 73
    2
 44
1
  0
MTEXT
  5
174
100
AcDbEntity
  8
texte
  6
ByLayer
 62
  256
370
   -1
100
AcDbMText
 10
1700
 20
455.1497429325053
 30
0
 40
100
 41
100
 71
    4
 72
    1
  1
F1
  7
standard
210
0
220
0
230
1
 50
0
 73
    2
 44
1
  0
MTEXT
  5
175
100
AcDbEntity
  8
texte
  6
ByLayer
 62
  256
370
   -1
100
AcDbMText
 10
1700
 20
138.9404478425542
 30
0
 40
100
 41
555.5555555555692
 71
    4
 72
    1
  1
MiniBeam
  7
standard
210
0
220
0
230
1
 50
0
 73
    2
 44
1
  0
MTEXT
  5
176
100
AcDbEntity
  8
texte
  6
ByLayer
 62
  256
370
   -1
100
AcDbMText
 10
3200
 20
1471.29674401638
 30
0
 40
100
 41
786.1111111111111
 71
    4
 72
    1
  1
Horiziode 1k\P(services)
  7
standard
210
0
220
0
230
1
 50
0
 73
    2
 44
1
  0
MTEXT
  5
177
100
AcDbEntity
  8
texte
  6
ByLayer
 62
  256
370
   -1
100
AcDbMText
 10
3200
 20
1015.770214689078
 30
0
 40
100
 41
511.1111625398352
 71
    4
 72
    1
  1
Blinders
  7
standard
210
0
220
0
230
1
 50
0
 73
    2
 44
1
  0
MTEXT
  5
178
100
AcDbEntity
  8
texte
  6
ByLayer
 62
  256
370
   -1
100
AcDbMText
 10
3200
 20
532.6599906296384
 30
0
 40
100
 41
800.0000302285096
 71
    4
 72
    1
  1
Stroboscope
  7
standard
210
0
220
0
230
1
 50
0
 73
    2
 44
1
  0
LWPOLYLINE
  5
179
100
AcDbEntity
  8
texte
  6
ByLayer
 62
  256
370
   -1
100
AcDbPolyline
 90
    4
 70
    1
 43
0
 10
0
 20
0
 10
4100
 20
0
 10
4100
 20
3700
 10
0
 20
3700
  0
MTEXT
  5
17A
100
AcDbEntity
  8
texte
  6
ByLayer
 62
  256
370
   -1
100
AcDbMText
 10
3200
 20
1919.838060355147
 30
0
 40
100
 41
741.6666454664655
 71
    4
 72
    1
  1
Services\PBack Stage
  7
standard
210
0
220
0
230
1
 50
0
 73
    2
 44
1
  0
INSERT
  5
17B
100
AcDbEntity
  8
R2V
  6
ByLayer
 62
  256
370
   -1
100
AcDbBlockReference
  2
horiziode500
 10
2777.083238408464
 20
1838.350876129547
 30
0
 41
1
 42
1
 43
0
 50
0
 70
    1
 71
    1
 44
0
 45
0
  0
ENDSEC
  0
SECTION
  2
OBJECTS
  0
DICTIONARY
  5
C
330
0
100
AcDbDictionary
281
    1
  3
ACAD_GROUP
350
D
  0
DICTIONARY
  5
D
330
C
100
AcDbDictionary
281
    1
  0
ENDSEC
  0
EOF
