999
dxfrw 0.6.3
  0
SECTION
  2
HEADER
  9
$ACADVER
  1
AC1021
  9
$DWGCODEPAGE
  3
ANSI_1252
  9
$INSBASE
 10
0
 20
0
 30
0
  9
$EXTMIN
 10
-1.966111362960987e-05
 20
0
 30
0
  9
$EXTMAX
 10
9210.00007926575
 20
4655.825108428471
 30
0
  9
$LIMMIN
 10
0
 20
0
  9
$LIMMAX
 10
420
 20
297
  9
$ORTHOMODE
 70
    0
  9
$REGENMODE
 70
    1
  9
$FILLMODE
 70
    1
  9
$QTEXTMODE
 70
    0
  9
$MIRRTEXT
 70
    0
  9
$LTSCALE
 40
1
  9
$ATTMODE
 70
    0
  9
$TEXTSIZE
 40
2.5
  9
$TRACEWID
 40
15.68
  9
$TEXTSTYLE
  7
STANDARD
  9
$CLAYER
  8
Scene
  9
$CELTYPE
  6
BYLAYER
  9
$CECOLOR
 62
  256
  9
$CELTSCALE
 40
1
  9
$DISPSILH
 70
    0
  9
$DIMSCALE
 40
5
  9
$DIMASZ
 40
50
  9
$DIMEXO
 40
10
  9
$DIMDLI
 40
3.75
  9
$DIMRND
 40
0
  9
$DIMDLE
 40
0
  9
$DIMEXE
 40
1.25
  9
$DIMTP
 40
0
  9
$DIMTM
 40
0
  9
$DIMTXT
 40
50
  9
$DIMCEN
 40
2.5
  9
$DIMTSZ
 40
0
  9
$DIMTOL
 70
    0
  9
$DIMLIM
 70
    0
  9
$DIMTIH
 70
    0
  9
$DIMTOH
 70
    0
  9
$DIMSE1
 70
    0
  9
$DIMSE2
 70
    0
  9
$DIMTAD
 70
    1
  9
$DIMZIN
 70
    8
  9
$DIMBLK
  1

  9
$DIMASO
 70
    1
  9
$DIMSHO
 70
    1
  9
$DIMPOST
  1

  9
$DIMAPOST
  1

  9
$DIMALT
 70
    0
  9
$DIMALTD
 70
    3
  9
$DIMALTF
 40
0.03937
  9
$DIMLFAC
 40
1
  9
$DIMTOFL
 70
    1
  9
$DIMTVP
 40
0
  9
$DIMTIX
 70
    0
  9
$DIMSOXD
 70
    0
  9
$DIMSAH
 70
    0
  9
$DIMBLK1
  1

  9
$DIMBLK2
  1

  9
$DIMSTYLE
  2
STANDARD
  9
$DIMCLRD
 70
    0
  9
$DIMCLRE
 70
    0
  9
$DIMCLRT
 70
    0
  9
$DIMTFAC
 40
1
  9
$DIMGAP
 40
10
  9
$DIMJUST
 70
    0
  9
$DIMSD1
 70
    0
  9
$DIMSD2
 70
    0
  9
$DIMTOLJ
 70
    0
  9
$DIMTZIN
 70
    8
  9
$DIMALTZ
 70
    0
  9
$DIMALTTZ
 70
    0
  9
$DIMUPT
 70
    0
  9
$DIMDEC
 70
    2
  9
$DIMTDEC
 70
    2
  9
$DIMALTU
 70
    2
  9
$DIMALTTD
 70
    3
  9
$DIMTXSTY
  7
standard
  9
$DIMAUNIT
 70
    0
  9
$DIMADEC
 70
    0
  9
$DIMALTRND
 40
0
  9
$DIMAZIN
 70
    0
  9
$DIMDSEP
 70
   44
  9
$DIMATFIT
 70
    3
  9
$DIMFRAC
 70
    0
  9
$DIMLDRBLK
  1
STANDARD
  9
$DIMLUNIT
 70
    2
  9
$DIMLWD
 70
   -2
  9
$DIMLWE
 70
   -2
  9
$DIMTMOVE
 70
    0
  9
$DIMFXL
 40
1
  9
$DIMFXLON
 70
    0
  9
$DIMJOGANG
 40
0.7854
  9
$DIMTFILL
 70
    0
  9
$DIMTFILLCLR
 70
    0
  9
$DIMARCSYM
 70
    0
  9
$DIMLTYPE
  6

  9
$DIMLTEX1
  6

  9
$DIMLTEX2
  6

  9
$LUNITS
 70
    2
  9
$LUPREC
 70
    4
  9
$SKETCHINC
 40
1
  9
$FILLETRAD
 40
0
  9
$AUNITS
 70
    0
  9
$AUPREC
 70
    2
  9
$MENU
  1
.
  9
$ELEVATION
 40
0
  9
$PELEVATION
 40
0
  9
$THICKNESS
 40
0
  9
$LIMCHECK
 70
    0
  9
$CHAMFERA
 40
0
  9
$CHAMFERB
 40
0
  9
$CHAMFERC
 40
0
  9
$CHAMFERD
 40
0
  9
$SKPOLY
 70
    0
  9
$USRTIMER
 70
    1
  9
$ANGBASE
 50
0
  9
$ANGDIR
 70
    0
  9
$PDMODE
 70
   34
  9
$PDSIZE
 40
0
  9
$PLINEWID
 40
0
  9
$SPLFRAME
 70
    0
  9
$SPLINETYPE
 70
    2
  9
$SPLINESEGS
 70
    8
  9
$HANDSEED
  5
20000
  9
$SURFTAB1
 70
    6
  9
$SURFTAB2
 70
    6
  9
$SURFTYPE
 70
    6
  9
$SURFU
 70
    6
  9
$SURFV
 70
    6
  9
$UCSBASE
  2

  9
$UCSNAME
  2

  9
$UCSORG
 10
0
 20
0
 30
0
  9
$UCSXDIR
 10
1
 20
0
 30
0
  9
$UCSYDIR
 10
0
 20
1
 30
0
  9
$UCSORTHOREF
  2

  9
$UCSORTHOVIEW
 70
    0
  9
$UCSORGTOP
 10
0
 20
0
 30
0
  9
$UCSORGBOTTOM
 10
0
 20
0
 30
0
  9
$UCSORGLEFT
 10
0
 20
0
 30
0
  9
$UCSORGRIGHT
 10
0
 20
0
 30
0
  9
$UCSORGFRONT
 10
0
 20
0
 30
0
  9
$UCSORGBACK
 10
0
 20
0
 30
0
  9
$PUCSBASE
  2

  9
$PUCSNAME
  2

  9
$PUCSORG
 10
0
 20
0
 30
0
  9
$PUCSXDIR
 10
1
 20
0
 30
0
  9
$PUCSYDIR
 10
0
 20
1
 30
0
  9
$PUCSORTHOREF
  2

  9
$PUCSORTHOVIEW
 70
    0
  9
$PUCSORGTOP
 10
0
 20
0
 30
0
  9
$PUCSORGBOTTOM
 10
0
 20
0
 30
0
  9
$PUCSORGLEFT
 10
0
 20
0
 30
0
  9
$PUCSORGRIGHT
 10
0
 20
0
 30
0
  9
$PUCSORGFRONT
 10
0
 20
0
 30
0
  9
$PUCSORGBACK
 10
0
 20
0
 30
0
  9
$USERI1
 70
    0
  9
$USERI2
 70
    0
  9
$USERI3
 70
    0
  9
$USERI4
 70
    0
  9
$USERI5
 70
    0
  9
$USERR1
 40
0
  9
$USERR2
 40
0
  9
$USERR3
 40
0
  9
$USERR4
 40
0
  9
$USERR5
 40
0
  9
$WORLDVIEW
 70
    1
  9
$SHADEDGE
 70
    3
  9
$SHADEDIF
 70
   70
  9
$TILEMODE
 70
    1
  9
$MAXACTVP
 70
   64
  9
$PINSBASE
 10
14.78418164531206
 20
40.3102551596456
 30
0
  9
$PLIMCHECK
 70
    0
  9
$PEXTMIN
 10
0
 20
0
 30
0
  9
$PEXTMAX
 10
0
 20
0
 30
0
  9
$GRIDMODE
 70
    1
  9
$SNAPSTYLE
 70
    0
  9
$GRIDUNIT
 10
0
 20
0
  9
$PLIMMIN
 10
0
 20
0
  9
$PLIMMAX
 10
297
 20
210
  9
$UNITMODE
 70
    0
  9
$VISRETAIN
 70
    1
  9
$PLINEGEN
 70
    0
  9
$PSLTSCALE
 70
    1
  9
$TREEDEPTH
 70
 3020
  9
$CMLSTYLE
  2
Standard
  9
$CMLJUST
 70
    0
  9
$CMLSCALE
 40
20
  9
$PROXYGRAPHICS
 70
    1
  9
$MEASUREMENT
 70
    1
  9
$CELWEIGHT
370
   -1
  9
$ENDCAPS
280
    0
  9
$JOINSTYLE
280
    0
  9
$LWDISPLAY
290
    0
  9
$INSUNITS
 70
    4
  9
$HYPERLINKBASE
  1

  9
$STYLESHEET
  1

  9
$XEDIT
290
    1
  9
$CEPSNTYPE
380
    0
  9
$PSTYLEMODE
290
    1
  9
$EXTNAMES
290
    1
  9
$PSVPSCALE
 40
0.02857142857142857
  9
$OLESTARTUP
290
    0
  9
$SORTENTS
280
  127
  9
$INDEXCTL
280
    0
  9
$HIDETEXT
280
    1
  9
$XCLIPFRAME
290
    0
  9
$HALOGAP
280
    0
  9
$OBSCOLOR
 70
  257
  9
$OBSLTYPE
280
    0
  9
$INTERSECTIONDISPLAY
280
    0
  9
$INTERSECTIONCOLOR
 70
  257
  9
$DIMASSOC
280
    1
  9
$PROJECTNAME
  1

  9
$CAMERADISPLAY
290
    0
  9
$LENSLENGTH
 40
50
  9
$CAMERAHEIGHT
 40
0
  9
$STEPSPERSEC
 40
2
  9
$STEPSIZE
 40
50
  9
$3DDWFPREC
 40
2
  9
$PSOLWIDTH
 40
5
  9
$PSOLHEIGHT
 40
80
  9
$LOFTANG1
 40
1.570796326794897
  9
$LOFTANG2
 40
1.570796326794897
  9
$LOFTMAG1
 40
0
  9
$LOFTMAG2
 40
0
  9
$LOFTPARAM
 70
    7
  9
$LOFTNORMALS
280
    1
  9
$LATITUDE
 40
1
  9
$LONGITUDE
 40
1
  9
$NORTHDIRECTION
 40
0
  9
$TIMEZONE
 70
-8000
  9
$LIGHTGLYPHDISPLAY
280
    1
  9
$TILEMODELIGHTSYNCH
280
    1
  9
$SOLIDHIST
280
    1
  9
$SHOWHIST
280
    1
  9
$DWFFRAME
280
    2
  9
$DGNFRAME
280
    0
  9
$REALWORLDSCALE
290
    1
  9
$INTERFERECOLOR
 62
    1
  9
$CSHADOW
280
    0
  9
$SHADOWPLANELOCATION
 40
0
  0
ENDSEC
  0
SECTION
  2
CLASSES
  0
ENDSEC
  0
SECTION
  2
TABLES
  0
TABLE
  2
VPORT
  5
8
330
0
100
AcDbSymbolTable
 70
    1
  0
VPORT
  5
31
330
2
100
AcDbSymbolTableRecord
100
AcDbViewportTableRecord
  2
*ACTIVE
 70
    0
 10
0
 20
0
 11
1
 21
1
 12
5935.886528490838
 22
3064.275271276569
 13
0
 23
0
 14
10
 24
10
 15
10
 25
10
 16
0
 26
0
 36
1
 17
0
 27
0
 37
0
 40
7734.083993072298
 41
1.814946619217082
 42
50
 43
0
 44
0
 50
0
 51
0
 71
    0
 72
  100
 73
    1
 74
    3
 75
    0
 76
    1
 77
    0
 78
    0
281
    0
 65
    1
110
0
120
0
130
0
111
1
121
0
131
0
112
0
122
1
132
0
 79
    0
146
0
348
10020
 60
    7
 61
    5
292
1
282
    1
141
0
142
0
 63
  250
421
3358443
  0
ENDTAB
  0
TABLE
  2
LTYPE
  5
5
330
0
100
AcDbSymbolTable
 70
    4
  0
LTYPE
  5
14
330
5
100
AcDbSymbolTableRecord
100
AcDbLinetypeTableRecord
  2
ByBlock
 70
    0
  3

 72
   65
 73
    0
 40
0
  0
LTYPE
  5
15
330
5
100
AcDbSymbolTableRecord
100
AcDbLinetypeTableRecord
  2
ByLayer
 70
    0
  3

 72
   65
 73
    0
 40
0
  0
LTYPE
  5
16
330
5
100
AcDbSymbolTableRecord
100
AcDbLinetypeTableRecord
  2
Continuous
 70
    0
  3
Solid line
 72
   65
 73
    0
 40
0
  0
LTYPE
  5
32
330
5
100
AcDbSymbolTableRecord
100
AcDbLinetypeTableRecord
  2
DOT
 70
    0
  3
Dot . . . . . . . . . . . . . . . . . . . . . .
 72
   65
 73
    2
 40
6.35
 49
0
 74
    0
 49
-6.35
 74
    0
  0
LTYPE
  5
33
330
5
100
AcDbSymbolTableRecord
100
AcDbLinetypeTableRecord
  2
DOTTINY
 70
    0
  3
Dot (.15x) .....................................
 72
   65
 73
    2
 40
0.9525
 49
0
 74
    0
 49
-0.9525
 74
    0
  0
LTYPE
  5
34
330
5
100
AcDbSymbolTableRecord
100
AcDbLinetypeTableRecord
  2
DOT2
 70
    0
  3
Dot (.5x) .....................................
 72
   65
 73
    2
 40
3.175
 49
0
 74
    0
 49
-3.175
 74
    0
  0
LTYPE
  5
35
330
5
100
AcDbSymbolTableRecord
100
AcDbLinetypeTableRecord
  2
DOTX2
 70
    0
  3
Dot (2x) .  .  .  .  .  .  .  .  .  .  .  .  .
 72
   65
 73
    2
 40
12.7
 49
0
 74
    0
 49
-12.7
 74
    0
  0
LTYPE
  5
36
330
5
100
AcDbSymbolTableRecord
100
AcDbLinetypeTableRecord
  2
DASHED
 70
    0
  3
Dashed _ _ _ _ _ _ _ _ _ _ _ _ _ _ _ _ _
 72
   65
 73
    2
 40
19.05
 49
12.7
 74
    0
 49
-6.35
 74
    0
  0
LTYPE
  5
37
330
5
100
AcDbSymbolTableRecord
100
AcDbLinetypeTableRecord
  2
DASHEDTINY
 70
    0
  3
Dashed (.15x) _ _ _ _ _ _ _ _ _ _ _ _ _ _ _ _ _
 72
   65
 73
    2
 40
2.8575
 49
1.905
 74
    0
 49
-0.9525
 74
    0
  0
LTYPE
  5
38
330
5
100
AcDbSymbolTableRecord
100
AcDbLinetypeTableRecord
  2
DASHED2
 70
    0
  3
Dashed (.5x) _ _ _ _ _ _ _ _ _ _ _ _ _ _ _ _ _
 72
   65
 73
    2
 40
9.524999999999999
 49
6.35
 74
    0
 49
-3.175
 74
    0
  0
LTYPE
  5
39
330
5
100
AcDbSymbolTableRecord
100
AcDbLinetypeTableRecord
  2
DASHEDX2
 70
    0
  3
Dashed (2x) ____  ____  ____  ____  ____  ___
 72
   65
 73
    2
 40
38.09999999999999
 49
25.4
 74
    0
 49
-12.7
 74
    0
  0
LTYPE
  5
3A
330
5
100
AcDbSymbolTableRecord
100
AcDbLinetypeTableRecord
  2
DASHDOT
 70
    0
  3
Dash dot __ . __ . __ . __ . __ . __ . __ . __
 72
   65
 73
    4
 40
25.4
 49
12.7
 74
    0
 49
-6.35
 74
    0
 49
0
 74
    0
 49
-6.35
 74
    0
  0
LTYPE
  5
3B
330
5
100
AcDbSymbolTableRecord
100
AcDbLinetypeTableRecord
  2
DASHDOTTINY
 70
    0
  3
Dash dot (.15x) _._._._._._._._._._._._._._._.
 72
   65
 73
    4
 40
3.81
 49
1.905
 74
    0
 49
-0.9525
 74
    0
 49
0
 74
    0
 49
-0.9525
 74
    0
  0
LTYPE
  5
3C
330
5
100
AcDbSymbolTableRecord
100
AcDbLinetypeTableRecord
  2
DASHDOT2
 70
    0
  3
Dash dot (.5x) _._._._._._._._._._._._._._._.
 72
   65
 73
    4
 40
12.7
 49
6.35
 74
    0
 49
-3.175
 74
    0
 49
0
 74
    0
 49
-3.175
 74
    0
  0
LTYPE
  5
3D
330
5
100
AcDbSymbolTableRecord
100
AcDbLinetypeTableRecord
  2
DASHDOTX2
 70
    0
  3
Dash dot (2x) ____  .  ____  .  ____  .  ___
 72
   65
 73
    4
 40
50.8
 49
25.4
 74
    0
 49
-12.7
 74
    0
 49
0
 74
    0
 49
-12.7
 74
    0
  0
LTYPE
  5
3E
330
5
100
AcDbSymbolTableRecord
100
AcDbLinetypeTableRecord
  2
DIVIDE
 70
    0
  3
Divide ____ . . ____ . . ____ . . ____ . . ____
 72
   65
 73
    6
 40
31.75
 49
12.7
 74
    0
 49
-6.35
 74
    0
 49
0
 74
    0
 49
-6.35
 74
    0
 49
0
 74
    0
 49
-6.35
 74
    0
  0
LTYPE
  5
3F
330
5
100
AcDbSymbolTableRecord
100
AcDbLinetypeTableRecord
  2
DIVIDETINY
 70
    0
  3
Divide (.15x) __..__..__..__..__..__..__..__.._
 72
   65
 73
    6
 40
4.7625
 49
1.905
 74
    0
 49
-0.9525
 74
    0
 49
0
 74
    0
 49
-0.9525
 74
    0
 49
0
 74
    0
 49
-0.9525
 74
    0
  0
LTYPE
  5
40
330
5
100
AcDbSymbolTableRecord
100
AcDbLinetypeTableRecord
  2
DIVIDE2
 70
    0
  3
Divide (.5x) __..__..__..__..__..__..__..__.._
 72
   65
 73
    6
 40
15.875
 49
6.35
 74
    0
 49
-3.175
 74
    0
 49
0
 74
    0
 49
-3.175
 74
    0
 49
0
 74
    0
 49
-3.175
 74
    0
  0
LTYPE
  5
41
330
5
100
AcDbSymbolTableRecord
100
AcDbLinetypeTableRecord
  2
DIVIDEX2
 70
    0
  3
Divide (2x) ________  .  .  ________  .  .  _
 72
   65
 73
    6
 40
63.5
 49
25.4
 74
    0
 49
-12.7
 74
    0
 49
0
 74
    0
 49
-12.7
 74
    0
 49
0
 74
    0
 49
-12.7
 74
    0
  0
LTYPE
  5
42
330
5
100
AcDbSymbolTableRecord
100
AcDbLinetypeTableRecord
  2
BORDER
 70
    0
  3
Border __ __ . __ __ . __ __ . __ __ . __ __ .
 72
   65
 73
    6
 40
44.45
 49
12.7
 74
    0
 49
-6.35
 74
    0
 49
12.7
 74
    0
 49
-6.35
 74
    0
 49
0
 74
    0
 49
-6.35
 74
    0
  0
LTYPE
  5
43
330
5
100
AcDbSymbolTableRecord
100
AcDbLinetypeTableRecord
  2
BORDERTINY
 70
    0
  3
Border (.15x) __.__.__.__.__.__.__.__.__.__.__.
 72
   65
 73
    6
 40
6.6675
 49
1.905
 74
    0
 49
-0.9525
 74
    0
 49
1.905
 74
    0
 49
-0.9525
 74
    0
 49
0
 74
    0
 49
-0.9525
 74
    0
  0
LTYPE
  5
44
330
5
100
AcDbSymbolTableRecord
100
AcDbLinetypeTableRecord
  2
BORDER2
 70
    0
  3
Border (.5x) __.__.__.__.__.__.__.__.__.__.__.
 72
   65
 73
    6
 40
22.225
 49
6.35
 74
    0
 49
-3.175
 74
    0
 49
6.35
 74
    0
 49
-3.175
 74
    0
 49
0
 74
    0
 49
-3.175
 74
    0
  0
LTYPE
  5
45
330
5
100
AcDbSymbolTableRecord
100
AcDbLinetypeTableRecord
  2
BORDERX2
 70
    0
  3
Border (2x) ____  ____  .  ____  ____  .  ___
 72
   65
 73
    6
 40
88.89999999999999
 49
25.4
 74
    0
 49
-12.7
 74
    0
 49
25.4
 74
    0
 49
-12.7
 74
    0
 49
0
 74
    0
 49
-12.7
 74
    0
  0
LTYPE
  5
46
330
5
100
AcDbSymbolTableRecord
100
AcDbLinetypeTableRecord
  2
CENTER
 70
    0
  3
Center ____ _ ____ _ ____ _ ____ _ ____ _ ____
 72
   65
 73
    4
 40
50.8
 49
31.75
 74
    0
 49
-6.35
 74
    0
 49
6.35
 74
    0
 49
-6.35
 74
    0
  0
LTYPE
  5
47
330
5
100
AcDbSymbolTableRecord
100
AcDbLinetypeTableRecord
  2
CENTERTINY
 70
    0
  3
Center (.15x) ___ _ ___ _ ___ _ ___ _ ___ _ ___
 72
   65
 73
    4
 40
7.619999999999999
 49
4.7625
 74
    0
 49
-0.9525
 74
    0
 49
0.9525
 74
    0
 49
-0.9525
 74
    0
  0
LTYPE
  5
48
330
5
100
AcDbSymbolTableRecord
100
AcDbLinetypeTableRecord
  2
CENTER2
 70
    0
  3
Center (.5x) ___ _ ___ _ ___ _ ___ _ ___ _ ___
 72
   65
 73
    4
 40
28.575
 49
19.05
 74
    0
 49
-3.175
 74
    0
 49
3.175
 74
    0
 49
-3.175
 74
    0
  0
LTYPE
  5
49
330
5
100
AcDbSymbolTableRecord
100
AcDbLinetypeTableRecord
  2
CENTERX2
 70
    0
  3
Center (2x) ________  __  ________  __  _____
 72
   65
 73
    4
 40
101.6
 49
63.5
 74
    0
 49
-12.7
 74
    0
 49
12.7
 74
    0
 49
-12.7
 74
    0
  0
ENDTAB
  0
TABLE
  2
LAYER
  5
2
330
0
100
AcDbSymbolTable
 70
    1
  0
LAYER
  5
10
330
2
100
AcDbSymbolTableRecord
100
AcDbLayerTableRecord
  2
0
 70
    0
 62
    7
  6
CONTINUOUS
370
   13
390
F
  0
LAYER
  5
4A
330
2
100
AcDbSymbolTableRecord
100
AcDbLayerTableRecord
  2
R2V
 70
    0
 62
    7
  6
CONTINUOUS
370
   70
390
F
  0
LAYER
  5
4B
330
2
100
AcDbSymbolTableRecord
100
AcDbLayerTableRecord
  2
Scene
 70
    0
 62
    1
  6
CONTINUOUS
370
   50
390
F
  0
LAYER
  5
4C
330
2
100
AcDbSymbolTableRecord
100
AcDbLayerTableRecord
  2
construction
 70
    0
 62
    6
  6
DASHED2
290
0
370
    0
390
F
1001
LibreCad
1070
    1
  0
ENDTAB
  0
TABLE
  2
STYLE
  5
3
330
0
100
AcDbSymbolTable
 70
    3
  0
STYLE
  5
4D
330
2
100
AcDbSymbolTableRecord
100
AcDbTextStyleTableRecord
  2
standard
 70
    0
 40
0
 41
1
 50
0
 71
    0
 42
1
  3
standard
  4

  0
ENDTAB
  0
TABLE
  2
VIEW
  5
6
330
0
100
AcDbSymbolTable
 70
    0
  0
ENDTAB
  0
TABLE
  2
UCS
  5
7
330
0
100
AcDbSymbolTable
 70
    0
  0
ENDTAB
  0
TABLE
  2
APPID
  5
9
330
0
100
AcDbSymbolTable
 70
    1
  0
APPID
  5
12
330
9
100
AcDbSymbolTableRecord
100
AcDbRegAppTableRecord
  2
ACAD
 70
    0
  0
APPID
  5
4E
330
9
100
AcDbSymbolTableRecord
100
AcDbRegAppTableRecord
  2
LibreCad
 70
    0
  0
ENDTAB
  0
TABLE
  2
DIMSTYLE
  5
A
330
0
100
AcDbSymbolTable
 70
    1
100
AcDbDimStyleTable
 71
    1
  0
DIMSTYLE
105
4F
330
A
100
AcDbSymbolTableRecord
100
AcDbDimStyleTableRecord
  2
Standard
 70
    0
 40
5
 41
50
 42
10
 43
0.38
 44
1.25
 45
0
 46
0
 47
0
 48
0
 49
1
140
50
141
0.09
142
0
143
25.4
144
1
145
0
146
1
147
10
148
0
 71
    0
 72
    0
 73
    0
 74
    1
 75
    0
 76
    0
 77
    0
 78
    8
 79
    0
170
    0
171
    2
172
    0
173
    0
174
    0
175
    0
176
    0
177
    0
178
    0
179
    0
271
    2
272
    4
273
    2
274
    2
275
    0
276
    0
277
    2
278
   44
279
    0
280
    0
281
    0
282
    0
283
    1
284
    0
285
    0
286
    0
288
    0
289
    3
340
standard
341

371
   -2
372
   -2
  0
ENDTAB
  0
TABLE
  2
BLOCK_RECORD
  5
1
330
0
100
AcDbSymbolTable
 70
    2
  0
BLOCK_RECORD
  5
1F
330
1
100
AcDbSymbolTableRecord
100
AcDbBlockTableRecord
  2
*Model_Space
 70
    0
280
    1
281
    0
  0
BLOCK_RECORD
  5
1E
330
1
100
AcDbSymbolTableRecord
100
AcDbBlockTableRecord
  2
*Paper_Space
 70
    0
280
    1
281
    0
  0
BLOCK_RECORD
  5
50
330
1
100
AcDbSymbolTableRecord
100
AcDbBlockTableRecord
  2
SZ290_2500-0
 70
    0
280
    1
281
    0
  0
BLOCK_RECORD
  5
53
330
1
100
AcDbSymbolTableRecord
100
AcDbBlockTableRecord
  2
SZ290_1000
 70
    0
280
    1
281
    0
  0
BLOCK_RECORD
  5
56
330
1
100
AcDbSymbolTableRecord
100
AcDbBlockTableRecord
  2
SZ290_1000-0
 70
    0
280
    1
281
    0
  0
BLOCK_RECORD
  5
59
330
1
100
AcDbSymbolTableRecord
100
AcDbBlockTableRecord
  2
SZ290_3A_90_TOP
 70
    0
280
    1
281
    0
  0
BLOCK_RECORD
  5
5C
330
1
100
AcDbSymbolTableRecord
100
AcDbBlockTableRecord
  2
ACL_4
 70
    0
280
    1
281
    0
  0
BLOCK_RECORD
  5
5F
330
1
100
AcDbSymbolTableRecord
100
AcDbBlockTableRecord
  2
ACL_4-0
 70
    0
280
    1
281
    0
  0
BLOCK_RECORD
  5
62
330
1
100
AcDbSymbolTableRecord
100
AcDbBlockTableRecord
  2
sunstrip
 70
    0
280
    1
281
    0
  0
BLOCK_RECORD
  5
65
330
1
100
AcDbSymbolTableRecord
100
AcDbBlockTableRecord
  2
minibeam
 70
    0
280
    1
281
    0
  0
BLOCK_RECORD
  5
68
330
1
100
AcDbSymbolTableRecord
100
AcDbBlockTableRecord
  2
SZ290_710
 70
    0
280
    1
281
    0
  0
ENDTAB
  0
ENDSEC
  0
SECTION
  2
BLOCKS
  0
BLOCK
  5
20
330
1F
100
AcDbEntity
  8
0
100
AcDbBlockBegin
  2
*Model_Space
 70
    0
 10
0
 20
0
 30
0
  3
*Model_Space
  1

  0
ENDBLK
  5
21
330
1F
100
AcDbEntity
  8
0
100
AcDbBlockEnd
  0
BLOCK
  5
1C
330
1B
100
AcDbEntity
  8
0
100
AcDbBlockBegin
  2
*Paper_Space
 70
    0
 10
0
 20
0
 30
0
  3
*Paper_Space
  1

  0
ENDBLK
  5
1D
330
1F
100
AcDbEntity
  8
0
100
AcDbBlockEnd
  0
BLOCK
  5
51
330
50
100
AcDbEntity
  8
0
100
AcDbBlockBegin
  2
SZ290_2500-0
 70
    0
 10
0
 20
0
  3
SZ290_2500-0
  1

  0
LINE
  5
6B
100
AcDbEntity
  8
0
  6
CONTINUOUS
 62
    7
370
   25
100
AcDbLine
 10
2012.03886287869
 20
89.96884166331984
 11
2054.127975541244
 21
89.96884166331984
  0
LINE
  5
6C
100
AcDbEntity
  8
0
  6
CONTINUOUS
 62
    7
370
   25
100
AcDbLine
 10
1832.931094938282
 20
89.96884166331984
 11
1996.198740491777
 21
89.96884166331984
  0
LINE
  5
6D
100
AcDbEntity
  8
0
  6
CONTINUOUS
 62
    7
370
   25
100
AcDbLine
 10
1789.554341717549
 20
89.96884166331984
 11
1812.941344525223
 21
89.96884166331984
  0
LINE
  5
6E
100
AcDbEntity
  8
0
  6
CONTINUOUS
 62
    7
370
   25
100
AcDbLine
 10
1341.82127513151
 20
89.96884166331984
 11
1766.434675950982
 21
89.96884166331984
  0
LINE
  5
6F
100
AcDbEntity
  8
0
  6
CONTINUOUS
 62
    7
370
   25
100
AcDbLine
 10
1289.55434171755
 20
89.96884166331984
 11
1318.701609364941
 21
89.96884166331984
  0
LINE
  5
70
100
AcDbEntity
  8
0
  6
CONTINUOUS
 62
    7
370
   25
100
AcDbLine
 10
841.8212751315095
 20
89.96884166331984
 11
1266.434675950981
 21
89.96884166331984
  0
LINE
  5
71
100
AcDbEntity
  8
0
  6
CONTINUOUS
 62
    7
370
   25
100
AcDbLine
 10
789.5543417175495
 20
89.96884166331984
 11
818.7016093649409
 21
89.96884166331984
  0
LINE
  5
72
100
AcDbEntity
  8
0
  6
CONTINUOUS
 62
    7
370
   25
100
AcDbLine
 10
341.82127513151
 20
89.96884166331984
 11
766.4346759509808
 21
89.96884166331984
  0
LINE
  5
73
100
AcDbEntity
  8
0
  6
CONTINUOUS
 62
    7
370
   25
100
AcDbLine
 10
289.55434171755
 20
89.96884166331984
 11
318.7016093649409
 21
89.96884166331984
  0
LINE
  5
74
100
AcDbEntity
  8
0
  6
CONTINUOUS
 62
    7
370
   25
100
AcDbLine
 10
-158.17872486849
 20
89.96884166331984
 11
266.4346759509808
 21
89.96884166331984
  0
LINE
  5
75
100
AcDbEntity
  8
0
  6
CONTINUOUS
 62
    7
370
   25
100
AcDbLine
 10
-204.7565759119993
 20
89.96884166331984
 11
-181.2983906350591
 21
89.96884166331984
  0
LINE
  5
76
100
AcDbEntity
  8
0
  6
CONTINUOUS
 62
    7
370
   25
100
AcDbLine
 10
-387.9611371213091
 20
89.96884166331984
 11
-224.7155592404683
 21
89.96884166331984
  0
LINE
  5
77
100
AcDbEntity
  8
0
  6
CONTINUOUS
 62
    7
370
   25
100
AcDbLine
 10
-445.8720244587553
 20
89.96884166331984
 11
-403.8012595082241
 21
89.96884166331984
  0
LINE
  5
78
100
AcDbEntity
  8
0
  6
CONTINUOUS
 62
    7
370
   25
100
AcDbLine
 10
2054.127975541244
 20
139.9688416633198
 11
-445.8720244587553
 21
139.9688416633198
  0
LINE
  5
79
100
AcDbEntity
  8
0
  6
CONTINUOUS
 62
    7
370
   25
100
AcDbLine
 10
-445.8720244587553
 20
-149.0311583366802
 11
2054.127975541244
 21
-149.0311583366802
  0
LINE
  5
7A
100
AcDbEntity
  8
0
  6
CONTINUOUS
 62
    7
370
   25
100
AcDbLine
 10
-403.7829117961992
 20
-99.03115833668016
 11
-445.8720244587553
 21
-99.03115833668016
  0
LINE
  5
7B
100
AcDbEntity
  8
0
  6
CONTINUOUS
 62
    7
370
   25
100
AcDbLine
 10
-367.0586554747783
 20
-99.03115833668016
 11
-387.9427894092851
 21
-99.03115833668016
  0
LINE
  5
7C
100
AcDbEntity
  8
0
  6
CONTINUOUS
 62
    7
370
   25
100
AcDbLine
 10
16.40035413481473
 20
-99.03115833668016
 11
-347.068905061717
 21
-99.03115833668016
  0
LINE
  5
7D
100
AcDbEntity
  8
0
  6
CONTINUOUS
 62
    7
370
   25
100
AcDbLine
 10
68.78739117437271
 20
-99.03115833668016
 11
39.46855990811673
 21
-99.03115833668016
  0
LINE
  5
7E
100
AcDbEntity
  8
0
  6
CONTINUOUS
 62
    7
370
   25
100
AcDbLine
 10
516.4003541348138
 20
-99.03115833668016
 11
91.85559694767562
 21
-99.03115833668016
  0
LINE
  5
7F
100
AcDbEntity
  8
0
  6
CONTINUOUS
 62
    7
370
   25
100
AcDbLine
 10
568.7873911743727
 20
-99.03115833668016
 11
539.4685599081167
 21
-99.03115833668016
  0
LINE
  5
80
100
AcDbEntity
  8
0
  6
CONTINUOUS
 62
    7
370
   25
100
AcDbLine
 10
1016.400354134814
 20
-99.03115833668016
 11
591.8555969476756
 21
-99.03115833668016
  0
LINE
  5
81
100
AcDbEntity
  8
0
  6
CONTINUOUS
 62
    7
370
   25
100
AcDbLine
 10
1068.787391174373
 20
-99.03115833668016
 11
1039.468559908117
 21
-99.03115833668016
  0
LINE
  5
82
100
AcDbEntity
  8
0
  6
CONTINUOUS
 62
    7
370
   25
100
AcDbLine
 10
1516.400354134814
 20
-99.03115833668016
 11
1091.855596947677
 21
-99.03115833668016
  0
LINE
  5
83
100
AcDbEntity
  8
0
  6
CONTINUOUS
 62
    7
370
   25
100
AcDbLine
 10
1568.787391174374
 20
-99.03115833668016
 11
1539.468559908118
 21
-99.03115833668016
  0
LINE
  5
84
100
AcDbEntity
  8
0
  6
CONTINUOUS
 62
    7
370
   25
100
AcDbLine
 10
1955.284440759532
 20
-99.03115833668016
 11
1591.855596947676
 21
-99.03115833668016
  0
LINE
  5
85
100
AcDbEntity
  8
0
  6
CONTINUOUS
 62
    7
370
   25
100
AcDbLine
 10
1996.2170882038
 20
-99.03115833668016
 11
1975.243424088
 21
-99.03115833668016
  0
LINE
  5
86
100
AcDbEntity
  8
0
  6
CONTINUOUS
 62
    7
370
   25
100
AcDbLine
 10
2054.127975541244
 20
-99.03115833668016
 11
2012.057210590714
 21
-99.03115833668016
  0
LINE
  5
87
100
AcDbEntity
  8
0
  6
CONTINUOUS
 62
    7
370
   25
100
AcDbLine
 10
-347.047145291202
 20
-99.05592884659382
 11
-204.7003677972843
 21
89.94895904810892
  0
LINE
  5
88
100
AcDbEntity
  8
0
  6
CONTINUOUS
 62
    7
370
   25
100
AcDbLine
 10
-224.7155592404683
 20
89.96884166331984
 11
-367.0586554747761
 21
-99.03115833668016
  0
LINE
  5
89
100
AcDbEntity
  8
0
  6
CONTINUOUS
 62
    7
370
   25
100
AcDbLine
 10
-387.8720244587553
 20
-99.05335080824898
 11
-387.8720244587553
 21
89.99692698873059
  0
LINE
  5
8A
100
AcDbEntity
  8
0
  6
CONTINUOUS
 62
    7
370
   25
100
AcDbLine
 10
-403.8720244587553
 20
89.99103413488956
 11
-403.8720244587553
 21
-99.05924366209001
  0
LINE
  5
8B
100
AcDbEntity
  8
0
  6
CONTINUOUS
 62
    7
370
   25
100
AcDbLine
 10
39.52183579629263
 20
-99.00008267595786
 11
-158.165313299568
 21
89.98883185968498
  0
LINE
  5
8C
100
AcDbEntity
  8
0
  6
CONTINUOUS
 62
    7
370
   25
100
AcDbLine
 10
-181.2983906350591
 20
89.96884166331984
 11
16.40035413481382
 21
-99.03115833668016
  0
LINE
  5
8D
100
AcDbEntity
  8
0
  6
CONTINUOUS
 62
    7
370
   25
100
AcDbLine
 10
266.4212643820588
 20
89.98883185968498
 11
68.73411528619772
 21
-99.00008267595786
  0
LINE
  5
8E
100
AcDbEntity
  8
0
  6
CONTINUOUS
 62
    7
370
   25
100
AcDbLine
 10
91.85559694767699
 20
-99.03115833668016
 11
289.55434171755
 21
89.96884166331984
  0
LINE
  5
8F
100
AcDbEntity
  8
0
  6
CONTINUOUS
 62
    7
370
   25
100
AcDbLine
 10
539.5218357962931
 20
-99.00008267595786
 11
341.834686700432
 21
89.98883185968498
  0
LINE
  5
90
100
AcDbEntity
  8
0
  6
CONTINUOUS
 62
    7
370
   25
100
AcDbLine
 10
318.7016093649409
 20
89.96884166331984
 11
516.4003541348138
 21
-99.03115833668016
  0
LINE
  5
91
100
AcDbEntity
  8
0
  6
CONTINUOUS
 62
    7
370
   25
100
AcDbLine
 10
766.4212643820592
 20
89.98883185968498
 11
568.7341152861973
 21
-99.00008267595786
  0
LINE
  5
92
100
AcDbEntity
  8
0
  6
CONTINUOUS
 62
    7
370
   25
100
AcDbLine
 10
591.8555969476765
 20
-99.03115833668016
 11
789.5543417175495
 21
89.96884166331984
  0
LINE
  5
93
100
AcDbEntity
  8
0
  6
CONTINUOUS
 62
    7
370
   25
100
AcDbLine
 10
1039.521835796293
 20
-99.00008267595786
 11
841.8346867004311
 21
89.98883185968498
  0
LINE
  5
94
100
AcDbEntity
  8
0
  6
CONTINUOUS
 62
    7
370
   25
100
AcDbLine
 10
818.7016093649409
 20
89.96884166331984
 11
1016.400354134814
 21
-99.03115833668016
  0
LINE
  5
95
100
AcDbEntity
  8
0
  6
CONTINUOUS
 62
    7
370
   25
100
AcDbLine
 10
1266.421264382059
 20
89.98883185968498
 11
1068.734115286198
 21
-99.00008267595786
  0
LINE
  5
96
100
AcDbEntity
  8
0
  6
CONTINUOUS
 62
    7
370
   25
100
AcDbLine
 10
1091.855596947677
 20
-99.03115833668016
 11
1289.55434171755
 21
89.96884166331984
  0
LINE
  5
97
100
AcDbEntity
  8
0
  6
CONTINUOUS
 62
    7
370
   25
100
AcDbLine
 10
1539.521835796293
 20
-99.00008267595786
 11
1341.834686700432
 21
89.98883185968498
  0
LINE
  5
98
100
AcDbEntity
  8
0
  6
CONTINUOUS
 62
    7
370
   25
100
AcDbLine
 10
1318.701609364942
 20
89.96884166331984
 11
1516.400354134814
 21
-99.03115833668016
  0
LINE
  5
99
100
AcDbEntity
  8
0
  6
CONTINUOUS
 62
    7
370
   25
100
AcDbLine
 10
1766.421264382059
 20
89.98883185968498
 11
1568.734115286198
 21
-99.00008267595786
  0
LINE
  5
9A
100
AcDbEntity
  8
0
  6
CONTINUOUS
 62
    7
370
   25
100
AcDbLine
 10
1591.855596947677
 20
-99.03115833668016
 11
1789.55434171755
 21
89.96884166331984
  0
LINE
  5
9B
100
AcDbEntity
  8
0
  6
CONTINUOUS
 62
    7
370
   25
100
AcDbLine
 10
1975.299632202715
 20
-99.01127572146834
 11
1832.952854708798
 21
89.99361217323349
  0
LINE
  5
9C
100
AcDbEntity
  8
0
  6
CONTINUOUS
 62
    7
370
   25
100
AcDbLine
 10
1812.941344525223
 20
89.96884166331984
 11
1955.284440759532
 21
-99.03115833668016
  0
LINE
  5
9D
100
AcDbEntity
  8
0
  6
CONTINUOUS
 62
    7
370
   25
100
AcDbLine
 10
2012.127975541245
 20
-99.05335080824898
 11
2012.127975541245
 21
89.99692698873059
  0
LINE
  5
9E
100
AcDbEntity
  8
0
  6
CONTINUOUS
 62
    7
370
   25
100
AcDbLine
 10
1996.127975541245
 20
89.99103413488956
 11
1996.127975541245
 21
-99.05924366209001
  0
LINE
  5
9F
100
AcDbEntity
  8
0
  6
CONTINUOUS
 62
    7
370
   25
100
AcDbLine
 10
-367.0436811202244
 20
89.94895904810892
 11
-295.887107357622
 21
-4.531158336680164
  0
LINE
  5
A0
100
AcDbEntity
  8
0
  6
CONTINUOUS
 62
    7
370
   25
100
AcDbLine
 10
-285.8720244587544
 20
-17.82896285239894
 11
-224.7155592404683
 21
-99.03115833668016
  0
LINE
  5
A1
100
AcDbEntity
  8
0
  6
CONTINUOUS
 62
    7
370
   25
100
AcDbLine
 10
-204.6853934427322
 20
-99.03115833668016
 11
-275.8569415598863
 21
-4.531158336680164
  0
LINE
  5
A2
100
AcDbEntity
  8
0
  6
CONTINUOUS
 62
    7
370
   25
100
AcDbLine
 10
-285.8720244587544
 20
8.766646179038617
 11
-347.0284896770413
 21
89.96884166331984
  0
LINE
  5
A3
100
AcDbEntity
  8
0
  6
CONTINUOUS
 62
    7
370
   25
100
AcDbLine
 10
16.40035413481291
 20
89.96884166331984
 11
-70.87202445875528
 21
6.536447727868108
  0
LINE
  5
A4
100
AcDbEntity
  8
0
  6
CONTINUOUS
 62
    7
370
   25
100
AcDbLine
 10
-82.44901825012221
 20
-4.531158336678345
 11
-181.2658847138032
 21
-99.00008267595786
  0
LINE
  5
A5
100
AcDbEntity
  8
0
  6
CONTINUOUS
 62
    7
370
   25
100
AcDbLine
 10
-158.1444030523253
 20
-99.03115833668016
 11
-70.87202445875528
 21
-15.59876440122662
  0
LINE
  5
A6
100
AcDbEntity
  8
0
  6
CONTINUOUS
 62
    7
370
   25
100
AcDbLine
 10
-59.29503066738835
 20
-4.531158336678345
 11
39.55434171754769
 21
89.96884166331984
  0
LINE
  5
A7
100
AcDbEntity
  8
0
  6
CONTINUOUS
 62
    7
370
   25
100
AcDbLine
 10
289.5218357962949
 20
-99.00008267595786
 11
190.7049693326139
 21
-4.531158336680164
  0
LINE
  5
A8
100
AcDbEntity
  8
0
  6
CONTINUOUS
 62
    7
370
   25
100
AcDbLine
 10
179.127975541247
 20
6.536447727868108
 11
91.85559694767699
 21
89.96884166331984
  0
LINE
  5
A9
100
AcDbEntity
  8
0
  6
CONTINUOUS
 62
    7
370
   25
100
AcDbLine
 10
68.70160936494267
 20
89.96884166331984
 11
167.5509817498787
 21
-4.531158336680164
  0
LINE
  5
AA
100
AcDbEntity
  8
0
  6
CONTINUOUS
 62
    7
370
   25
100
AcDbLine
 10
179.127975541247
 20
-15.59876440122753
 11
266.4003541348156
 21
-99.03115833668016
  0
LINE
  5
AB
100
AcDbEntity
  8
0
  6
CONTINUOUS
 62
    7
370
   25
100
AcDbLine
 10
516.4003541348129
 20
89.96884166331984
 11
429.1279755412447
 21
6.536447727868108
  0
LINE
  5
AC
100
AcDbEntity
  8
0
  6
CONTINUOUS
 62
    7
370
   25
100
AcDbLine
 10
417.5509817498778
 20
-4.531158336678345
 11
318.7341152861968
 21
-99.00008267595786
  0
LINE
  5
AD
100
AcDbEntity
  8
0
  6
CONTINUOUS
 62
    7
370
   25
100
AcDbLine
 10
341.8555969476747
 20
-99.03115833668016
 11
429.1279755412447
 21
-15.59876440122662
  0
LINE
  5
AE
100
AcDbEntity
  8
0
  6
CONTINUOUS
 62
    7
370
   25
100
AcDbLine
 10
440.7049693326117
 20
-4.531158336678345
 11
539.5543417175477
 21
89.96884166331984
  0
LINE
  5
AF
100
AcDbEntity
  8
0
  6
CONTINUOUS
 62
    7
370
   25
100
AcDbLine
 10
789.521835796294
 20
-99.00008267595786
 11
690.7049693326135
 21
-4.531158336680164
  0
LINE
  5
B0
100
AcDbEntity
  8
0
  6
CONTINUOUS
 62
    7
370
   25
100
AcDbLine
 10
679.1279755412461
 20
6.536447727868108
 11
591.8555969476774
 21
89.96884166331984
  0
LINE
  5
B1
100
AcDbEntity
  8
0
  6
CONTINUOUS
 62
    7
370
   25
100
AcDbLine
 10
568.7016093649427
 20
89.96884166331984
 11
667.5509817498796
 21
-4.531158336680164
  0
LINE
  5
B2
100
AcDbEntity
  8
0
  6
CONTINUOUS
 62
    7
370
   25
100
AcDbLine
 10
679.1279755412461
 20
-15.59876440122753
 11
766.4003541348156
 21
-99.03115833668016
  0
LINE
  5
B3
100
AcDbEntity
  8
0
  6
CONTINUOUS
 62
    7
370
   25
100
AcDbLine
 10
1016.400354134814
 20
89.96884166331984
 11
929.1279755412452
 21
6.536447727868108
  0
LINE
  5
B4
100
AcDbEntity
  8
0
  6
CONTINUOUS
 62
    7
370
   25
100
AcDbLine
 10
917.5509817498778
 20
-4.531158336678345
 11
818.7341152861973
 21
-99.00008267595786
  0
LINE
  5
B5
100
AcDbEntity
  8
0
  6
CONTINUOUS
 62
    7
370
   25
100
AcDbLine
 10
841.8555969476747
 20
-99.03115833668016
 11
929.1279755412452
 21
-15.59876440122662
  0
LINE
  5
B6
100
AcDbEntity
  8
0
  6
CONTINUOUS
 62
    7
370
   25
100
AcDbLine
 10
940.7049693326117
 20
-4.531158336678345
 11
1039.554341717548
 21
89.96884166331984
  0
LINE
  5
B7
100
AcDbEntity
  8
0
  6
CONTINUOUS
 62
    7
370
   25
100
AcDbLine
 10
1289.521835796294
 20
-99.00008267595786
 11
1190.704969332614
 21
-4.531158336680164
  0
LINE
  5
B8
100
AcDbEntity
  8
0
  6
CONTINUOUS
 62
    7
370
   25
100
AcDbLine
 10
1179.127975541247
 20
6.536447727868108
 11
1091.855596947677
 21
89.96884166331984
  0
LINE
  5
B9
100
AcDbEntity
  8
0
  6
CONTINUOUS
 62
    7
370
   25
100
AcDbLine
 10
1068.701609364943
 20
89.96884166331984
 11
1167.55098174988
 21
-4.531158336680164
  0
LINE
  5
BA
100
AcDbEntity
  8
0
  6
CONTINUOUS
 62
    7
370
   25
100
AcDbLine
 10
1179.127975541247
 20
-15.59876440122753
 11
1266.400354134816
 21
-99.03115833668016
  0
LINE
  5
BB
100
AcDbEntity
  8
0
  6
CONTINUOUS
 62
    7
370
   25
100
AcDbLine
 10
1516.400354134813
 20
89.96884166331984
 11
1429.127975541244
 21
6.536447727868108
  0
LINE
  5
BC
100
AcDbEntity
  8
0
  6
CONTINUOUS
 62
    7
370
   25
100
AcDbLine
 10
1417.550981749878
 20
-4.531158336678345
 11
1318.734115286197
 21
-99.00008267595786
  0
LINE
  5
BD
100
AcDbEntity
  8
0
  6
CONTINUOUS
 62
    7
370
   25
100
AcDbLine
 10
1341.855596947675
 20
-99.03115833668016
 11
1429.127975541244
 21
-15.59876440122662
  0
LINE
  5
BE
100
AcDbEntity
  8
0
  6
CONTINUOUS
 62
    7
370
   25
100
AcDbLine
 10
1440.704969332613
 20
-4.531158336678345
 11
1539.554341717548
 21
89.96884166331984
  0
LINE
  5
BF
100
AcDbEntity
  8
0
  6
CONTINUOUS
 62
    7
370
   25
100
AcDbLine
 10
1789.521835796294
 20
-99.00008267595786
 11
1690.704969332613
 21
-4.531158336680164
  0
LINE
  5
C0
100
AcDbEntity
  8
0
  6
CONTINUOUS
 62
    7
370
   25
100
AcDbLine
 10
1679.127975541246
 20
6.536447727868108
 11
1591.855596947679
 21
89.96884166331984
  0
LINE
  5
C1
100
AcDbEntity
  8
0
  6
CONTINUOUS
 62
    7
370
   25
100
AcDbLine
 10
1568.701609364942
 20
89.96884166331984
 11
1667.55098174988
 21
-4.531158336680164
  0
LINE
  5
C2
100
AcDbEntity
  8
0
  6
CONTINUOUS
 62
    7
370
   25
100
AcDbLine
 10
1679.127975541246
 20
-15.59876440122753
 11
1766.400354134817
 21
-99.03115833668016
  0
LINE
  5
C3
100
AcDbEntity
  8
0
  6
CONTINUOUS
 62
    7
370
   25
100
AcDbLine
 10
1955.284440759529
 20
89.96884166331984
 11
1894.127975541244
 21
8.766646179039526
  0
LINE
  5
C4
100
AcDbEntity
  8
0
  6
CONTINUOUS
 62
    7
370
   25
100
AcDbLine
 10
1884.112892642378
 20
-4.531158336678345
 11
1812.956318879775
 21
-99.01127572146834
  0
LINE
  5
C5
100
AcDbEntity
  8
0
  6
CONTINUOUS
 62
    7
370
   25
100
AcDbLine
 10
1832.971510322958
 20
-99.03115833668016
 11
1894.127975541245
 21
-17.82896285239804
  0
LINE
  5
C6
100
AcDbEntity
  8
0
  6
CONTINUOUS
 62
    7
370
   25
100
AcDbLine
 10
1904.143058440113
 20
-4.531158336678345
 11
1975.314606557266
 21
89.96884166331984
  0
SPLINE
  5
C7
100
AcDbEntity
  8
0
  6
CONTINUOUS
 62
    7
370
   25
100
AcDbSpline
210
0
220
0
230
0
 70
    8
 71
    3
 72
   20
 73
   16
 74
    0
 42
1e-07
 43
1e-07
 40
0
 40
0
 40
0
 40
0
 40
0.0427443031217284
 40
0.091581622158734
 40
0.1739798367711401
 40
0.2418330249921312
 40
0.3114661383082646
 40
0.4077500509887759
 40
0.5068305556065249
 40
0.5778561606803504
 40
0.6505538644507729
 40
0.7568563392005858
 40
0.8445922610005953
 40
0.9327212866880918
 40
1
 40
1
 40
1
 40
1
 10
-158.17872486849
 20
89.97497906861372
 30
0
 10
-158.2045103757591
 20
89.97965377906712
 30
0
 10
-158.2597570030612
 20
89.98966955977085
 30
0
 10
-159.0918133951932
 20
90.13682760971642
 30
0
 10
-160.511301950954
 20
90.37282568077171
 30
0
 10
-162.401369007091
 20
90.64962765233213
 30
0
 10
-164.5849920760634
 20
90.92148015889688
 30
0
 10
-167.2177704044802
 20
91.16660313873308
 30
0
 10
-169.9659378159231
 20
91.29350295238146
 30
0
 10
-172.4924302570062
 20
91.28132457805896
 30
0
 10
-175.0574242428634
 20
91.14353381453293
 30
0
 10
-177.6557556378061
 20
90.81689879990881
 30
0
 10
-179.8536602193221
 20
90.36365834717617
 30
0
 10
-181.098400997058
 20
90.02752068996688
 30
0
 10
-181.2379691528322
 20
89.98656995064994
 30
0
 10
-181.2983906350591
 20
89.96884166331984
 30
0
  0
SPLINE
  5
C8
100
AcDbEntity
  8
0
  6
CONTINUOUS
 62
    7
370
   25
100
AcDbSpline
210
0
220
0
230
0
 70
    8
 71
    3
 72
   20
 73
   16
 74
    0
 42
1e-07
 43
1e-07
 40
0
 40
0
 40
0
 40
0
 40
0.04274430312173
 40
0.0915816221587365
 40
0.1739798367711469
 40
0.2418330249921378
 40
0.3114661383082729
 40
0.4077500509887894
 40
0.5068305556065346
 40
0.5778561606803583
 40
0.650553864450781
 40
0.7568563392005866
 40
0.8445922610005951
 40
0.932721286688093
 40
1
 40
1
 40
1
 40
1
 10
341.82127513151
 20
89.97497906861372
 30
0
 10
341.7954896242409
 20
89.97965377906712
 30
0
 10
341.7402429969397
 20
89.98966955977085
 30
0
 10
340.9081866048068
 20
90.13682760971642
 30
0
 10
339.488698049046
 20
90.37282568077171
 30
0
 10
337.5986309929099
 20
90.64962765233213
 30
0
 10
335.4150079239357
 20
90.92148015889688
 30
0
 10
332.7822295955198
 20
91.16660313873308
 30
0
 10
330.034062184076
 20
91.29350295238146
 30
0
 10
327.5075697429938
 20
91.28132457805805
 30
0
 10
324.9425757571357
 20
91.14353381453293
 30
0
 10
322.3442443621939
 20
90.81689879990881
 30
0
 10
320.146339780677
 20
90.36365834717617
 30
0
 10
318.901599002942
 20
90.02752068996688
 30
0
 10
318.7620308471678
 20
89.98656995064994
 30
0
 10
318.7016093649409
 20
89.96884166331984
 30
0
  0
SPLINE
  5
C9
100
AcDbEntity
  8
0
  6
CONTINUOUS
 62
    7
370
   25
100
AcDbSpline
210
0
220
0
230
0
 70
    8
 71
    3
 72
   20
 73
   16
 74
    0
 42
1e-07
 43
1e-07
 40
0
 40
0
 40
0
 40
0
 40
0.0427443031217309
 40
0.09158162215873721
 40
0.1739798367711478
 40
0.2418330249921394
 40
0.3114661383082745
 40
0.4077500509887913
 40
0.5068305556065398
 40
0.5778561606803613
 40
0.650553864450784
 40
0.7568563392005894
 40
0.8445922610005997
 40
0.9327212866880976
 40
1
 40
1
 40
1
 40
1
 10
841.8212751315095
 20
89.97497906861372
 30
0
 10
841.7954896242418
 20
89.97965377906712
 30
0
 10
841.7402429969397
 20
89.98966955977085
 30
0
 10
840.9081866048073
 20
90.13682760971642
 30
0
 10
839.4886980490455
 20
90.37282568077171
 30
0
 10
837.5986309929094
 20
90.64962765233213
 30
0
 10
835.4150079239362
 20
90.92148015889688
 30
0
 10
832.7822295955184
 20
91.16660313873308
 30
0
 10
830.034062184076
 20
91.29350295238146
 30
0
 10
827.5075697429938
 20
91.28132457805896
 30
0
 10
824.9425757571362
 20
91.14353381453293
 30
0
 10
822.3442443621934
 20
90.81689879990881
 30
0
 10
820.1463397806774
 20
90.36365834717617
 30
0
 10
818.9015990029411
 20
90.02752068996688
 30
0
 10
818.7620308471669
 20
89.98656995064994
 30
0
 10
818.7016093649409
 20
89.96884166331984
 30
0
  0
SPLINE
  5
CA
100
AcDbEntity
  8
0
  6
CONTINUOUS
 62
    7
370
   25
100
AcDbSpline
210
0
220
0
230
0
 70
    8
 71
    3
 72
   20
 73
   16
 74
    0
 42
1e-07
 43
1e-07
 40
0
 40
0
 40
0
 40
0
 40
0.0427443031217284
 40
0.091581622158734
 40
0.1739798367711401
 40
0.2418330249921312
 40
0.3114661383082646
 40
0.4077500509887759
 40
0.5068305556065249
 40
0.5778561606803504
 40
0.6505538644507729
 40
0.7568563392005858
 40
0.8445922610005953
 40
0.9327212866880918
 40
1
 40
1
 40
1
 40
1
 10
1341.82127513151
 20
89.97497906861372
 30
0
 10
1341.795489624242
 20
89.97965377906712
 30
0
 10
1341.74024299694
 20
89.98966955977085
 30
0
 10
1340.908186604807
 20
90.13682760971642
 30
0
 10
1339.488698049046
 20
90.37282568077171
 30
0
 10
1337.598630992909
 20
90.64962765233213
 30
0
 10
1335.415007923936
 20
90.92148015889688
 30
0
 10
1332.78222959552
 20
91.16660313873308
 30
0
 10
1330.034062184076
 20
91.29350295238146
 30
0
 10
1327.507569742994
 20
91.28132457805896
 30
0
 10
1324.942575757137
 20
91.14353381453293
 30
0
 10
1322.344244362193
 20
90.81689879990881
 30
0
 10
1320.146339780677
 20
90.36365834717617
 30
0
 10
1318.901599002942
 20
90.02752068996688
 30
0
 10
1318.762030847168
 20
89.98656995064994
 30
0
 10
1318.701609364942
 20
89.96884166331984
 30
0
  0
SPLINE
  5
CB
100
AcDbEntity
  8
0
  6
CONTINUOUS
 62
    7
370
   25
100
AcDbSpline
210
0
220
0
230
0
 70
    8
 71
    3
 72
   21
 73
   17
 74
    0
 42
1e-07
 43
1e-07
 40
0
 40
0
 40
0
 40
0
 40
0.07635609485055971
 40
0.152623330434681
 40
0.2311859344743337
 40
0.3187083408941884
 40
0.3860675326644308
 40
0.4553376222551279
 40
0.5474182410967484
 40
0.6421330772686443
 40
0.7191299328331267
 40
0.7979005781886596
 40
0.8779080641245591
 40
0.9423517719174944
 40
0.9924775117013848
 40
1
 40
1
 40
1
 40
1
 10
289.55434171755
 20
89.96884166331984
 30
0
 10
289.4770964018649
 20
89.99165338079183
 30
0
 10
289.3226956645917
 20
90.03725026864504
 30
0
 10
288.1186543528056
 20
90.35725077802635
 30
0
 10
286.2872982921126
 20
90.74290985226435
 30
0
 10
284.0953068117237
 20
91.05625425646394
 30
0
 10
281.8337739710037
 20
91.23531094765895
 30
0
 10
279.4615885347466
 20
91.30529204014329
 30
0
 10
276.7982060316567
 20
91.24486535205324
 30
0
 10
274.1225779205097
 20
91.05126208449383
 30
0
 10
271.6962531756258
 20
90.78686919270785
 30
0
 10
269.5754921055427
 20
90.49756336001883
 30
0
 10
267.7995076302836
 20
90.21422279887247
 30
0
 10
266.7502411056066
 20
90.03183866186646
 30
0
 10
266.3392574463487
 20
89.95791949795239
 30
0
 10
266.4236620382239
 20
89.97300992621604
 30
0
 10
266.4346759509808
 20
89.97497906861372
 30
0
  0
SPLINE
  5
CC
100
AcDbEntity
  8
0
  6
CONTINUOUS
 62
    7
370
   25
100
AcDbSpline
210
0
220
0
230
0
 70
    8
 71
    3
 72
   21
 73
   17
 74
    0
 42
1e-07
 43
1e-07
 40
0
 40
0
 40
0
 40
0
 40
0.07635609485056009
 40
0.1526233304346805
 40
0.2311859344743337
 40
0.3187083408941937
 40
0.386067532664441
 40
0.4553376222551377
 40
0.5474182410967654
 40
0.6421330772686652
 40
0.719129932833146
 40
0.7979005781886706
 40
0.8779080641245672
 40
0.9423517719175007
 40
0.9924775117013905
 40
1
 40
1
 40
1
 40
1
 10
789.5543417175495
 20
89.96884166331984
 30
0
 10
789.4770964018644
 20
89.99165338079183
 30
0
 10
789.3226956645922
 20
90.03725026864504
 30
0
 10
788.1186543528065
 20
90.35725077802635
 30
0
 10
786.2872982921126
 20
90.74290985226435
 30
0
 10
784.0953068117233
 20
91.05625425646394
 30
0
 10
781.8337739710041
 20
91.23531094765804
 30
0
 10
779.4615885347466
 20
91.30529204014329
 30
0
 10
776.7982060316563
 20
91.24486535205324
 30
0
 10
774.1225779205097
 20
91.05126208449383
 30
0
 10
771.6962531756244
 20
90.78686919270785
 30
0
 10
769.5754921055432
 20
90.49756336001883
 30
0
 10
767.7995076302841
 20
90.21422279887247
 30
0
 10
766.7502411056075
 20
90.03183866186646
 30
0
 10
766.3392574463487
 20
89.95791949795239
 30
0
 10
766.4236620382235
 20
89.97300992621604
 30
0
 10
766.4346759509808
 20
89.97497906861372
 30
0
  0
SPLINE
  5
CD
100
AcDbEntity
  8
0
  6
CONTINUOUS
 62
    7
370
   25
100
AcDbSpline
210
0
220
0
230
0
 70
    8
 71
    3
 72
   21
 73
   17
 74
    0
 42
1e-07
 43
1e-07
 40
0
 40
0
 40
0
 40
0
 40
0.0763560948505598
 40
0.1526233304346803
 40
0.2311859344743356
 40
0.3187083408941904
 40
0.3860675326644383
 40
0.4553376222551336
 40
0.5474182410967596
 40
0.6421330772686562
 40
0.7191299328331413
 40
0.797900578188669
 40
0.877908064124564
 40
0.9423517719175
 40
0.9924775117013904
 40
1
 40
1
 40
1
 40
1
 10
1289.55434171755
 20
89.96884166331984
 30
0
 10
1289.477096401864
 20
89.99165338079183
 30
0
 10
1289.322695664592
 20
90.03725026864504
 30
0
 10
1288.118654352807
 20
90.35725077802635
 30
0
 10
1286.287298292114
 20
90.74290985226435
 30
0
 10
1284.095306811723
 20
91.05625425646394
 30
0
 10
1281.833773971004
 20
91.23531094765895
 30
0
 10
1279.461588534747
 20
91.30529204014329
 30
0
 10
1276.798206031657
 20
91.24486535205324
 30
0
 10
1274.122577920509
 20
91.05126208449383
 30
0
 10
1271.696253175624
 20
90.78686919270785
 30
0
 10
1269.575492105544
 20
90.49756336001883
 30
0
 10
1267.799507630284
 20
90.21422279887247
 30
0
 10
1266.750241105608
 20
90.03183866186646
 30
0
 10
1266.339257446349
 20
89.95791949795239
 30
0
 10
1266.423662038223
 20
89.97300992621604
 30
0
 10
1266.434675950981
 20
89.97497906861372
 30
0
  0
SPLINE
  5
CE
100
AcDbEntity
  8
0
  6
CONTINUOUS
 62
    7
370
   25
100
AcDbSpline
210
0
220
0
230
0
 70
    8
 71
    3
 72
   21
 73
   17
 74
    0
 42
1e-07
 43
1e-07
 40
0
 40
0
 40
0
 40
0
 40
0.0763560948505593
 40
0.1526233304346803
 40
0.2311859344743326
 40
0.318708340894187
 40
0.3860675326644291
 40
0.455337622255126
 40
0.5474182410967462
 40
0.6421330772686416
 40
0.7191299328331237
 40
0.7979005781886562
 40
0.8779080641245555
 40
0.9423517719174908
 40
0.9924775117013804
 40
1
 40
1
 40
1
 40
1
 10
1789.55434171755
 20
89.96884166331984
 30
0
 10
1789.477096401864
 20
89.99165338079183
 30
0
 10
1789.322695664591
 20
90.03725026864504
 30
0
 10
1788.118654352807
 20
90.35725077802635
 30
0
 10
1786.287298292114
 20
90.74290985226435
 30
0
 10
1784.095306811724
 20
91.05625425646394
 30
0
 10
1781.833773971004
 20
91.23531094765804
 30
0
 10
1779.461588534746
 20
91.30529204014329
 30
0
 10
1776.798206031657
 20
91.24486535205324
 30
0
 10
1774.12257792051
 20
91.05126208449383
 30
0
 10
1771.696253175624
 20
90.78686919270785
 30
0
 10
1769.575492105544
 20
90.49756336001883
 30
0
 10
1767.799507630283
 20
90.21422279887247
 30
0
 10
1766.750241105608
 20
90.03183866186646
 30
0
 10
1766.339257446348
 20
89.95791949795239
 30
0
 10
1766.423662038223
 20
89.97300992621604
 30
0
 10
1766.434675950981
 20
89.97497906861372
 30
0
  0
SPLINE
  5
CF
100
AcDbEntity
  8
0
  6
CONTINUOUS
 62
    7
370
   25
100
AcDbSpline
210
0
220
0
230
0
 70
    8
 71
    3
 72
   18
 73
   14
 74
    0
 42
1e-07
 43
1e-07
 40
0
 40
0
 40
0
 40
0
 40
0.0550892648092633
 40
0.1181734542458854
 40
0.2163425647558715
 40
0.2860441929645636
 40
0.3577049510323643
 40
0.5026852031032149
 40
0.628265937607725
 40
0.7320193716087089
 40
0.8362185330063904
 40
0.9298695242049981
 40
1
 40
1
 40
1
 40
1
 10
1832.931094938283
 20
89.97745131383454
 30
0
 10
1832.901407254903
 20
89.98390380225192
 30
0
 10
1832.83772341186
 20
89.99774520760184
 30
0
 10
1831.893997508597
 20
90.19561993175284
 30
0
 10
1830.388596111708
 20
90.48440485984065
 30
0
 10
1828.498472072687
 20
90.78809632022785
 30
0
 10
1826.033379729797
 20
91.10677047456193
 30
0
 10
1822.809568607719
 20
91.34030289287966
 30
0
 10
1819.212937922202
 20
91.23108133360438
 30
0
 10
1816.273070696455
 20
90.83209483838164
 30
0
 10
1814.213221420653
 20
90.35477633073515
 30
0
 10
1813.107390040123
 20
90.02215308804534
 30
0
 10
1812.991127579584
 20
89.98482526611042
 30
0
 10
1812.941344525223
 20
89.96884166331984
 30
0
  0
SPLINE
  5
D0
100
AcDbEntity
  8
0
  6
CONTINUOUS
 62
    7
370
   25
100
AcDbSpline
210
0
220
0
230
0
 70
    8
 71
    3
 72
   18
 73
   14
 74
    0
 42
1e-07
 43
1e-07
 40
0
 40
0
 40
0
 40
0
 40
0.0292088327245418
 40
0.1311656720357145
 40
0.2344432179664849
 40
0.3422205214593469
 40
0.4512560818873284
 40
0.5557009132537869
 40
0.6569753392543322
 40
0.7612975820603904
 40
0.8701594031442131
 40
0.9781880356053044
 40
1
 40
1
 40
1
 40
1
 10
-387.9611371213091
 20
89.99707017834135
 30
0
 10
-387.9347194679772
 20
89.98871037906065
 30
0
 10
-387.8160879127313
 20
89.95116972480082
 30
0
 10
-388.4653774126764
 20
90.15917382133102
 30
0
 10
-389.8521675021252
 20
90.54962463051743
 30
0
 10
-391.9884889694881
 20
91.00726926094467
 30
0
 10
-394.5775160345111
 20
91.30003574028251
 30
0
 10
-397.2773158469831
 20
91.28923836249669
 30
0
 10
-399.7591671739174
 20
91.00268193636111
 30
0
 10
-401.870475077701
 20
90.55617894681109
 30
0
 10
-403.3013775746563
 20
90.1529680284757
 30
0
 10
-403.9535372432993
 20
89.94309373096985
 30
0
 10
-403.8231613904481
 20
89.9842930373261
 30
0
 10
-403.8012595082241
 20
89.99121412229397
 30
0
  0
SPLINE
  5
D1
100
AcDbEntity
  8
0
  6
CONTINUOUS
 62
    7
370
   25
100
AcDbSpline
210
0
220
0
230
0
 70
    8
 71
    3
 72
   18
 73
   14
 74
    0
 42
1e-07
 43
1e-07
 40
0
 40
0
 40
0
 40
0
 40
0.0292088327245418
 40
0.1311656720357142
 40
0.2344432179664843
 40
0.3422205214593461
 40
0.4512560818873272
 40
0.5557009132537855
 40
0.6569753392543305
 40
0.7612975820603886
 40
0.8701594031442109
 40
0.978188035605302
 40
0.9999999999999999
 40
0.9999999999999999
 40
0.9999999999999999
 40
0.9999999999999999
 10
2012.03886287869
 20
89.99707017834135
 30
0
 10
2012.065280532023
 20
89.98871037906065
 30
0
 10
2012.183912087269
 20
89.95116972480082
 30
0
 10
2011.534622587324
 20
90.15917382133102
 30
0
 10
2010.147832497875
 20
90.54962463051743
 30
0
 10
2008.011511030513
 20
91.00726926094467
 30
0
 10
2005.422483965489
 20
91.30003574028251
 30
0
 10
2002.722684153018
 20
91.28923836249669
 30
0
 10
2000.240832826084
 20
91.00268193636111
 30
0
 10
1998.129524922299
 20
90.55617894681109
 30
0
 10
1996.698622425344
 20
90.1529680284757
 30
0
 10
1996.046462756703
 20
89.94309373096985
 30
0
 10
1996.176838609552
 20
89.9842930373261
 30
0
 10
1996.198740491777
 20
89.99121412229397
 30
0
  0
LINE
  5
D2
100
AcDbEntity
  8
0
  6
CONTINUOUS
 62
    7
370
   25
100
AcDbLine
 10
2054.127975541244
 20
139.9688416633198
 11
2054.127975541244
 21
89.96884166331984
  0
SPLINE
  5
D3
100
AcDbEntity
  8
0
  6
CONTINUOUS
 62
    7
370
   25
100
AcDbSpline
210
0
220
0
230
0
 70
    8
 71
    3
 72
   20
 73
   16
 74
    0
 42
1e-07
 43
1e-07
 40
0
 40
0
 40
0
 40
0
 40
0.07263988290819259
 40
0.1448048077563015
 40
0.2549098596574884
 40
0.3303619511191242
 40
0.4079721722097504
 40
0.4844418633354834
 40
0.5632548781408483
 40
0.676519158007444
 40
0.7326877428981375
 40
0.7910341044270278
 40
0.8893389164142762
 40
0.9800344831507172
 40
1
 40
1
 40
1
 40
1
 10
-224.7155592404683
 20
89.96884166331984
 30
0
 10
-224.6345961749962
 20
89.98639603988522
 30
0
 10
-224.4731994234912
 20
90.02139001319665
 30
0
 10
-223.1598318559272
 20
90.29216820979855
 30
0
 10
-221.3048476264212
 20
90.62967346436653
 30
0
 10
-219.102634269374
 20
90.94462490030037
 30
0
 10
-217.0398514700014
 20
91.1603887516485
 30
0
 10
-214.8542290979813
 20
91.28642183919237
 30
0
 10
-212.2933666199742
 20
91.29299443067794
 30
0
 10
-209.9561347980093
 20
91.10756497557941
 30
0
 10
-208.0621015332063
 20
90.812965042629
 30
0
 10
-206.5061768820492
 20
90.49144382171471
 30
0
 10
-205.2414373417523
 20
90.14651691488871
 30
0
 10
-204.613448780256
 20
89.94639470235688
 30
0
 10
-204.7346997615764
 20
89.98424229651937
 30
0
 10
-204.7565759119993
 20
89.99107077455847
 30
0
  0
LINE
  5
D4
100
AcDbEntity
  8
0
  6
CONTINUOUS
 62
    7
370
   25
100
AcDbLine
 10
-445.8720244587553
 20
139.9688416633198
 11
-445.8720244587553
 21
89.96884166331984
  0
SPLINE
  5
D5
100
AcDbEntity
  8
0
  6
CONTINUOUS
 62
    7
370
   25
100
AcDbSpline
210
0
220
0
230
0
 70
    8
 71
    3
 72
   20
 73
   16
 74
    0
 42
1e-07
 43
1e-07
 40
0
 40
0
 40
0
 40
0
 40
0.0508235668364446
 40
0.1133682517302609
 40
0.2087727275069904
 40
0.2878021491958455
 40
0.3689484473727678
 40
0.4528165259909134
 40
0.538542535493056
 40
0.6044517475509262
 40
0.6718754185038102
 40
0.774158402466133
 40
0.8596302247777114
 40
0.9454337118451194
 40
1
 40
1
 40
1
 40
1
 10
16.40035413481382
 20
-99.03115833668016
 30
0
 10
16.45730063534666
 20
-99.04145366275134
 30
0
 10
16.58432684797663
 20
-99.06441866088971
 30
0
 10
17.74534718048562
 20
-99.26819572432032
 30
0
 10
19.60614905056582
 20
-99.56618133586198
 30
0
 10
21.93033043762989
 20
-99.87844407252214
 30
0
 10
24.3063431361179
 20
-100.1290482831801
 30
0
 10
26.85146164278103
 20
-100.3054557539199
 30
0
 10
29.29673656328077
 20
-100.3648685555663
 30
0
 10
31.56983615277477
 20
-100.3099584575657
 30
0
 10
33.95745733016793
 20
-100.1391066342658
 30
0
 10
36.38082669631603
 20
-99.79470869217766
 30
0
 10
38.37385683330376
 20
-99.35954362967277
 30
0
 10
39.44739363786266
 20
-99.06247427378912
 30
0
 10
39.46263506905962
 20
-99.05751580305241
 30
0
 10
39.46855990811673
 20
-99.05558828452104
 30
0
  0
SPLINE
  5
D6
100
AcDbEntity
  8
0
  6
CONTINUOUS
 62
    7
370
   25
100
AcDbSpline
210
0
220
0
230
0
 70
    8
 71
    3
 72
   20
 73
   16
 74
    0
 42
1e-07
 43
1e-07
 40
0
 40
0
 40
0
 40
0
 40
0.0508235668364447
 40
0.11336825173026
 40
0.2087727275069927
 40
0.287802149195848
 40
0.3689484473727684
 40
0.4528165259909123
 40
0.5385425354930553
 40
0.6044517475509257
 40
0.6718754185038064
 40
0.7741584024661328
 40
0.8596302247777092
 40
0.9454337118451158
 40
1
 40
1
 40
1
 40
1
 10
516.4003541348138
 20
-99.03115833668016
 30
0
 10
516.4573006353467
 20
-99.04145366275134
 30
0
 10
516.5843268479766
 20
-99.06441866089062
 30
0
 10
517.7453471804856
 20
-99.26819572432032
 30
0
 10
519.6061490505658
 20
-99.56618133586198
 30
0
 10
521.9303304376299
 20
-99.87844407252214
 30
0
 10
524.3063431361188
 20
-100.1290482831801
 30
0
 10
526.851461642781
 20
-100.3054557539199
 30
0
 10
529.2967365632821
 20
-100.3648685555663
 30
0
 10
531.5698361527757
 20
-100.3099584575657
 30
0
 10
533.9574573301679
 20
-100.1391066342658
 30
0
 10
536.380826696316
 20
-99.79470869217766
 30
0
 10
538.3738568333047
 20
-99.35954362967277
 30
0
 10
539.4473936378627
 20
-99.06247427378912
 30
0
 10
539.4626350690605
 20
-99.05751580305241
 30
0
 10
539.4685599081167
 20
-99.05558828452104
 30
0
  0
SPLINE
  5
D7
100
AcDbEntity
  8
0
  6
CONTINUOUS
 62
    7
370
   25
100
AcDbSpline
210
0
220
0
230
0
 70
    8
 71
    3
 72
   20
 73
   16
 74
    0
 42
1e-07
 43
1e-07
 40
0
 40
0
 40
0
 40
0
 40
0.0508235668364456
 40
0.1133682517302611
 40
0.2087727275069928
 40
0.2878021491958449
 40
0.3689484473727624
 40
0.4528165259909065
 40
0.5385425354930493
 40
0.604451747550924
 40
0.6718754185038072
 40
0.7741584024661325
 40
0.8596302247777097
 40
0.9454337118451162
 40
1
 40
1
 40
1
 40
1
 10
1016.400354134814
 20
-99.03115833668016
 30
0
 10
1016.457300635347
 20
-99.04145366275134
 30
0
 10
1016.584326847977
 20
-99.06441866089062
 30
0
 10
1017.745347180486
 20
-99.26819572432032
 30
0
 10
1019.606149050566
 20
-99.56618133586198
 30
0
 10
1021.930330437629
 20
-99.87844407252214
 30
0
 10
1024.306343136118
 20
-100.1290482831801
 30
0
 10
1026.85146164278
 20
-100.3054557539199
 30
0
 10
1029.296736563282
 20
-100.3648685555663
 30
0
 10
1031.569836152776
 20
-100.3099584575657
 30
0
 10
1033.957457330168
 20
-100.1391066342658
 30
0
 10
1036.380826696315
 20
-99.79470869217766
 30
0
 10
1038.373856833304
 20
-99.35954362967277
 30
0
 10
1039.447393637863
 20
-99.06247427378912
 30
0
 10
1039.462635069061
 20
-99.05751580305241
 30
0
 10
1039.468559908117
 20
-99.05558828452104
 30
0
  0
SPLINE
  5
D8
100
AcDbEntity
  8
0
  6
CONTINUOUS
 62
    7
370
   25
100
AcDbSpline
210
0
220
0
230
0
 70
    8
 71
    3
 72
   20
 73
   16
 74
    0
 42
1e-07
 43
1e-07
 40
0
 40
0
 40
0
 40
0
 40
0.0508235668364446
 40
0.113368251730261
 40
0.2087727275069906
 40
0.2878021491958458
 40
0.3689484473727681
 40
0.4528165259909138
 40
0.5385425354930564
 40
0.6044517475509267
 40
0.6718754185038107
 40
0.7741584024661337
 40
0.8596302247777122
 40
0.9454337118451202
 40
1
 40
1
 40
1
 40
1
 10
1516.400354134814
 20
-99.03115833668016
 30
0
 10
1516.457300635347
 20
-99.04145366275134
 30
0
 10
1516.584326847978
 20
-99.06441866089062
 30
0
 10
1517.745347180486
 20
-99.26819572432032
 30
0
 10
1519.606149050566
 20
-99.56618133586198
 30
0
 10
1521.93033043763
 20
-99.87844407252214
 30
0
 10
1524.306343136118
 20
-100.1290482831801
 30
0
 10
1526.851461642781
 20
-100.3054557539199
 30
0
 10
1529.296736563281
 20
-100.3648685555663
 30
0
 10
1531.569836152776
 20
-100.3099584575657
 30
0
 10
1533.957457330168
 20
-100.1391066342658
 30
0
 10
1536.380826696315
 20
-99.79470869217766
 30
0
 10
1538.373856833304
 20
-99.35954362967277
 30
0
 10
1539.447393637863
 20
-99.0624742737873
 30
0
 10
1539.46263506906
 20
-99.05751580305241
 30
0
 10
1539.468559908118
 20
-99.05558828452104
 30
0
  0
SPLINE
  5
D9
100
AcDbEntity
  8
0
  6
CONTINUOUS
 62
    7
370
   25
100
AcDbSpline
210
0
220
0
230
0
 70
    8
 71
    3
 72
   21
 73
   17
 74
    0
 42
1e-07
 43
1e-07
 40
0
 40
0
 40
0
 40
0
 40
0.0232192855848748
 40
0.097977243051797
 40
0.1736091565533494
 40
0.2539972651745637
 40
0.3666470884796907
 40
0.4433968784622384
 40
0.5223033192645253
 40
0.6019468967660883
 40
0.6831313973339105
 40
0.7477594123741571
 40
0.8136015216887403
 40
0.8934350974121265
 40
0.9526672813478716
 40
1
 40
1
 40
1
 40
1
 10
68.78739117437362
 20
-99.05558828452104
 30
0
 10
68.76249648620387
 20
-99.04850717965928
 30
0
 10
68.65744963174575
 20
-99.01862740022443
 30
0
 10
69.26539319848098
 20
-99.19351429432118
 30
0
 10
70.55845792274476
 20
-99.51715469577903
 30
0
 10
72.76826698680088
 20
-99.94735742706416
 30
0
 10
75.43587352362101
 20
-100.2507023037651
 30
0
 10
78.20886341736605
 20
-100.3614019978586
 30
0
 10
80.65817369098204
 20
-100.3340541051066
 30
0
 10
83.11429117153466
 20
-100.1971112177198
 30
0
 10
85.34938053368978
 20
-99.98812289636135
 30
0
 10
87.34030651529883
 20
-99.74607322796055
 30
0
 10
89.17934613973375
 20
-99.48303414904876
 30
0
 10
90.71010787636897
 20
-99.23356212172075
 30
0
 10
91.69566076140882
 20
-99.06005154195191
 30
0
 10
91.8064070092878
 20
-99.04004472456018
 30
0
 10
91.85559694767562
 20
-99.03115833668016
 30
0
  0
SPLINE
  5
DA
100
AcDbEntity
  8
0
  6
CONTINUOUS
 62
    7
370
   25
100
AcDbSpline
210
0
220
0
230
0
 70
    8
 71
    3
 72
   21
 73
   17
 74
    0
 42
1e-07
 43
1e-07
 40
0
 40
0
 40
0
 40
0
 40
0.0232192855848753
 40
0.097977243051798
 40
0.1736091565533511
 40
0.2539972651745648
 40
0.3666470884796936
 40
0.4433968784622457
 40
0.5223033192645333
 40
0.6019468967660973
 40
0.6831313973339199
 40
0.7477594123741655
 40
0.8136015216887437
 40
0.893435097412131
 40
0.9526672813478748
 40
1
 40
1
 40
1
 40
1
 10
568.7873911743736
 20
-99.05558828452104
 30
0
 10
568.7624964862034
 20
-99.04850717965928
 30
0
 10
568.6574496317462
 20
-99.01862740022443
 30
0
 10
569.2653931984814
 20
-99.19351429432118
 30
0
 10
570.5584579227452
 20
-99.51715469577903
 30
0
 10
572.7682669868009
 20
-99.94735742706416
 30
0
 10
575.4358735236219
 20
-100.2507023037651
 30
0
 10
578.208863417366
 20
-100.3614019978586
 30
0
 10
580.658173690982
 20
-100.3340541051066
 30
0
 10
583.1142911715342
 20
-100.1971112177198
 30
0
 10
585.3493805336911
 20
-99.98812289636135
 30
0
 10
587.3403065152997
 20
-99.74607322795964
 30
0
 10
589.1793461397347
 20
-99.48303414904876
 30
0
 10
590.710107876369
 20
-99.23356212172075
 30
0
 10
591.6956607614093
 20
-99.06005154195191
 30
0
 10
591.8064070092878
 20
-99.04004472456018
 30
0
 10
591.8555969476765
 20
-99.03115833668016
 30
0
  0
SPLINE
  5
DB
100
AcDbEntity
  8
0
  6
CONTINUOUS
 62
    7
370
   25
100
AcDbSpline
210
0
220
0
230
0
 70
    8
 71
    3
 72
   21
 73
   17
 74
    0
 42
1e-07
 43
1e-07
 40
0
 40
0
 40
0
 40
0
 40
0.0232192855848739
 40
0.0979772430517956
 40
0.1736091565533487
 40
0.2539972651745611
 40
0.36664708847969
 40
0.4433968784622392
 40
0.5223033192645276
 40
0.6019468967660903
 40
0.6831313973339124
 40
0.7477594123741594
 40
0.8136015216887433
 40
0.8934350974121267
 40
0.9526672813478733
 40
0.9999999999999999
 40
0.9999999999999999
 40
0.9999999999999999
 40
0.9999999999999999
 10
1068.787391174374
 20
-99.05558828452104
 30
0
 10
1068.762496486203
 20
-99.04850717965928
 30
0
 10
1068.657449631746
 20
-99.01862740022443
 30
0
 10
1069.265393198481
 20
-99.19351429432118
 30
0
 10
1070.558457922743
 20
-99.51715469577903
 30
0
 10
1072.768266986801
 20
-99.94735742706416
 30
0
 10
1075.435873523622
 20
-100.2507023037651
 30
0
 10
1078.208863417366
 20
-100.3614019978586
 30
0
 10
1080.658173690982
 20
-100.3340541051066
 30
0
 10
1083.114291171534
 20
-100.1971112177198
 30
0
 10
1085.349380533691
 20
-99.98812289636135
 30
0
 10
1087.3403065153
 20
-99.74607322795964
 30
0
 10
1089.179346139735
 20
-99.48303414904876
 30
0
 10
1090.710107876369
 20
-99.23356212172075
 30
0
 10
1091.695660761409
 20
-99.06005154195191
 30
0
 10
1091.806407009289
 20
-99.04004472456018
 30
0
 10
1091.855596947677
 20
-99.03115833668016
 30
0
  0
SPLINE
  5
DC
100
AcDbEntity
  8
0
  6
CONTINUOUS
 62
    7
370
   25
100
AcDbSpline
210
0
220
0
230
0
 70
    8
 71
    3
 72
   21
 73
   17
 74
    0
 42
1e-07
 43
1e-07
 40
0
 40
0
 40
0
 40
0
 40
0.0232192855848765
 40
0.097977243051798
 40
0.1736091565533505
 40
0.2539972651745647
 40
0.3666470884796913
 40
0.4433968784622387
 40
0.5223033192645253
 40
0.601946896766088
 40
0.6831313973339102
 40
0.7477594123741566
 40
0.8136015216887397
 40
0.8934350974121255
 40
0.9526672813478705
 40
0.9999999999999999
 40
0.9999999999999999
 40
0.9999999999999999
 40
0.9999999999999999
 10
1568.787391174374
 20
-99.05558828452104
 30
0
 10
1568.762496486203
 20
-99.04850717965928
 30
0
 10
1568.657449631744
 20
-99.01862740022443
 30
0
 10
1569.265393198481
 20
-99.19351429432118
 30
0
 10
1570.558457922745
 20
-99.51715469577903
 30
0
 10
1572.768266986802
 20
-99.94735742706416
 30
0
 10
1575.435873523622
 20
-100.2507023037651
 30
0
 10
1578.208863417365
 20
-100.3614019978586
 30
0
 10
1580.658173690982
 20
-100.3340541051066
 30
0
 10
1583.114291171535
 20
-100.1971112177198
 30
0
 10
1585.34938053369
 20
-99.98812289636135
 30
0
 10
1587.340306515299
 20
-99.74607322796055
 30
0
 10
1589.179346139735
 20
-99.48303414904876
 30
0
 10
1590.710107876369
 20
-99.23356212172075
 30
0
 10
1591.695660761409
 20
-99.06005154195191
 30
0
 10
1591.806407009288
 20
-99.04004472456018
 30
0
 10
1591.855596947677
 20
-99.03115833668016
 30
0
  0
SPLINE
  5
DD
100
AcDbEntity
  8
0
  6
CONTINUOUS
 62
    7
370
   25
100
AcDbSpline
210
0
220
0
230
0
 70
    8
 71
    3
 72
   20
 73
   16
 74
    0
 42
1e-07
 43
1e-07
 40
0
 40
0
 40
0
 40
0
 40
0.07263988290819511
 40
0.1448048077563075
 40
0.2549098596574896
 40
0.3303619511191273
 40
0.4079721722097479
 40
0.4844418633354834
 40
0.5632548781408426
 40
0.6765191580074568
 40
0.7326877428981612
 40
0.7910341044270536
 40
0.8893389164143076
 40
0.9800344831507541
 40
1
 40
1
 40
1
 40
1
 10
1955.284440759532
 20
-99.03115833668016
 30
0
 10
1955.365403825005
 20
-99.04871271324464
 30
0
 10
1955.526800576509
 20
-99.08370668655607
 30
0
 10
1956.840168144072
 20
-99.35448488315797
 30
0
 10
1958.695152373579
 20
-99.69199013772595
 30
0
 10
1960.897365730625
 20
-100.0069415736598
 30
0
 10
1962.96014853
 20
-100.2227054250079
 30
0
 10
1965.145770902019
 20
-100.3487385125509
 30
0
 10
1967.706633380026
 20
-100.3553111040364
 30
0
 10
1970.043865201991
 20
-100.1698816489388
 30
0
 10
1971.937898466794
 20
-99.87528171598842
 30
0
 10
1973.493823117951
 20
-99.55376049507413
 30
0
 10
1974.758562658248
 20
-99.20883358824813
 30
0
 10
1975.386551219744
 20
-99.0087113757163
 30
0
 10
1975.265300238424
 20
-99.04655896987879
 30
0
 10
1975.243424088
 20
-99.05338744791788
 30
0
  0
SPLINE
  5
DE
100
AcDbEntity
  8
0
  6
CONTINUOUS
 62
    7
370
   25
100
AcDbSpline
210
0
220
0
230
0
 70
    8
 71
    3
 72
   18
 73
   14
 74
    0
 42
1e-07
 43
1e-07
 40
0
 40
0
 40
0
 40
0
 40
0.0292088327245419
 40
0.1311656720357135
 40
0.2344432179664842
 40
0.3422205214593469
 40
0.4512560818873285
 40
0.5557009132537875
 40
0.656975339254333
 40
0.7612975820603913
 40
0.8701594031442144
 40
0.9781880356053061
 40
1
 40
1
 40
1
 40
1
 10
-403.7829117961992
 20
-99.05938685170076
 30
0
 10
-403.8093294495334
 20
-99.05102705242007
 30
0
 10
-403.9279610047802
 20
-99.01348639816115
 30
0
 10
-403.2786715048342
 20
-99.22149049469044
 30
0
 10
-401.8918814153863
 20
-99.61194130387685
 30
0
 10
-399.7555599480211
 20
-100.0695859343041
 30
0
 10
-397.1665328829981
 20
-100.3623524136419
 30
0
 10
-394.466733070527
 20
-100.3515550358543
 30
0
 10
-391.9848817435932
 20
-100.0649986097205
 30
0
 10
-389.8735738398091
 20
-99.61849562017051
 30
0
 10
-388.4426713428543
 20
-99.21528470183512
 30
0
 10
-387.7905116742122
 20
-99.00541040433018
 30
0
 10
-387.920887527061
 20
-99.04660971068552
 30
0
 10
-387.9427894092851
 20
-99.05353079565339
 30
0
  0
SPLINE
  5
DF
100
AcDbEntity
  8
0
  6
CONTINUOUS
 62
    7
370
   25
100
AcDbSpline
210
0
220
0
230
0
 70
    8
 71
    3
 72
   18
 73
   14
 74
    0
 42
1e-07
 43
1e-07
 40
0
 40
0
 40
0
 40
0
 40
0.0292088327245419
 40
0.1311656720357135
 40
0.2344432179664842
 40
0.3422205214593469
 40
0.4512560818873285
 40
0.5557009132537875
 40
0.656975339254333
 40
0.7612975820603913
 40
0.8701594031442144
 40
0.9781880356053061
 40
1
 40
1
 40
1
 40
1
 10
1996.2170882038
 20
-99.05938685170076
 30
0
 10
1996.190670550467
 20
-99.05102705242007
 30
0
 10
1996.072038995221
 20
-99.01348639816115
 30
0
 10
1996.721328495166
 20
-99.22149049469044
 30
0
 10
1998.108118584614
 20
-99.61194130387685
 30
0
 10
2000.244440051979
 20
-100.0695859343041
 30
0
 10
2002.833467117001
 20
-100.3623524136419
 30
0
 10
2005.533266929474
 20
-100.3515550358543
 30
0
 10
2008.015118256407
 20
-100.0649986097205
 30
0
 10
2010.126426160191
 20
-99.61849562017051
 30
0
 10
2011.557328657145
 20
-99.21528470183512
 30
0
 10
2012.209488325788
 20
-99.00541040433018
 30
0
 10
2012.079112472939
 20
-99.04660971068552
 30
0
 10
2012.057210590714
 20
-99.05353079565339
 30
0
  0
LINE
  5
E0
100
AcDbEntity
  8
0
  6
CONTINUOUS
 62
    7
370
   25
100
AcDbLine
 10
2054.127975541244
 20
-99.03115833668016
 11
2054.127975541244
 21
-149.0311583366802
  0
SPLINE
  5
E1
100
AcDbEntity
  8
0
  6
CONTINUOUS
 62
    7
370
   25
100
AcDbSpline
210
0
220
0
230
0
 70
    8
 71
    3
 72
   18
 73
   14
 74
    0
 42
1e-07
 43
1e-07
 40
0
 40
0
 40
0
 40
0
 40
0.0550892648092482
 40
0.118173454245873
 40
0.2163425647558546
 40
0.2860441929645459
 40
0.3577049510323393
 40
0.5026852031031696
 40
0.6282659376076968
 40
0.7320193716086885
 40
0.8362185330063763
 40
0.9298695242049878
 40
1
 40
1
 40
1
 40
1
 10
-347.068905061717
 20
-99.03976798719395
 30
0
 10
-347.0985927450961
 20
-99.04622047561134
 30
0
 10
-347.1622765881402
 20
-99.06006188096217
 30
0
 10
-348.1060024914032
 20
-99.25793660511317
 30
0
 10
-349.6114038882911
 20
-99.54672153320007
 30
0
 10
-351.501527927313
 20
-99.85041299358818
 30
0
 10
-353.9666202702024
 20
-100.1690871479213
 30
0
 10
-357.1904313922792
 20
-100.4026195662391
 30
0
 10
-360.7870620777962
 20
-100.2933980069638
 30
0
 10
-363.7269293035451
 20
-99.89441151174105
 30
0
 10
-365.7867785793474
 20
-99.41709300409457
 30
0
 10
-366.8926099598762
 20
-99.08446976140476
 30
0
 10
-367.0088724204152
 20
-99.04714193946984
 30
0
 10
-367.0586554747761
 20
-99.03115833668016
 30
0
  0
LINE
  5
E2
100
AcDbEntity
  8
0
  6
CONTINUOUS
 62
    7
370
   25
100
AcDbLine
 10
-445.8720244587553
 20
-99.03115833668016
 11
-445.8720244587553
 21
-149.0311583366802
  0
ENDBLK
  5
52
330
50
100
AcDbEntity
  8
0
100
AcDbBlockEnd
  0
BLOCK
  5
54
330
53
100
AcDbEntity
  8
0
100
AcDbBlockBegin
  2
SZ290_1000
 70
    0
 10
0
 20
0
  3
SZ290_1000
  1

  0
LINE
  5
E3
100
AcDbEntity
  8
0
  6
CONTINUOUS
 62
    7
370
   25
100
AcDbLine
 10
0.4579108873374452
 20
0.2390000000000009
 11
0.5
 21
0.2390000000000009
  0
LINE
  5
E4
100
AcDbEntity
  8
0
  6
CONTINUOUS
 62
    7
370
   25
100
AcDbLine
 10
0.2788031193970382
 20
0.2390000000000009
 11
0.442070764950532
 21
0.2390000000000009
  0
LINE
  5
E5
100
AcDbEntity
  8
0
  6
CONTINUOUS
 62
    7
370
   25
100
AcDbLine
 10
0.2354263661763039
 20
0.2390000000000009
 11
0.2588133689839782
 21
0.2390000000000009
  0
LINE
  5
E6
100
AcDbEntity
  8
0
  6
CONTINUOUS
 62
    7
370
   25
100
AcDbLine
 10
-0.2123067004097348
 20
0.2390000000000009
 11
0.2123067004097361
 21
0.2390000000000009
  0
LINE
  5
E7
100
AcDbEntity
  8
0
  6
CONTINUOUS
 62
    7
370
   25
100
AcDbLine
 10
-0.2588845514532441
 20
0.2390000000000009
 11
-0.2354263661763039
 21
0.2390000000000009
  0
LINE
  5
E8
100
AcDbEntity
  8
0
  6
CONTINUOUS
 62
    7
370
   25
100
AcDbLine
 10
-0.4420891126625539
 20
0.2390000000000009
 11
-0.2788435347817131
 21
0.2390000000000009
  0
LINE
  5
E9
100
AcDbEntity
  8
0
  6
CONTINUOUS
 62
    7
370
   25
100
AcDbLine
 10
-0.5
 20
0.2390000000000009
 11
-0.4579292350494679
 21
0.2390000000000009
  0
LINE
  5
EA
100
AcDbEntity
  8
0
  6
CONTINUOUS
 62
    7
370
   25
100
AcDbLine
 10
0.5
 20
0.2890000000000018
 11
-0.5
 21
0.2890000000000018
  0
LINE
  5
EB
100
AcDbEntity
  8
0
  6
CONTINUOUS
 62
    7
370
   25
100
AcDbLine
 10
-0.5
 20
0
 11
0.5
 21
0
  0
LINE
  5
EC
100
AcDbEntity
  8
0
  6
CONTINUOUS
 62
    7
370
   25
100
AcDbLine
 10
-0.4579108873374449
 20
0.05000000000000179
 11
-0.5
 21
0.05000000000000179
  0
LINE
  5
ED
100
AcDbEntity
  8
0
  6
CONTINUOUS
 62
    7
370
   25
100
AcDbLine
 10
-0.4211866310160208
 20
0.05000000000000179
 11
-0.4420707649505298
 21
0.05000000000000179
  0
LINE
  5
EE
100
AcDbEntity
  8
0
  6
CONTINUOUS
 62
    7
370
   25
100
AcDbLine
 10
-0.03772762140643104
 20
0.05000000000000179
 11
-0.4011968806029609
 21
0.05000000000000179
  0
LINE
  5
EF
100
AcDbEntity
  8
0
  6
CONTINUOUS
 62
    7
370
   25
100
AcDbLine
 10
0.01465941563312878
 20
0.05000000000000179
 11
-0.01465941563312811
 21
0.05000000000000179
  0
LINE
  5
F0
100
AcDbEntity
  8
0
  6
CONTINUOUS
 62
    7
370
   25
100
AcDbLine
 10
0.4011564652182869
 20
0.05000000000000179
 11
0.03772762140643082
 21
0.05000000000000179
  0
LINE
  5
F1
100
AcDbEntity
  8
0
  6
CONTINUOUS
 62
    7
370
   25
100
AcDbLine
 10
0.4420891126625551
 20
0.05000000000000179
 11
0.4211154485467559
 21
0.05000000000000179
  0
LINE
  5
F2
100
AcDbEntity
  8
0
  6
CONTINUOUS
 62
    7
370
   25
100
AcDbLine
 10
0.5
 20
0.05000000000000179
 11
0.4579292350494693
 21
0.05000000000000179
  0
LINE
  5
F3
100
AcDbEntity
  8
0
  6
CONTINUOUS
 62
    7
370
   25
100
AcDbLine
 10
-0.4011751208324468
 20
0.04997522949008815
 11
-0.258828343338529
 21
0.23898011738479
  0
LINE
  5
F4
100
AcDbEntity
  8
0
  6
CONTINUOUS
 62
    7
370
   25
100
AcDbLine
 10
-0.2788435347817131
 20
0.2390000000000009
 11
-0.4211866310160208
 21
0.05000000000000179
  0
LINE
  5
F5
100
AcDbEntity
  8
0
  6
CONTINUOUS
 62
    7
370
   25
100
AcDbLine
 10
-0.4420000000000002
 20
0.04997780752843298
 11
-0.4420000000000002
 21
0.2390280853254116
  0
LINE
  5
F6
100
AcDbEntity
  8
0
  6
CONTINUOUS
 62
    7
370
   25
100
AcDbLine
 10
-0.4580000000000002
 20
0.2390221924715697
 11
-0.4580000000000002
 21
0.04997191467459011
  0
LINE
  5
F7
100
AcDbEntity
  8
0
  6
CONTINUOUS
 62
    7
370
   25
100
AcDbLine
 10
-0.01460613974495217
 20
0.05003107566072318
 11
-0.2122932888408129
 21
0.2390199901963651
  0
LINE
  5
F8
100
AcDbEntity
  8
0
  6
CONTINUOUS
 62
    7
370
   25
100
AcDbLine
 10
-0.2354263661763039
 20
0.2390000000000009
 11
-0.03772762140643104
 21
0.05000000000000179
  0
LINE
  5
F9
100
AcDbEntity
  8
0
  6
CONTINUOUS
 62
    7
370
   25
100
AcDbLine
 10
0.212293288840814
 20
0.2390199901963651
 11
0.01460613974495306
 21
0.05003107566072318
  0
LINE
  5
FA
100
AcDbEntity
  8
0
  6
CONTINUOUS
 62
    7
370
   25
100
AcDbLine
 10
0.03772762140643082
 20
0.05000000000000179
 11
0.2354263661763039
 21
0.2390000000000009
  0
LINE
  5
FB
100
AcDbEntity
  8
0
  6
CONTINUOUS
 62
    7
370
   25
100
AcDbLine
 10
0.4211716566614699
 20
0.0500198826152127
 11
0.2788248791675518
 21
0.2390247705099136
  0
LINE
  5
FC
100
AcDbEntity
  8
0
  6
CONTINUOUS
 62
    7
370
   25
100
AcDbLine
 10
0.2588133689839782
 20
0.2390000000000009
 11
0.4011564652182869
 21
0.05000000000000179
  0
LINE
  5
FD
100
AcDbEntity
  8
0
  6
CONTINUOUS
 62
    7
370
   25
100
AcDbLine
 10
0.458
 20
0.04997780752843298
 11
0.458
 21
0.2390280853254116
  0
LINE
  5
FE
100
AcDbEntity
  8
0
  6
CONTINUOUS
 62
    7
370
   25
100
AcDbLine
 10
0.4419999999999999
 20
0.2390221924715697
 11
0.4419999999999999
 21
0.04997191467459011
  0
LINE
  5
FF
100
AcDbEntity
  8
0
  6
CONTINUOUS
 62
    7
370
   25
100
AcDbLine
 10
-0.4211716566614692
 20
0.23898011738479
 11
-0.350015082898866
 21
0.1445000000000009
  0
LINE
  5
100
100
AcDbEntity
  8
0
  6
CONTINUOUS
 62
    7
370
   25
100
AcDbLine
 10
-0.3399999999999992
 20
0.1312021954842812
 11
-0.2788435347817118
 21
0.05000000000000179
  0
LINE
  5
101
100
AcDbEntity
  8
0
  6
CONTINUOUS
 62
    7
370
   25
100
AcDbLine
 10
-0.2588133689839771
 20
0.05000000000000179
 11
-0.3299849171011311
 21
0.1445000000000009
  0
LINE
  5
102
100
AcDbEntity
  8
0
  6
CONTINUOUS
 62
    7
370
   25
100
AcDbLine
 10
-0.3399999999999992
 20
0.1577978045157196
 11
-0.401156465218286
 21
0.2390000000000009
  0
LINE
  5
103
100
AcDbEntity
  8
0
  6
CONTINUOUS
 62
    7
370
   25
100
AcDbLine
 10
-0.03772762140643104
 20
0.2390000000000009
 11
-0.125
 21
0.1555676060645483
  0
LINE
  5
104
100
AcDbEntity
  8
0
  6
CONTINUOUS
 62
    7
370
   25
100
AcDbLine
 10
-0.136576993791367
 20
0.1445000000000018
 11
-0.2353938602550487
 21
0.05003107566072318
  0
LINE
  5
105
100
AcDbEntity
  8
0
  6
CONTINUOUS
 62
    7
370
   25
100
AcDbLine
 10
-0.212272378593571
 20
0.05000000000000179
 11
-0.125
 21
0.1334323939354544
  0
LINE
  5
106
100
AcDbEntity
  8
0
  6
CONTINUOUS
 62
    7
370
   25
100
AcDbLine
 10
-0.1134230062086332
 20
0.1445000000000018
 11
-0.01457363382369792
 21
0.2390000000000009
  0
LINE
  5
107
100
AcDbEntity
  8
0
  6
CONTINUOUS
 62
    7
370
   25
100
AcDbLine
 10
0.2353938602550494
 20
0.05003107566072318
 11
0.1365769937913692
 21
0.1445000000000009
  0
LINE
  5
108
100
AcDbEntity
  8
0
  6
CONTINUOUS
 62
    7
370
   25
100
AcDbLine
 10
0.1250000000000022
 20
0.1555676060645483
 11
0.03772762140643326
 21
0.2390000000000009
  0
LINE
  5
109
100
AcDbEntity
  8
0
  6
CONTINUOUS
 62
    7
370
   25
100
AcDbLine
 10
0.01457363382369792
 20
0.2390000000000009
 11
0.1134230062086341
 21
0.1445000000000009
  0
LINE
  5
10A
100
AcDbEntity
  8
0
  6
CONTINUOUS
 62
    7
370
   25
100
AcDbLine
 10
0.1250000000000022
 20
0.1334323939354535
 11
0.212272378593571
 21
0.05000000000000179
  0
LINE
  5
10B
100
AcDbEntity
  8
0
  6
CONTINUOUS
 62
    7
370
   25
100
AcDbLine
 10
0.401156465218286
 20
0.2390000000000009
 11
0.3399999999999999
 21
0.1577978045157206
  0
LINE
  5
10C
100
AcDbEntity
  8
0
  6
CONTINUOUS
 62
    7
370
   25
100
AcDbLine
 10
0.329984917101132
 20
0.1445000000000018
 11
0.258828343338529
 21
0.0500198826152127
  0
LINE
  5
10D
100
AcDbEntity
  8
0
  6
CONTINUOUS
 62
    7
370
   25
100
AcDbLine
 10
0.2788435347817129
 20
0.05000000000000179
 11
0.3399999999999999
 21
0.1312021954842839
  0
LINE
  5
10E
100
AcDbEntity
  8
0
  6
CONTINUOUS
 62
    7
370
   25
100
AcDbLine
 10
0.350015082898868
 20
0.1445000000000018
 11
0.4211866310160222
 21
0.2390000000000009
  0
SPLINE
  5
10F
100
AcDbEntity
  8
0
  6
CONTINUOUS
 62
    7
370
   25
100
AcDbSpline
210
0
220
0
230
0
 70
    8
 71
    3
 72
   20
 73
   16
 74
    0
 42
1e-07
 43
1e-07
 40
0
 40
0
 40
0
 40
0
 40
0.042744303121731
 40
0.09158162215873721
 40
0.1739798367711488
 40
0.24183302499214
 40
0.3114661383082761
 40
0.4077500509887918
 40
0.5068305556065417
 40
0.5778561606803622
 40
0.6505538644507852
 40
0.7568563392005909
 40
0.8445922610006014
 40
0.9327212866881002
 40
1
 40
1
 40
1
 40
1
 10
-0.2123067004097348
 20
0.2390061374052938
 30
0
 10
-0.2123324859170039
 20
0.2390108121157482
 30
0
 10
-0.212387732544306
 20
0.2390208278964519
 30
0
 10
-0.213219788936438
 20
0.2391679859463975
 30
0
 10
-0.2146392774922001
 20
0.2394039840174527
 30
0
 10
-0.2165293445483358
 20
0.2396807859890132
 30
0
 10
-0.218712967617309
 20
0.2399526384955779
 30
0
 10
-0.2213457459457251
 20
0.2401977614754141
 30
0
 10
-0.2240939133571689
 20
0.2403246612890625
 30
0
 10
-0.226620405798251
 20
0.24031248291474
 30
0
 10
-0.2291853997841091
 20
0.240174692151214
 30
0
 10
-0.2317837311790518
 20
0.2398480571365889
 30
0
 10
-0.2339816357605677
 20
0.2393948166838572
 30
0
 10
-0.235226376538304
 20
0.2390586790266461
 30
0
 10
-0.2353659446940779
 20
0.239017728287331
 30
0
 10
-0.2354263661763039
 20
0.2390000000000009
 30
0
  0
SPLINE
  5
110
100
AcDbEntity
  8
0
  6
CONTINUOUS
 62
    7
370
   25
100
AcDbSpline
210
0
220
0
230
0
 70
    8
 71
    3
 72
   21
 73
   17
 74
    0
 42
1e-07
 43
1e-07
 40
0
 40
0
 40
0
 40
0
 40
0.07635609485055959
 40
0.1526233304346808
 40
0.2311859344743334
 40
0.3187083408941933
 40
0.3860675326644394
 40
0.455337622255135
 40
0.5474182410967631
 40
0.6421330772686648
 40
0.7191299328331445
 40
0.7979005781886689
 40
0.8779080641245685
 40
0.9423517719175034
 40
0.9924775117013942
 40
1
 40
1
 40
1
 40
1
 10
0.2354263661763039
 20
0.2390000000000009
 30
0
 10
0.23534912086062
 20
0.2390228117174738
 30
0
 10
0.2351947201233471
 20
0.2390684086053252
 30
0
 10
0.2339906788115609
 20
0.2393884091147074
 30
0
 10
0.2321593227508678
 20
0.2397740681889454
 30
0
 10
0.2299673312704789
 20
0.240087412593145
 30
0
 10
0.2277057984297588
 20
0.24026646928434
 30
0
 10
0.2253336129935009
 20
0.2403364503768234
 30
0
 10
0.222670230490412
 20
0.2402760236887343
 30
0
 10
0.2199946023792649
 20
0.2400824204211749
 30
0
 10
0.217568277634381
 20
0.2398180275293898
 30
0
 10
0.2154475165642988
 20
0.2395287216967008
 30
0
 10
0.2136715320890388
 20
0.2392453811355535
 30
0
 10
0.2126222655643619
 20
0.2390629969985475
 30
0
 10
0.2122112819051041
 20
0.2389890778346325
 30
0
 10
0.2122956864969792
 20
0.2390041682628962
 30
0
 10
0.2123067004097361
 20
0.2390061374052938
 30
0
  0
SPLINE
  5
111
100
AcDbEntity
  8
0
  6
CONTINUOUS
 62
    7
370
   25
100
AcDbSpline
210
0
220
0
230
0
 70
    8
 71
    3
 72
   18
 73
   14
 74
    0
 42
1e-07
 43
1e-07
 40
0
 40
0
 40
0
 40
0
 40
0.0550892648092675
 40
0.1181734542458909
 40
0.2163425647558726
 40
0.2860441929645679
 40
0.3577049510323625
 40
0.502685203103202
 40
0.6282659376077218
 40
0.7320193716087098
 40
0.8362185330063941
 40
0.9298695242050034
 40
1
 40
1
 40
1
 40
1
 10
0.2788031193970382
 20
0.2390086096505156
 30
0
 10
0.2787734317136592
 20
0.2390150621389311
 30
0
 10
0.2787097478706149
 20
0.2390289035442829
 30
0
 10
0.2777660219673521
 20
0.2392267782684348
 30
0
 10
0.2762606205704641
 20
0.2395155631965208
 30
0
 10
0.2743704965314409
 20
0.2398192546569089
 30
0
 10
0.271905404188552
 20
0.240137928811243
 30
0
 10
0.2686815930664752
 20
0.2403714612295607
 30
0
 10
0.2650849623809581
 20
0.2402622396702854
 30
0
 10
0.26214509515521
 20
0.2398632531750627
 30
0
 10
0.2600852458794078
 20
0.2393859346674153
 30
0
 10
0.2589794144988791
 20
0.2390533114247264
 30
0
 10
0.2588631520383391
 20
0.2390159836027905
 30
0
 10
0.2588133689839782
 20
0.2390000000000009
 30
0
  0
SPLINE
  5
112
100
AcDbEntity
  8
0
  6
CONTINUOUS
 62
    7
370
   25
100
AcDbSpline
210
0
220
0
230
0
 70
    8
 71
    3
 72
   18
 73
   14
 74
    0
 42
1e-07
 43
1e-07
 40
0
 40
0
 40
0
 40
0
 40
0.0292088327245433
 40
0.1311656720357137
 40
0.2344432179664842
 40
0.3422205214593474
 40
0.4512560818873329
 40
0.5557009132537915
 40
0.6569753392543343
 40
0.7612975820603858
 40
0.8701594031442134
 40
0.9781880356053013
 40
1
 40
1
 40
1
 40
1
 10
-0.4420891126625539
 20
0.2390282285150215
 30
0
 10
-0.4420626950092219
 20
0.2390198687157408
 30
0
 10
-0.4419440634539753
 20
0.2389823280614828
 30
0
 10
-0.4425933529539212
 20
0.239190332158013
 30
0
 10
-0.443980143043369
 20
0.2395807829671985
 30
0
 10
-0.4461164645107329
 20
0.2400384275976257
 30
0
 10
-0.4487054915757549
 20
0.2403311940769626
 30
0
 10
-0.4514052913882272
 20
0.2403203966991768
 30
0
 10
-0.4538871427151623
 20
0.2400338402730422
 30
0
 10
-0.4559984506189458
 20
0.2395873372834912
 30
0
 10
-0.4574293531159002
 20
0.2391841263651567
 30
0
 10
-0.4580815127845432
 20
0.2389742520676509
 30
0
 10
-0.4579511369316931
 20
0.2390154513740062
 30
0
 10
-0.4579292350494679
 20
0.2390223724589741
 30
0
  0
SPLINE
  5
113
100
AcDbEntity
  8
0
  6
CONTINUOUS
 62
    7
370
   25
100
AcDbSpline
210
0
220
0
230
0
 70
    8
 71
    3
 72
   18
 73
   14
 74
    0
 42
1e-07
 43
1e-07
 40
0
 40
0
 40
0
 40
0
 40
0.0292088327245431
 40
0.1311656720357136
 40
0.234443217966484
 40
0.3422205214593472
 40
0.4512560818873326
 40
0.5557009132537911
 40
0.6569753392543338
 40
0.7612975820603853
 40
0.870159403144213
 40
0.9781880356053008
 40
1
 40
1
 40
1
 40
1
 10
0.4579108873374452
 20
0.2390282285150215
 30
0
 10
0.457937304990778
 20
0.2390198687157408
 30
0
 10
0.4580559365460239
 20
0.2389823280614828
 30
0
 10
0.4574066470460788
 20
0.239190332158013
 30
0
 10
0.4560198569566309
 20
0.2395807829671985
 30
0
 10
0.4538835354892671
 20
0.2400384275976257
 30
0
 10
0.4512945084242441
 20
0.2403311940769626
 30
0
 10
0.448594708611773
 20
0.2403203966991768
 30
0
 10
0.4461128572848378
 20
0.2400338402730422
 30
0
 10
0.4440015493810542
 20
0.2395873372834912
 30
0
 10
0.4425706468840999
 20
0.2391841263651567
 30
0
 10
0.4419184872154569
 20
0.2389742520676509
 30
0
 10
0.442048863068307
 20
0.2390154513740062
 30
0
 10
0.4420707649505311
 20
0.2390223724589741
 30
0
  0
LINE
  5
114
100
AcDbEntity
  8
0
  6
CONTINUOUS
 62
    7
370
   25
100
AcDbLine
 10
0.5
 20
0.2890000000000018
 11
0.5
 21
0.2390000000000009
  0
SPLINE
  5
115
100
AcDbEntity
  8
0
  6
CONTINUOUS
 62
    7
370
   25
100
AcDbSpline
210
0
220
0
230
0
 70
    8
 71
    3
 72
   20
 73
   16
 74
    0
 42
1e-07
 43
1e-07
 40
0
 40
0
 40
0
 40
0
 40
0.07263988290819361
 40
0.1448048077563038
 40
0.2549098596574927
 40
0.3303619511191353
 40
0.4079721722097575
 40
0.4844418633355003
 40
0.5632548781408577
 40
0.676519158007459
 40
0.7326877428981553
 40
0.7910341044270476
 40
0.8893389164142904
 40
0.9800344831507318
 40
1
 40
1
 40
1
 40
1
 10
-0.2788435347817131
 20
0.2390000000000009
 30
0
 10
-0.2787625717162401
 20
0.2390175543765663
 30
0
 10
-0.2786011749647352
 20
0.2390525483498777
 30
0
 10
-0.2772878073971721
 20
0.2393233265464796
 30
0
 10
-0.2754328231676659
 20
0.2396608318010476
 30
0
 10
-0.273230609810617
 20
0.2399757832369814
 30
0
 10
-0.2711678270112439
 20
0.2401915470883304
 30
0
 10
-0.2689822046392261
 20
0.2403175801758734
 30
0
 10
-0.266421342161218
 20
0.240324152767359
 30
0
 10
-0.2640841103392519
 20
0.2401387233122604
 30
0
 10
-0.2621900770744501
 20
0.2398441233793091
 30
0
 10
-0.2606341524232931
 20
0.2395226021583957
 30
0
 10
-0.2593694128829971
 20
0.2391776752515697
 30
0
 10
-0.2587414243214998
 20
0.2389775530390361
 30
0
 10
-0.2588626753028198
 20
0.2390154006332004
 30
0
 10
-0.2588845514532441
 20
0.2390222291112386
 30
0
  0
LINE
  5
116
100
AcDbEntity
  8
0
  6
CONTINUOUS
 62
    7
370
   25
100
AcDbLine
 10
-0.5
 20
0.2890000000000018
 11
-0.5
 21
0.2390000000000009
  0
SPLINE
  5
117
100
AcDbEntity
  8
0
  6
CONTINUOUS
 62
    7
370
   25
100
AcDbSpline
210
0
220
0
230
0
 70
    8
 71
    3
 72
   20
 73
   16
 74
    0
 42
1e-07
 43
1e-07
 40
0
 40
0
 40
0
 40
0
 40
0.0508235668364453
 40
0.1133682517302622
 40
0.2087727275069949
 40
0.2878021491958476
 40
0.3689484473727655
 40
0.4528165259909076
 40
0.5385425354930494
 40
0.6044517475509225
 40
0.6718754185038058
 40
0.774158402466131
 40
0.8596302247777092
 40
0.9454337118451165
 40
1
 40
1
 40
1
 40
1
 10
-0.03772762140643104
 20
0.05000000000000179
 30
0
 10
-0.03767067490589815
 20
0.04998970467392971
 30
0
 10
-0.03754364869326809
 20
0.04996673967579041
 30
0
 10
-0.03638262836076001
 20
0.04976296261235982
 30
0
 10
-0.03452182649067903
 20
0.04946497700081814
 30
0
 10
-0.03219764510361589
 20
0.0491527142641589
 30
0
 10
-0.02982163240512681
 20
0.04890211005350098
 30
0
 10
-0.02727651389846519
 20
0.04872570258276024
 30
0
 10
-0.02483123897796302
 20
0.0486662897811129
 30
0
 10
-0.02255813938846996
 20
0.04872119987911533
 30
0
 10
-0.02017051821107696
 20
0.04889205170241526
 30
0
 10
-0.01774714884493012
 20
0.04923644964450338
 30
0
 10
-0.01575411870794108
 20
0.04967161470700826
 30
0
 10
-0.01468058190338306
 20
0.04996868406289284
 30
0
 10
-0.01466534047218504
 20
0.04997364253362863
 30
0
 10
-0.01465941563312811
 20
0.04997557005215908
 30
0
  0
SPLINE
  5
118
100
AcDbEntity
  8
0
  6
CONTINUOUS
 62
    7
370
   25
100
AcDbSpline
210
0
220
0
230
0
 70
    8
 71
    3
 72
   21
 73
   17
 74
    0
 42
1e-07
 43
1e-07
 40
0
 40
0
 40
0
 40
0
 40
0.0232192855848748
 40
0.0979772430517972
 40
0.1736091565533504
 40
0.2539972651745623
 40
0.3666470884796916
 40
0.4433968784622421
 40
0.5223033192645292
 40
0.6019468967660919
 40
0.6831313973339144
 40
0.7477594123741617
 40
0.8136015216887421
 40
0.893435097412128
 40
0.9526672813478726
 40
1
 40
1
 40
1
 40
1
 10
0.01465941563312878
 20
0.04997557005215908
 30
0
 10
0.01463452094495987
 20
0.04998265115701994
 30
0
 10
0.01452947409050109
 20
0.05001253093645661
 30
0
 10
0.01513741765723697
 20
0.04983764404235985
 30
0
 10
0.01643048238150002
 20
0.04951400364090111
 30
0
 10
0.01864029144555612
 20
0.04908380090961689
 30
0
 10
0.02130789798237709
 20
0.04878045603291589
 30
0
 10
0.02408088787612073
 20
0.04866975633882153
 30
0
 10
0.02653019814973678
 20
0.04869710423157445
 30
0
 10
0.02898631563028897
 20
0.04883404711896125
 30
0
 10
0.03122140499244574
 20
0.04904303544031968
 30
0
 10
0.03321233097405507
 20
0.0492850851087214
 30
0
 10
0.03505137059848895
 20
0.04954812418763227
 30
0
 10
0.03658213233512431
 20
0.04979759621496119
 30
0
 10
0.03756768522016407
 20
0.04997110679472913
 30
0
 10
0.03767843146804317
 20
0.04999111361212177
 30
0
 10
0.03772762140643082
 20
0.05000000000000179
 30
0
  0
SPLINE
  5
119
100
AcDbEntity
  8
0
  6
CONTINUOUS
 62
    7
370
   25
100
AcDbSpline
210
0
220
0
230
0
 70
    8
 71
    3
 72
   20
 73
   16
 74
    0
 42
1e-07
 43
1e-07
 40
0
 40
0
 40
0
 40
0
 40
0.0726398829081932
 40
0.1448048077563019
 40
0.254909859657486
 40
0.330361951119127
 40
0.4079721722097461
 40
0.4844418633354874
 40
0.5632548781408411
 40
0.6765191580074534
 40
0.7326877428981564
 40
0.7910341044270532
 40
0.8893389164143046
 40
0.9800344831507491
 40
0.9999999999999999
 40
0.9999999999999999
 40
0.9999999999999999
 40
0.9999999999999999
 10
0.4011564652182869
 20
0.05000000000000179
 30
0
 10
0.4012374282837591
 20
0.04998244562343548
 30
0
 10
0.401398825035264
 20
0.04994745165012496
 30
0
 10
0.402712192602828
 20
0.04967667345352397
 30
0
 10
0.404567176832334
 20
0.04933916819895418
 30
0
 10
0.4067693901893812
 20
0.04902421676302127
 30
0
 10
0.4088321729887539
 20
0.04880845291167313
 30
0
 10
0.4110177953607731
 20
0.04868241982413016
 30
0
 10
0.413578657838781
 20
0.04867584723264459
 30
0
 10
0.4159158896607469
 20
0.04886127668774221
 30
0
 10
0.4178099229255481
 20
0.04915587662069262
 30
0
 10
0.419365847576706
 20
0.0494773978416069
 30
0
 10
0.420630587117003
 20
0.0498223247484311
 30
0
 10
0.4212585756784992
 20
0.05002244696096472
 30
0
 10
0.4211373246971788
 20
0.04998459936680133
 30
0
 10
0.4211154485467559
 20
0.04997777088876315
 30
0
  0
SPLINE
  5
11A
100
AcDbEntity
  8
0
  6
CONTINUOUS
 62
    7
370
   25
100
AcDbSpline
210
0
220
0
230
0
 70
    8
 71
    3
 72
   18
 73
   14
 74
    0
 42
1e-07
 43
1e-07
 40
0
 40
0
 40
0
 40
0
 40
0.0292088327245417
 40
0.1311656720357125
 40
0.2344432179664833
 40
0.3422205214593464
 40
0.4512560818873322
 40
0.555700913253791
 40
0.6569753392543345
 40
0.7612975820603887
 40
0.870159403144214
 40
0.9781880356053018
 40
1
 40
1
 40
1
 40
1
 10
-0.457910887337444
 20
0.04997177148498028
 30
0
 10
-0.4579373049907782
 20
0.04998013128426099
 30
0
 10
-0.4580559365460242
 20
0.05001767193851989
 30
0
 10
-0.457406647046078
 20
0.04980966784199059
 30
0
 10
-0.4560198569566309
 20
0.04941921703280328
 30
0
 10
-0.4538835354892659
 20
0.04896157240237514
 30
0
 10
-0.451294508424243
 20
0.0486688059230391
 30
0
 10
-0.4485947086117719
 20
0.04867960330082582
 30
0
 10
-0.4461128572848381
 20
0.04896615972695958
 30
0
 10
-0.444001549381053
 20
0.04941266271651054
 30
0
 10
-0.4425706468840991
 20
0.04981587363484591
 30
0
 10
-0.4419184872154571
 20
0.05002574793235087
 30
0
 10
-0.4420488630683059
 20
0.04998454862599552
 30
0
 10
-0.4420707649505298
 20
0.04997762754102675
 30
0
  0
SPLINE
  5
11B
100
AcDbEntity
  8
0
  6
CONTINUOUS
 62
    7
370
   25
100
AcDbSpline
210
0
220
0
230
0
 70
    8
 71
    3
 72
   18
 73
   14
 74
    0
 42
1e-07
 43
1e-07
 40
0
 40
0
 40
0
 40
0
 40
0.0292088327245421
 40
0.1311656720357128
 40
0.2344432179664836
 40
0.3422205214593467
 40
0.4512560818873324
 40
0.5557009132537912
 40
0.6569753392543346
 40
0.7612975820603888
 40
0.8701594031442141
 40
0.9781880356053019
 40
1
 40
1
 40
1
 40
1
 10
0.4420891126625551
 20
0.04997177148498028
 30
0
 10
0.4420626950092219
 20
0.04998013128426099
 30
0
 10
0.441944063453976
 20
0.05001767193851989
 30
0
 10
0.442593352953922
 20
0.04980966784199059
 30
0
 10
0.4439801430433699
 20
0.04941921703280328
 30
0
 10
0.4461164645107342
 20
0.04896157240237514
 30
0
 10
0.4487054915757571
 20
0.0486688059230391
 30
0
 10
0.4514052913882283
 20
0.04867960330082582
 30
0
 10
0.453887142715163
 20
0.04896615972695958
 30
0
 10
0.4559984506189471
 20
0.04941266271651054
 30
0
 10
0.4574293531159009
 20
0.04981587363484591
 30
0
 10
0.4580815127845439
 20
0.05002574793235087
 30
0
 10
0.4579511369316942
 20
0.04998454862599552
 30
0
 10
0.4579292350494693
 20
0.04997762754102675
 30
0
  0
LINE
  5
11C
100
AcDbEntity
  8
0
  6
CONTINUOUS
 62
    7
370
   25
100
AcDbLine
 10
0.5
 20
0.05000000000000179
 11
0.5
 21
0
  0
LINE
  5
11D
100
AcDbEntity
  8
0
  6
CONTINUOUS
 62
    7
370
   25
100
AcDbLine
 10
-0.5
 20
0.05000000000000179
 11
-0.5
 21
0
  0
SPLINE
  5
11E
100
AcDbEntity
  8
0
  6
CONTINUOUS
 62
    7
370
   25
100
AcDbSpline
210
0
220
0
230
0
 70
    8
 71
    3
 72
   18
 73
   14
 74
    0
 42
1e-07
 43
1e-07
 40
0
 40
0
 40
0
 40
0
 40
0.0550892648092434
 40
0.1181734542458661
 40
0.2163425647558445
 40
0.2860441929645335
 40
0.3577049510323245
 40
0.502685203103159
 40
0.6282659376076888
 40
0.7320193716086872
 40
0.83621853300638
 40
0.9298695242049926
 40
0.9999999999999999
 40
0.9999999999999999
 40
0.9999999999999999
 40
0.9999999999999999
 10
-0.4011968806029609
 20
0.04999139034948799
 30
0
 10
-0.401226568286341
 20
0.04998493786106969
 30
0
 10
-0.4012902521293849
 20
0.04997109645571887
 30
0
 10
-0.402233978032648
 20
0.04977322173156787
 30
0
 10
-0.4037393794295359
 20
0.04948443680348097
 30
0
 10
-0.4056295034685578
 20
0.04918074534309286
 30
0
 10
-0.4080945958114457
 20
0.04886207118875879
 30
0
 10
-0.4113184069335238
 20
0.04862853877044016
 30
0
 10
-0.41491503761904
 20
0.04873776032971724
 30
0
 10
-0.4178549048447899
 20
0.04913674682493999
 30
0
 10
-0.4199147541205921
 20
0.04961406533258647
 30
0
 10
-0.42102058550112
 20
0.04994668857527537
 30
0
 10
-0.42113684796166
 20
0.0499840163972112
 30
0
 10
-0.4211866310160208
 20
0.05000000000000179
 30
0
  0
ENDBLK
  5
55
330
53
100
AcDbEntity
  8
0
100
AcDbBlockEnd
  0
BLOCK
  5
57
330
56
100
AcDbEntity
  8
0
100
AcDbBlockBegin
  2
SZ290_1000-0
 70
    0
 10
0
 20
0
  3
SZ290_1000-0
  1

  0
INSERT
  5
11F
100
AcDbEntity
  8
0
  6
ByLayer
 62
  256
370
   -1
100
AcDbBlockReference
  2
SZ290_1000
 10
28.10257836503229
 20
461.4435885107446
 30
0
 41
1000
 42
1000
 43
0
 50
0
 70
    1
 71
    1
 44
0
 45
0
  0
ENDBLK
  5
58
330
56
100
AcDbEntity
  8
0
100
AcDbBlockEnd
  0
BLOCK
  5
5A
330
59
100
AcDbEntity
  8
0
100
AcDbBlockBegin
  2
SZ290_3A_90_TOP
 70
    0
 10
0
 20
0
  3
SZ290_3A_90_TOP
  1

  0
LINE
  5
120
100
AcDbEntity
  8
0
  6
CONTINUOUS
 62
    7
370
   25
100
AcDbLine
 10
12.41138016007244
 20
-210.7168264476622
 11
12.41138016007244
 21
-19.08769977968586
  0
LINE
  5
121
100
AcDbEntity
  8
0
  6
CONTINUOUS
 62
    7
370
   25
100
AcDbLine
 10
-3.588615011951333
 20
-19.09266186636341
 11
-3.588615011951333
 21
-210.7118643609838
  0
LINE
  5
122
100
AcDbEntity
  8
0
  6
CONTINUOUS
 62
    7
370
   25
100
AcDbLine
 10
235.4113850476533
 20
-19.08769977968586
 11
235.4113850476533
 21
-210.7168264476622
  0
LINE
  5
123
100
AcDbEntity
  8
0
  6
CONTINUOUS
 62
    7
370
   25
100
AcDbLine
 10
251.4113802196771
 20
-210.6804899660901
 11
251.4113802196771
 21
-19.12403626125615
  0
LINE
  5
124
100
AcDbEntity
  8
0
  6
CONTINUOUS
 62
    7
370
   25
100
AcDbLine
 10
28.09681926987469
 20
-242.4022607294883
 11
219.7259459378511
 21
-242.4022607294883
  0
LINE
  5
125
100
AcDbEntity
  8
0
  6
CONTINUOUS
 62
    7
370
   25
100
AcDbLine
 10
219.7241950514108
 20
-226.4022655574636
 11
28.09857015631496
 21
-226.4022655574636
  0
LINE
  5
126
100
AcDbEntity
  8
0
  6
CONTINUOUS
 62
    7
370
   25
100
AcDbLine
 10
28.10649012348949
 20
-3.402260669883617
 11
219.7174671771318
 21
-3.402260669883617
  0
LINE
  5
127
100
AcDbEntity
  8
0
  6
CONTINUOUS
 62
    7
370
   25
100
AcDbLine
 10
219.7162750842363
 20
12.59773450214107
 11
28.10529803059399
 21
12.59773450214107
  0
LINE
  5
128
100
AcDbEntity
  8
0
  6
CONTINUOUS
 62
    7
370
   25
100
AcDbLine
 10
251.4113802196771
 20
-210.7109926430549
 11
251.4113802196771
 21
-210.6804899660901
  0
LINE
  5
129
100
AcDbEntity
  8
0
  6
CONTINUOUS
 62
    7
370
   25
100
AcDbLine
 10
251.4113802196771
 20
-19.12403626125615
 11
251.4113802196771
 21
-19.09532172363561
  0
LINE
  5
12A
100
AcDbEntity
  8
0
  6
CONTINUOUS
 62
    7
370
   25
100
AcDbLine
 10
-3.588615011951333
 20
-19.0880723087148
 11
-3.588615011951333
 21
-19.09263206404012
  0
LINE
  5
12B
100
AcDbEntity
  8
0
  6
CONTINUOUS
 62
    7
370
   25
100
AcDbLine
 10
219.7214979412347
 20
12.59773450214107
 11
219.7163048865586
 21
12.59773450214107
  0
LINE
  5
12C
100
AcDbEntity
  8
0
  6
CONTINUOUS
 62
    7
370
   25
100
AcDbLine
 10
28.09997086546718
 20
-3.402260669883617
 11
28.10646032116711
 21
-3.402260669883617
  0
LINE
  5
12D
100
AcDbEntity
  8
0
  6
CONTINUOUS
 62
    7
370
   25
100
AcDbLine
 10
395.4001981498986
 20
-209.4022609083022
 11
251.4113802196771
 21
-209.4022609083022
  0
LINE
  5
12E
100
AcDbEntity
  8
0
  6
CONTINUOUS
 62
    7
370
   25
100
AcDbLine
 10
421.5005058529168
 20
-209.4022609083022
 11
410.0390094997674
 21
-209.4022609083022
  0
LINE
  5
12F
100
AcDbEntity
  8
0
  6
CONTINUOUS
 62
    7
370
   25
100
AcDbLine
 10
479.4113952400476
 20
-209.4022609083022
 11
437.3406190159112
 21
-209.4022609083022
  0
LINE
  5
130
100
AcDbEntity
  8
0
  6
CONTINUOUS
 62
    7
370
   25
100
AcDbLine
 10
268.4113848688394
 20
-259.4022653786506
 11
479.4113952400476
 21
-259.4022653786506
  0
LINE
  5
131
100
AcDbEntity
  8
0
  6
CONTINUOUS
 62
    7
370
   25
100
AcDbLine
 10
479.4113952400476
 20
29.59773915130245
 11
243.4113789083749
 21
29.59773915130245
  0
LINE
  5
132
100
AcDbEntity
  8
0
  6
CONTINUOUS
 62
    7
370
   25
100
AcDbLine
 10
437.3222607853204
 20
-20.402265319045
 11
479.4113952400476
 21
-20.402265319045
  0
LINE
  5
133
100
AcDbEntity
  8
0
  6
CONTINUOUS
 62
    7
370
   25
100
AcDbLine
 10
283.5118043901712
 20
-20.402265319045
 11
421.482147622326
 21
-20.402265319045
  0
LINE
  5
134
100
AcDbEntity
  8
0
  6
CONTINUOUS
 62
    7
370
   25
100
AcDbLine
 10
251.4113802196771
 20
-20.402265319045
 11
268.7972653391153
 21
-20.402265319045
  0
LINE
  5
135
100
AcDbEntity
  8
0
  6
CONTINUOUS
 62
    7
370
   25
100
AcDbLine
 10
29.41138480923473
 20
-267.3103861300315
 11
29.41138480923473
 21
-242.4022607294883
  0
LINE
  5
136
100
AcDbEntity
  8
0
  6
CONTINUOUS
 62
    7
370
   25
100
AcDbLine
 10
29.41138480923473
 20
-412.4730281321372
 11
29.41138480923473
 21
-284.8792575089292
  0
LINE
  5
137
100
AcDbEntity
  8
0
  6
CONTINUOUS
 62
    7
370
   25
100
AcDbLine
 10
29.41138480923473
 20
-470.4022757498587
 11
29.41138480923473
 21
-428.3131412951316
  0
LINE
  5
138
100
AcDbEntity
  8
0
  6
CONTINUOUS
 62
    7
370
   25
100
AcDbLine
 10
-20.58861966111363
 20
-234.4022594181861
 11
-20.58861966111363
 21
-470.4022757498587
  0
LINE
  5
139
100
AcDbEntity
  8
0
  6
CONTINUOUS
 62
    7
370
   25
100
AcDbLine
 10
268.4113848688394
 20
-470.4022757498587
 11
268.4113848688394
 21
-259.4022653786506
  0
LINE
  5
13A
100
AcDbEntity
  8
0
  6
CONTINUOUS
 62
    7
370
   25
100
AcDbLine
 10
218.411380398491
 20
-428.3314995257224
 11
218.411380398491
 21
-470.4022757498587
  0
LINE
  5
13B
100
AcDbEntity
  8
0
  6
CONTINUOUS
 62
    7
370
   25
100
AcDbLine
 10
218.411380398491
 20
-403.4985057799186
 11
218.411380398491
 21
-412.4913863627271
  0
LINE
  5
13C
100
AcDbEntity
  8
0
  6
CONTINUOUS
 62
    7
370
   25
100
AcDbLine
 10
218.411380398491
 20
-242.4022607294883
 11
218.411380398491
 21
-385.9913997141684
  0
LINE
  5
13D
100
AcDbEntity
  8
0
  6
CONTINUOUS
 62
    7
370
   25
100
AcDbLine
 10
410.0390094997674
 20
-209.4022609083022
 11
283.5118043901712
 21
-20.402265319045
  0
LINE
  5
13E
100
AcDbEntity
  8
0
  6
CONTINUOUS
 62
    7
370
   25
100
AcDbLine
 10
268.7851208927423
 20
-20.40429187696827
 11
395.3109699966699
 21
-209.4022609083022
  0
LINE
  5
13F
100
AcDbEntity
  8
0
  6
CONTINUOUS
 62
    7
370
   25
100
AcDbLine
 10
29.41138480923473
 20
-284.8792575089292
 11
218.411380398491
 21
-403.4985057799186
  0
LINE
  5
140
100
AcDbEntity
  8
0
  6
CONTINUOUS
 62
    7
370
   25
100
AcDbLine
 10
218.4525970103532
 20
-385.9511367766227
 11
29.41223417542278
 21
-267.3065565316047
  0
LINE
  5
141
100
AcDbEntity
  8
0
  6
CONTINUOUS
 62
    7
370
   25
100
AcDbLine
 10
421.4113969089776
 20
-20.38007003944767
 11
421.4113969089776
 21
-209.4303495971517
  0
LINE
  5
142
100
AcDbEntity
  8
0
  6
CONTINUOUS
 62
    7
370
   25
100
AcDbLine
 10
437.4113697292596
 20
-209.4244561879004
 11
437.4113697292596
 21
-20.3741766301946
  0
LINE
  5
143
100
AcDbEntity
  8
0
  6
CONTINUOUS
 62
    7
370
   25
100
AcDbLine
 10
218.4394690873414
 20
-412.4022774187879
 11
29.3891895296365
 21
-412.4022774187879
  0
LINE
  5
144
100
AcDbEntity
  8
0
  6
CONTINUOUS
 62
    7
370
   25
100
AcDbLine
 10
29.38329612038433
 20
-428.4022502390708
 11
218.4335756780893
 21
-428.4022502390708
  0
LINE
  5
145
100
AcDbEntity
  8
0
  6
CONTINUOUS
 62
    7
370
   25
100
AcDbLine
 10
28.1052682282716
 20
12.59773450214107
 11
28.10215388558208
 21
12.59773450214107
  0
LINE
  5
146
100
AcDbEntity
  8
0
  6
CONTINUOUS
 62
    7
370
   25
100
AcDbLine
 10
199.4240302326471
 20
-209.4022609083022
 11
12.41138016007244
 21
-209.4022609083022
  0
LINE
  5
147
100
AcDbEntity
  8
0
  6
CONTINUOUS
 62
    7
370
   25
100
AcDbLine
 10
235.4113850476533
 20
-209.4022609083022
 11
217.453764724949
 21
-209.4022609083022
  0
LINE
  5
148
100
AcDbEntity
  8
0
  6
CONTINUOUS
 62
    7
370
   25
100
AcDbLine
 10
29.41138480923473
 20
-259.4022653786506
 11
218.411380398491
 21
-259.4022653786506
  0
LINE
  5
149
100
AcDbEntity
  8
0
  6
CONTINUOUS
 62
    7
370
   25
100
AcDbLine
 10
243.4113789083749
 20
29.59773915130245
 11
4.411386299350852
 21
29.59773915130245
  0
LINE
  5
14A
100
AcDbEntity
  8
0
  6
CONTINUOUS
 62
    7
370
   25
100
AcDbLine
 10
59.30413489363491
 20
-20.402265319045
 11
235.4113850476533
 21
-20.402265319045
  0
LINE
  5
14B
100
AcDbEntity
  8
0
  6
CONTINUOUS
 62
    7
370
   25
100
AcDbLine
 10
268.7972653391153
 20
-20.402265319045
 11
283.5118043901712
 21
-20.402265319045
  0
LINE
  5
14C
100
AcDbEntity
  8
0
  6
CONTINUOUS
 62
    7
370
   25
100
AcDbLine
 10
12.41138016007244
 20
-20.402265319045
 11
41.26503502152264
 21
-20.402265319045
  0
LWPOLYLINE
  5
14D
100
AcDbEntity
  8
0
  6
CONTINUOUS
 62
    7
370
   25
100
AcDbPolyline
 90
    3
 70
    0
 43
0
 10
217.5336647512704
 20
-209.3735016671972
 10
136.9390226634532
 20
-113.0629071988205
 10
59.39873491547405
 20
-20.402265319045
  0
LWPOLYLINE
  5
14E
100
AcDbEntity
  8
0
  6
CONTINUOUS
 62
    7
370
   25
100
AcDbPolyline
 90
    3
 70
    0
 43
0
 10
41.26503502152264
 20
-20.402265319045
 10
126.4575121192574
 20
-122.2072738012339
 10
199.4240302326471
 20
-209.4022609083022
  0
LINE
  5
14F
100
AcDbEntity
  8
0
  6
CONTINUOUS
 62
    7
370
   25
100
AcDbLine
 10
390.7713312389642
 20
-20.402265319045
 11
332.5253743412286
 21
-93.61629148703378
  0
LINE
  5
150
100
AcDbEntity
  8
0
  6
CONTINUOUS
 62
    7
370
   25
100
AcDbLine
 10
324.5275038959771
 20
-103.669465125914
 11
251.4113802196771
 21
-195.5750115005339
  0
LWPOLYLINE
  5
151
100
AcDbEntity
  8
0
  6
CONTINUOUS
 62
    7
370
   25
100
AcDbPolyline
 90
    3
 70
    0
 43
0
 10
258.1479865791589
 20
-209.4022609083022
 10
321.8122590067178
 20
-129.2610285593228
 10
332.583131242016
 20
-115.7025547720532
  0
LINE
  5
152
100
AcDbEntity
  8
0
  6
CONTINUOUS
 62
    7
370
   25
100
AcDbLine
 10
340.5756819727212
 20
-105.6414400948242
 11
408.2897621872216
 21
-20.402265319045
  0
LINE
  5
153
100
AcDbEntity
  8
0
  6
CONTINUOUS
 62
    7
370
   25
100
AcDbLine
 10
29.41138480923473
 20
-403.4985057799186
 11
123.9113826038629
 21
-344.1888741938437
  0
LINE
  5
154
100
AcDbEntity
  8
0
  6
CONTINUOUS
 62
    7
370
   25
100
AcDbLine
 10
137.9113830359966
 20
-335.4022703854407
 11
218.411380398491
 21
-284.8792575089292
  0
LINE
  5
155
100
AcDbEntity
  8
0
  6
CONTINUOUS
 62
    7
370
   25
100
AcDbLine
 10
218.410531032303
 20
-267.3065565316047
 11
123.9113826038629
 21
-326.6156516758765
  0
LINE
  5
156
100
AcDbEntity
  8
0
  6
CONTINUOUS
 62
    7
370
   25
100
AcDbLine
 10
109.9113821717292
 20
-335.4022703854407
 11
29.41138480923473
 21
-385.9252683607892
  0
CIRCLE
  5
157
100
AcDbEntity
  8
0
  6
CONTINUOUS
 62
    7
370
   25
100
AcDbCircle
 10
243.4113826038629
 20
-234.4022631136731
 40
25
  0
CIRCLE
  5
158
100
AcDbEntity
  8
0
  6
CONTINUOUS
 62
    7
370
   25
100
AcDbCircle
 10
243.4113826038629
 20
4.597736886326857
 40
25
  0
CIRCLE
  5
159
100
AcDbEntity
  8
0
  6
CONTINUOUS
 62
    7
370
   25
100
AcDbCircle
 10
4.411382603862876
 20
4.597736886326857
 40
25
  0
CIRCLE
  5
15A
100
AcDbEntity
  8
0
  6
CONTINUOUS
 62
    7
370
   25
100
AcDbCircle
 10
4.411382603862876
 20
-234.4022631136731
 40
25
  0
LINE
  5
15B
100
AcDbEntity
  8
0
  6
CONTINUOUS
 62
    7
370
   25
100
AcDbLine
 10
268.4113848688394
 20
-259.4022653786506
 11
261.089058566311
 21
-252.0799390761213
  0
SPLINE
  5
15C
100
AcDbEntity
  8
0
  6
CONTINUOUS
 62
    7
370
   25
100
AcDbSpline
210
0
220
0
230
0
 70
    8
 71
    3
 72
   12
 73
    8
 74
    0
 42
1e-07
 43
1e-07
 40
0
 40
0
 40
0
 40
0
 40
0.2072583183194056
 40
0.4142511583539388
 40
0.6280306268948198
 40
0.8468023163979168
 40
1
 40
1
 40
1
 40
1
 10
429.4113833191186
 20
-210.7168264476622
 30
0
 10
428.5382489292206
 20
-210.6878108468518
 30
0
 10
426.7930985519179
 20
-210.6298168114699
 30
0
 10
424.4459898231762
 20
-210.2270267926133
 30
0
 10
422.6291642808028
 20
-209.7806614090687
 30
0
 10
421.5367682370361
 20
-209.4428580464264
 30
0
 10
421.5110840359484
 20
-209.4340987314463
 30
0
 10
421.5005058529168
 20
-209.430491158183
 30
0
  0
SPLINE
  5
15D
100
AcDbEntity
  8
0
  6
CONTINUOUS
 62
    7
370
   25
100
AcDbSpline
210
0
220
0
230
0
 70
    8
 71
    3
 72
   12
 73
    8
 74
    0
 42
1e-07
 43
1e-07
 40
0
 40
0
 40
0
 40
0
 40
0.1631308466970579
 40
0.3671674242197175
 40
0.5784040470226839
 40
0.7969901452441707
 40
0.9999999999999999
 40
0.9999999999999999
 40
0.9999999999999999
 40
0.9999999999999999
 10
437.3406190159112
 20
-209.4246350018348
 30
0
 10
437.3170350870369
 20
-209.432463598353
 30
0
 10
437.2639534621176
 20
-209.4500838441691
 30
0
 10
436.1935697668814
 20
-209.7789262867354
 30
0
 10
434.409373335935
 20
-210.2209478026134
 30
0
 10
432.042377411055
 20
-210.6309870648329
 30
0
 10
430.2665110202306
 20
-210.6889268661589
 30
0
 10
429.4113833191186
 20
-210.7168264476622
 30
0
  0
LINE
  5
15E
100
AcDbEntity
  8
0
  6
CONTINUOUS
 62
    7
370
   25
100
AcDbLine
 10
479.4113952400476
 20
-209.4022609083022
 11
479.4113952400476
 21
-259.4022653786506
  0
SPLINE
  5
15F
100
AcDbEntity
  8
0
  6
CONTINUOUS
 62
    7
370
   25
100
AcDbSpline
210
0
220
0
230
0
 70
    8
 71
    3
 72
   24
 73
   20
 74
    0
 42
1e-07
 43
1e-07
 40
0
 40
0
 40
0
 40
0
 40
0.0483007654999833
 40
0.0966052943964152
 40
0.1575085127289509
 40
0.2131656603396575
 40
0.2617000626291976
 40
0.3491547399314378
 40
0.3907766775002568
 40
0.4693891888478784
 40
0.5500018097014548
 40
0.5975631104277829
 40
0.6593637580297429
 40
0.7211421669375713
 40
0.7828153334515211
 40
0.8399632904322157
 40
0.8924539424183949
 40
0.941384770422639
 40
1
 40
1
 40
1
 40
1
 10
410.0390094997674
 20
-209.4022609083022
 30
0
 10
410.0272920695916
 20
-209.4076031979203
 30
0
 10
410.0038562962654
 20
-209.4182881934075
 30
0
 10
409.7964427465813
 20
-209.5105405166832
 30
0
 10
409.423544180032
 20
-209.6673717409658
 30
0
 10
408.8532594348144
 20
-209.8813829203827
 30
0
 10
407.9781634534811
 20
-210.1630986720102
 30
0
 10
406.8766383569782
 20
-210.4309776953751
 30
0
 10
405.3522244709038
 20
-210.6512000651637
 30
0
 10
403.7198189003266
 20
-210.7492611618072
 30
0
 10
402.0353912361024
 20
-210.6782517338388
 30
0
 10
400.574635901412
 20
-210.5254023899743
 30
0
 10
399.3402765170522
 20
-210.3389952721773
 30
0
 10
398.1351275964498
 20
-210.1063976978494
 30
0
 10
397.1160574261321
 20
-209.8760770865429
 30
0
 10
396.3191121914497
 20
-209.6764630150628
 30
0
 10
395.7742555939658
 20
-209.5312621979811
 30
0
 10
395.3713302782289
 20
-209.4194465850587
 30
0
 10
395.390014689272
 20
-209.4245407606568
 30
0
 10
395.4001981498986
 20
-209.4273172108497
 30
0
  0
LWPOLYLINE
  5
160
100
AcDbEntity
  8
0
  6
CONTINUOUS
 62
    7
370
   25
100
AcDbPolyline
 90
   19
 70
    0
 43
0
 10
268.7972653391153
 20
-20.39617819469822
 10
268.8333410503656
 20
-20.37992102783664
 10
269.0418977024347
 20
-20.28841299694341
 10
269.4213408710748
 20
-20.13209236544026
 10
269.9853200199395
 20
-19.92317063492192
 10
270.6492710592538
 20
-19.71132827680867
 10
272.2473758938104
 20
-19.33973802011678
 10
273.160563755253
 20
-19.2065365402068
 10
275.0301528456002
 20
-19.08912284057988
 10
276.9716847421914
 20
-19.15610356014622
 10
278.2977688791543
 20
-19.29504943769825
 10
279.5311230900079
 20
-19.48280406874164
 10
280.6490082027703
 20
-19.6962408510999
 10
281.6276717664987
 20
-19.91346252840322
 10
282.4381012203485
 20
-20.11294437330616
 10
283.0021846773416
 20
-20.26153130215062
 10
283.5058439256936
 20
-20.4005814878301
 10
283.5118043901712
 20
-20.402265319045
 10
283.5118043901712
 20
-20.402265319045
  0
SPLINE
  5
161
100
AcDbEntity
  8
0
  6
CONTINUOUS
 62
    7
370
   25
100
AcDbSpline
210
0
220
0
230
0
 70
    8
 71
    3
 72
   12
 73
    8
 74
    0
 42
1e-07
 43
1e-07
 40
0
 40
0
 40
0
 40
0
 40
0.2072583183194056
 40
0.4142511583539388
 40
0.6280306268948198
 40
0.8468023163979168
 40
1
 40
1
 40
1
 40
1
 10
429.4113833191186
 20
-19.08769977968586
 30
0
 10
430.2845177090167
 20
-19.1167153804945
 30
0
 10
432.0296680863175
 20
-19.17470941587635
 30
0
 10
434.376776815061
 20
-19.57749943473391
 30
0
 10
436.1936023574344
 20
-20.02386481827762
 30
0
 10
437.2859984012011
 20
-20.36166818092079
 30
0
 10
437.311682602287
 20
-20.37042749590091
 30
0
 10
437.3222607853204
 20
-20.37403506916417
 30
0
  0
SPLINE
  5
162
100
AcDbEntity
  8
0
  6
CONTINUOUS
 62
    7
370
   25
100
AcDbSpline
210
0
220
0
230
0
 70
    8
 71
    3
 72
   12
 73
    8
 74
    0
 42
1e-07
 43
1e-07
 40
0
 40
0
 40
0
 40
0
 40
0.1631308466970579
 40
0.3671674242197175
 40
0.5784040470226839
 40
0.7969901452441707
 40
0.9999999999999999
 40
0.9999999999999999
 40
0.9999999999999999
 40
0.9999999999999999
 10
421.482147622326
 20
-20.37989122551335
 30
0
 10
421.5057315511986
 20
-20.37206262899417
 30
0
 10
421.5588131761197
 20
-20.35444238317814
 30
0
 10
422.6291968713558
 20
-20.02559994061266
 30
0
 10
424.4133933023004
 20
-19.58357842473379
 30
0
 10
426.7803892271822
 20
-19.17353916251432
 30
0
 10
428.5562556180066
 20
-19.1155993611892
 30
0
 10
429.4113833191186
 20
-19.08769977968586
 30
0
  0
LINE
  5
163
100
AcDbEntity
  8
0
  6
CONTINUOUS
 62
    7
370
   25
100
AcDbLine
 10
479.4113952400476
 20
29.59773915130245
 11
479.4113952400476
 21
-20.402265319045
  0
SPLINE
  5
164
100
AcDbEntity
  8
0
  6
CONTINUOUS
 62
    7
370
   25
100
AcDbSpline
210
0
220
0
230
0
 70
    8
 71
    3
 72
   18
 73
   14
 74
    0
 42
1e-07
 43
1e-07
 40
0
 40
0
 40
0
 40
0
 40
0.0292086496021912
 40
0.1311655345675808
 40
0.2344433680302139
 40
0.3422205431340685
 40
0.4512564785052824
 40
0.5557003551796403
 40
0.6569756987069723
 40
0.7612979133752673
 40
0.8701595047871487
 40
0.9781878516838662
 40
1
 40
1
 40
1
 40
1
 10
29.38315455935299
 20
-428.3131412951316
 30
0
 10
29.39151533484073
 20
-428.3395649816566
 30
0
 10
29.42906056891115
 20
-428.4582242492215
 30
0
 10
29.22104101107652
 20
-427.8089187008081
 30
0
 10
28.83060292094706
 20
-426.4221159132831
 30
0
 10
28.37295930420987
 20
-424.2858005372864
 30
0
 10
28.08018126207207
 20
-421.6967721207584
 30
0
 10
28.0909931668466
 20
-418.9969730443827
 30
0
 10
28.37754385384142
 20
-416.5151122754605
 30
0
 10
28.82403895417701
 20
-414.403801387808
 30
0
 10
29.22725705411722
 20
-412.9729068879842
 30
0
 10
29.43712443185177
 20
-412.3207775238334
 30
0
 10
29.39593089518712
 20
-412.4511299787491
 30
0
 10
29.38901071570217
 20
-412.4730281321372
 30
0
  0
SPLINE
  5
165
100
AcDbEntity
  8
0
  6
CONTINUOUS
 62
    7
370
   25
100
AcDbSpline
210
0
220
0
230
0
 70
    8
 71
    3
 72
   24
 73
   20
 74
    0
 42
1e-07
 43
1e-07
 40
0
 40
0
 40
0
 40
0
 40
0.0406749988450094
 40
0.1208895379032966
 40
0.1717227080360923
 40
0.2741453586858829
 40
0.3329141548184417
 40
0.3916727872131865
 40
0.450439718719838
 40
0.5092309638810907
 40
0.5647875844459913
 40
0.6156888244643611
 40
0.6636682688199831
 40
0.7578421727303368
 40
0.8043950079037403
 40
0.8983791469737648
 40
0.9480270578718945
 40
0.9976697035837948
 40
0.9999999999999999
 40
0.9999999999999999
 40
0.9999999999999999
 40
0.9999999999999999
 10
29.41138480923473
 20
-284.8792575089292
 30
0
 10
29.40668843417916
 20
-284.8602264938572
 30
0
 10
29.39273041017623
 20
-284.8036647069293
 30
0
 10
29.25997174941767
 20
-284.2595203764613
 30
0
 10
29.00451183526275
 20
-283.1318364461586
 30
0
 10
28.72222230211264
 20
-281.7440499392214
 30
0
 10
28.45472897142281
 20
-280.087451719025
 30
0
 10
28.27321691794896
 20
-278.6551351007893
 30
0
 10
28.1440973204808
 20
-277.1481607321984
 30
0
 10
28.08577258358491
 20
-275.6223815943267
 30
0
 10
28.10646690064641
 20
-274.1566112762621
 30
0
 10
28.19707989239578
 20
-272.8152986909054
 30
0
 10
28.38677188094698
 20
-271.2230755282444
 30
0
 10
28.66147249370806
 20
-269.8448798591944
 30
0
 10
29.00695093788272
 20
-268.5216784954446
 30
0
 10
29.25185220979438
 20
-267.7626147763713
 30
0
 10
29.37986901152181
 20
-267.3940464136149
 30
0
 10
29.42169707298854
 20
-267.2767691333274
 30
0
 10
29.41035124863629
 20
-267.3089435352795
 30
0
 10
29.40984253905117
 20
-267.3103861300315
 30
0
  0
LINE
  5
166
100
AcDbEntity
  8
0
  6
CONTINUOUS
 62
    7
370
   25
100
AcDbLine
 10
4.411386299350852
 20
-470.4022757498587
 11
29.41138480923473
 21
-470.4022757498587
  0
LINE
  5
167
100
AcDbEntity
  8
0
  6
CONTINUOUS
 62
    7
370
   25
100
AcDbLine
 10
-20.58861966111363
 20
-470.4022757498587
 11
4.411386299350852
 21
-470.4022757498587
  0
SPLINE
  5
168
100
AcDbEntity
  8
0
  6
CONTINUOUS
 62
    7
370
   25
100
AcDbSpline
210
0
220
0
230
0
 70
    8
 71
    3
 72
   20
 73
   16
 74
    0
 42
1e-07
 43
1e-07
 40
0
 40
0
 40
0
 40
0
 40
0.0291838957863229
 40
0.1310543740882307
 40
0.2342446814068062
 40
0.3419305172538429
 40
0.3957667864378014
 40
0.4512991756868889
 40
0.5556545380161135
 40
0.6568440524743232
 40
0.7610778559038914
 40
0.8698471890352416
 40
0.9231830506773192
 40
0.9782063370952243
 40
1
 40
1
 40
1
 40
1
 10
218.4396106483728
 20
-412.4913863627271
 30
0
 10
218.4312495347021
 20
-412.464958973198
 30
0
 10
218.3937027819811
 20
-412.3462830767776
 30
0
 10
218.6017561937933
 20
-412.9959593177937
 30
0
 10
218.9920429242648
 20
-414.3811047548961
 30
0
 10
219.371317429699
 20
-416.1546413981177
 30
0
 10
219.5969354353947
 20
-417.8177897172045
 30
0
 10
219.7404442736934
 20
-419.5646928782407
 30
0
 10
219.732213446383
 20
-421.8069571184051
 30
0
 10
219.4439128582053
 20
-424.2934109282796
 30
0
 10
219.0037824935825
 20
-426.3844793035169
 30
0
 10
218.6486365959536
 20
-427.6380882048234
 30
0
 10
218.4789840069388
 20
-428.1906067906111
 30
0
 10
218.4002440181393
 20
-428.437680506956
 30
0
 10
218.4263484334351
 20
-428.3549662952682
 30
0
 10
218.4337544920236
 20
-428.3314995257224
 30
0
  0
LINE
  5
169
100
AcDbEntity
  8
0
  6
CONTINUOUS
 62
    7
370
   25
100
AcDbLine
 10
243.4113789083749
 20
-470.4022757498587
 11
268.4113848688394
 21
-470.4022757498587
  0
LINE
  5
16A
100
AcDbEntity
  8
0
  6
CONTINUOUS
 62
    7
370
   25
100
AcDbLine
 10
218.411380398491
 20
-470.4022757498587
 11
243.4113789083749
 21
-470.4022757498587
  0
ARC
  5
16B
100
AcDbEntity
  8
0
  6
CONTINUOUS
 62
    7
370
   25
100
AcDbCircle
 10
189.7281700569329
 20
-394.7184319954977
 40
29.99693736296956
100
AcDbArc
 50
342.9803890646647
 51
16.91368847021887
  0
SPLINE
  5
16C
100
AcDbEntity
  8
0
  6
CONTINUOUS
 62
    7
370
   25
100
AcDbSpline
210
0
220
0
230
0
 70
    8
 71
    3
 72
   22
 73
   18
 74
    0
 42
1e-07
 43
1e-07
 40
0
 40
0
 40
0
 40
0
 40
0.0480658671963779
 40
0.1012234625049144
 40
0.1560516789956008
 40
0.206820044661015
 40
0.2593885545340001
 40
0.3522208929508378
 40
0.4428648487968534
 40
0.5054960945207515
 40
0.5699318712761815
 40
0.6987409754338789
 40
0.7597295950586579
 40
0.8222490751915885
 40
0.9100484606714263
 40
0.9831562868307433
 40
1
 40
1
 40
1
 40
1
 10
217.453764724949
 20
-209.4403557268943
 30
0
 10
217.4794473869406
 20
-209.4310516636451
 30
0
 10
217.533533334512
 20
-209.4114579362822
 30
0
 10
217.1739740522735
 20
-209.5416287869493
 30
0
 10
216.6457445336073
 20
-209.7180076899112
 30
0
 10
215.876891738013
 20
-209.9453421480839
 30
0
 10
214.6704913942958
 20
-210.2452991280516
 30
0
 10
212.8175823325946
 20
-210.5693649080422
 30
0
 10
210.6240256347428
 20
-210.7244936976285
 30
0
 10
208.658124685755
 20
-210.7176872935133
 30
0
 10
206.3846991204082
 20
-210.5915438379461
 30
0
 10
204.2384680321065
 20
-210.324775516161
 30
0
 10
202.3699100453487
 20
-210.011088163722
 30
0
 10
200.9895923446984
 20
-209.7461971561042
 30
0
 10
199.8694560987406
 20
-209.5042846187953
 30
0
 10
199.4478609371727
 20
-209.4076845946583
 30
0
 10
199.427788803765
 20
-209.4031163303844
 30
0
 10
199.4240302326471
 20
-209.4022609083022
 30
0
  0
SPLINE
  5
16D
100
AcDbEntity
  8
0
  6
CONTINUOUS
 62
    7
370
   25
100
AcDbSpline
210
0
220
0
230
0
 70
    8
 71
    3
 72
   20
 73
   16
 74
    0
 42
1e-07
 43
1e-07
 40
0
 40
0
 40
0
 40
0
 40
0.0603909550620702
 40
0.1231341693514694
 40
0.1753524735803492
 40
0.2294081303759215
 40
0.3251179339671397
 40
0.4150439423711342
 40
0.5125560766596297
 40
0.6307245613143238
 40
0.7018501786895922
 40
0.7749866706521519
 40
0.8739551694681927
 40
0.9523126369705935
 40
1
 40
1
 40
1
 40
1
 10
41.26503502152264
 20
-20.402265319045
 30
0
 10
41.29270906515194
 20
-20.39191608636884
 30
0
 10
41.34913507085912
 20
-20.37081451299946
 30
0
 10
41.79057242314957
 20
-20.21320489587561
 30
0
 10
42.45786323587345
 20
-19.99950768961207
 30
0
 10
43.54369891653005
 20
-19.69705552205687
 30
0
 10
45.29007352193548
 20
-19.33365984140437
 30
0
 10
47.75247577442678
 20
-19.08512204287035
 30
0
 10
50.5319022013955
 20
-19.07163552123166
 30
0
 10
53.05896026679693
 20
-19.28304353987551
 30
0
 10
55.17445081581718
 20
-19.57498680463505
 30
0
 10
56.95902071638557
 20
-19.88255652906446
 30
0
 10
58.43446984420916
 20
-20.18470259626338
 30
0
 10
59.33402334341736
 20
-20.38735877092495
 30
0
 10
59.31233890767362
 20
-20.38255179549378
 30
0
 10
59.30413489363491
 20
-20.38073314111989
 30
0
  0
ENDBLK
  5
5B
330
59
100
AcDbEntity
  8
0
100
AcDbBlockEnd
  0
BLOCK
  5
5D
330
5C
100
AcDbEntity
  8
0
100
AcDbBlockBegin
  2
ACL_4
 70
    0
 10
0
 20
0
  3
ACL_4
  1

  0
LWPOLYLINE
  5
16E
100
AcDbEntity
  8
R2V
  6
ByLayer
 62
    0
370
   -1
100
AcDbPolyline
 90
    7
 70
    0
 43
0
 10
11.375
 20
13.8125
 10
11.375
 20
143.8125
 10
80.4375
 20
143.8125
 10
84.5
 20
5.6875
 10
7.3125
 20
5.6875
 10
7.3125
 20
13.8125
 10
80.4375
 20
13.8125
  0
LWPOLYLINE
  5
16F
100
AcDbEntity
  8
R2V
  6
ByLayer
 62
    0
370
   -1
100
AcDbPolyline
 90
    3
 70
    0
 43
0
 10
27.625
 20
13.8125
 10
27.625
 20
135.6875
 10
80.4375
 20
135.6875
  0
LWPOLYLINE
  5
170
100
AcDbEntity
  8
R2V
  6
ByLayer
 62
    0
370
   -1
100
AcDbPolyline
 90
    2
 70
    0
 43
0
 10
64.1875
 20
13.8125
 10
64.1875
 20
135.6875
  0
LWPOLYLINE
  5
171
100
AcDbEntity
  8
R2V
  6
ByLayer
 62
    0
370
   -1
100
AcDbPolyline
 90
    2
 70
    0
 43
0
 10
80.4375
 20
13.8125
 10
84.5
 20
13.8125
  0
LWPOLYLINE
  5
172
100
AcDbEntity
  8
R2V
  6
ByLayer
 62
    0
370
   -1
100
AcDbPolyline
 90
    7
 70
    0
 43
0
 10
141.375
 20
13.8125
 10
141.375
 20
143.8125
 10
210.4375
 20
143.8125
 10
214.5
 20
5.6875
 10
137.3125
 20
5.6875
 10
137.3125
 20
13.8125
 10
210.4375
 20
13.8125
  0
LWPOLYLINE
  5
173
100
AcDbEntity
  8
R2V
  6
ByLayer
 62
    0
370
   -1
100
AcDbPolyline
 90
    3
 70
    0
 43
0
 10
157.625
 20
13.8125
 10
157.625
 20
135.6875
 10
210.4375
 20
135.6875
  0
LWPOLYLINE
  5
174
100
AcDbEntity
  8
R2V
  6
ByLayer
 62
    0
370
   -1
100
AcDbPolyline
 90
    2
 70
    0
 43
0
 10
194.1875
 20
13.8125
 10
194.1875
 20
135.6875
  0
LWPOLYLINE
  5
175
100
AcDbEntity
  8
R2V
  6
ByLayer
 62
    0
370
   -1
100
AcDbPolyline
 90
    2
 70
    0
 43
0
 10
210.4375
 20
13.8125
 10
214.5
 20
13.8125
  0
LWPOLYLINE
  5
176
100
AcDbEntity
  8
R2V
  6
ByLayer
 62
    0
370
   -1
100
AcDbPolyline
 90
    7
 70
    0
 43
0
 10
271.375
 20
13.8125
 10
271.375
 20
143.8125
 10
340.4375
 20
143.8125
 10
344.5
 20
5.6875
 10
267.3125
 20
5.6875
 10
267.3125
 20
13.8125
 10
340.4375
 20
13.8125
  0
LWPOLYLINE
  5
177
100
AcDbEntity
  8
R2V
  6
ByLayer
 62
    0
370
   -1
100
AcDbPolyline
 90
    3
 70
    0
 43
0
 10
287.625
 20
13.8125
 10
287.625
 20
135.6875
 10
340.4375
 20
135.6875
  0
LWPOLYLINE
  5
178
100
AcDbEntity
  8
R2V
  6
ByLayer
 62
    0
370
   -1
100
AcDbPolyline
 90
    2
 70
    0
 43
0
 10
324.1875
 20
13.8125
 10
324.1875
 20
135.6875
  0
LWPOLYLINE
  5
179
100
AcDbEntity
  8
R2V
  6
ByLayer
 62
    0
370
   -1
100
AcDbPolyline
 90
    2
 70
    0
 43
0
 10
340.4375
 20
13.8125
 10
344.5
 20
13.8125
  0
LWPOLYLINE
  5
17A
100
AcDbEntity
  8
R2V
  6
ByLayer
 62
    0
370
   -1
100
AcDbPolyline
 90
    7
 70
    0
 43
0
 10
401.375
 20
13.8125
 10
401.375
 20
143.8125
 10
470.4375
 20
143.8125
 10
474.5
 20
5.6875
 10
397.3125
 20
5.6875
 10
397.3125
 20
13.8125
 10
470.4375
 20
13.8125
  0
LWPOLYLINE
  5
17B
100
AcDbEntity
  8
R2V
  6
ByLayer
 62
    0
370
   -1
100
AcDbPolyline
 90
    3
 70
    0
 43
0
 10
417.625
 20
13.8125
 10
417.625
 20
135.6875
 10
470.4375
 20
135.6875
  0
LWPOLYLINE
  5
17C
100
AcDbEntity
  8
R2V
  6
ByLayer
 62
    0
370
   -1
100
AcDbPolyline
 90
    2
 70
    0
 43
0
 10
454.1875
 20
13.8125
 10
454.1875
 20
135.6875
  0
LWPOLYLINE
  5
17D
100
AcDbEntity
  8
R2V
  6
ByLayer
 62
    0
370
   -1
100
AcDbPolyline
 90
    2
 70
    0
 43
0
 10
470.4375
 20
13.8125
 10
474.5
 20
13.8125
  0
LWPOLYLINE
  5
17E
100
AcDbEntity
  8
R2V
  6
ByLayer
 62
    0
370
   -1
100
AcDbPolyline
 90
    6
 70
    0
 43
0
 10
84.5
 20
86.9375
 10
84.5
 20
156
 10
80.4375
 20
164.125
 10
141.375
 20
164.125
 10
214.5
 20
156
 10
214.5
 20
86.9375
  0
LWPOLYLINE
  5
17F
100
AcDbEntity
  8
R2V
  6
ByLayer
 62
    0
370
   -1
100
AcDbPolyline
 90
    6
 70
    0
 43
0
 10
344.5
 20
86.9375
 10
344.5
 20
156
 10
340.4375
 20
164.125
 10
401.375
 20
164.125
 10
474.5
 20
156
 10
474.5
 20
86.9375
  0
LWPOLYLINE
  5
180
100
AcDbEntity
  8
R2V
  6
ByLayer
 62
    0
370
   -1
100
AcDbPolyline
 90
    2
 70
    0
 43
0
 10
11.375
 20
119.4375
 10
19.5
 20
119.4375
  0
LWPOLYLINE
  5
181
100
AcDbEntity
  8
R2V
  6
ByLayer
 62
    0
370
   -1
100
AcDbPolyline
 90
    2
 70
    0
 43
0
 10
80.4375
 20
119.4375
 10
72.3125
 20
119.4375
  0
LWPOLYLINE
  5
182
100
AcDbEntity
  8
R2V
  6
ByLayer
 62
    0
370
   -1
100
AcDbPolyline
 90
    2
 70
    0
 43
0
 10
141.375
 20
119.4375
 10
149.5
 20
119.4375
  0
LWPOLYLINE
  5
183
100
AcDbEntity
  8
R2V
  6
ByLayer
 62
    0
370
   -1
100
AcDbPolyline
 90
    2
 70
    0
 43
0
 10
210.4375
 20
119.4375
 10
202.3125
 20
119.4375
  0
LWPOLYLINE
  5
184
100
AcDbEntity
  8
R2V
  6
ByLayer
 62
    0
370
   -1
100
AcDbPolyline
 90
    2
 70
    0
 43
0
 10
271.375
 20
119.4375
 10
279.5
 20
119.4375
  0
LWPOLYLINE
  5
185
100
AcDbEntity
  8
R2V
  6
ByLayer
 62
    0
370
   -1
100
AcDbPolyline
 90
    2
 70
    0
 43
0
 10
340.4375
 20
119.4375
 10
332.3125
 20
119.4375
  0
LWPOLYLINE
  5
186
100
AcDbEntity
  8
R2V
  6
ByLayer
 62
    0
370
   -1
100
AcDbPolyline
 90
    2
 70
    0
 43
0
 10
401.375
 20
119.4375
 10
409.5
 20
119.4375
  0
LWPOLYLINE
  5
187
100
AcDbEntity
  8
R2V
  6
ByLayer
 62
    0
370
   -1
100
AcDbPolyline
 90
    2
 70
    0
 43
0
 10
470.4375
 20
119.4375
 10
462.3125
 20
119.4375
  0
LWPOLYLINE
  5
188
100
AcDbEntity
  8
R2V
  6
ByLayer
 62
    0
370
   -1
100
AcDbPolyline
 90
    2
 70
    0
 43
0
 10
11.375
 20
127.5625
 10
19.5
 20
127.5625
  0
LWPOLYLINE
  5
189
100
AcDbEntity
  8
R2V
  6
ByLayer
 62
    0
370
   -1
100
AcDbPolyline
 90
    2
 70
    0
 43
0
 10
80.4375
 20
127.5625
 10
72.3125
 20
127.5625
  0
LWPOLYLINE
  5
18A
100
AcDbEntity
  8
R2V
  6
ByLayer
 62
    0
370
   -1
100
AcDbPolyline
 90
    2
 70
    0
 43
0
 10
141.375
 20
127.5625
 10
149.5
 20
127.5625
  0
LWPOLYLINE
  5
18B
100
AcDbEntity
  8
R2V
  6
ByLayer
 62
    0
370
   -1
100
AcDbPolyline
 90
    2
 70
    0
 43
0
 10
210.4375
 20
127.5625
 10
202.3125
 20
127.5625
  0
LWPOLYLINE
  5
18C
100
AcDbEntity
  8
R2V
  6
ByLayer
 62
    0
370
   -1
100
AcDbPolyline
 90
    2
 70
    0
 43
0
 10
271.375
 20
127.5625
 10
279.5
 20
127.5625
  0
LWPOLYLINE
  5
18D
100
AcDbEntity
  8
R2V
  6
ByLayer
 62
    0
370
   -1
100
AcDbPolyline
 90
    2
 70
    0
 43
0
 10
340.4375
 20
127.5625
 10
332.3125
 20
127.5625
  0
LWPOLYLINE
  5
18E
100
AcDbEntity
  8
R2V
  6
ByLayer
 62
    0
370
   -1
100
AcDbPolyline
 90
    2
 70
    0
 43
0
 10
401.375
 20
127.5625
 10
409.5
 20
127.5625
  0
LWPOLYLINE
  5
18F
100
AcDbEntity
  8
R2V
  6
ByLayer
 62
    0
370
   -1
100
AcDbPolyline
 90
    2
 70
    0
 43
0
 10
470.4375
 20
127.5625
 10
462.3125
 20
127.5625
  0
LWPOLYLINE
  5
190
100
AcDbEntity
  8
R2V
  6
ByLayer
 62
    0
370
   -1
100
AcDbPolyline
 90
    2
 70
    0
 43
0
 10
11.375
 20
135.6875
 10
27.625
 20
135.6875
  0
LWPOLYLINE
  5
191
100
AcDbEntity
  8
R2V
  6
ByLayer
 62
    0
370
   -1
100
AcDbPolyline
 90
    2
 70
    0
 43
0
 10
141.375
 20
135.6875
 10
157.625
 20
135.6875
  0
LWPOLYLINE
  5
192
100
AcDbEntity
  8
R2V
  6
ByLayer
 62
    0
370
   -1
100
AcDbPolyline
 90
    2
 70
    0
 43
0
 10
271.375
 20
135.6875
 10
287.625
 20
135.6875
  0
LWPOLYLINE
  5
193
100
AcDbEntity
  8
R2V
  6
ByLayer
 62
    0
370
   -1
100
AcDbPolyline
 90
    2
 70
    0
 43
0
 10
401.375
 20
135.6875
 10
417.625
 20
135.6875
  0
LWPOLYLINE
  5
194
100
AcDbEntity
  8
R2V
  6
ByLayer
 62
    0
370
   -1
100
AcDbPolyline
 90
    6
 70
    0
 43
0
 10
11.375
 20
160.0625
 10
-17.0625
 20
164.125
 10
-17.0625
 20
180.375
 10
498.875
 20
180.375
 10
498.875
 20
164.125
 10
470.4375
 20
160.0625
  0
LWPOLYLINE
  5
195
100
AcDbEntity
  8
R2V
  6
ByLayer
 62
    0
370
   -1
100
AcDbPolyline
 90
    2
 70
    0
 43
0
 10
11.375
 20
160.0625
 10
80.4375
 20
160.0625
  0
LWPOLYLINE
  5
196
100
AcDbEntity
  8
R2V
  6
ByLayer
 62
    0
370
   -1
100
AcDbPolyline
 90
    5
 70
    0
 43
0
 10
11.375
 20
160.0625
 10
7.3125
 20
156
 10
3.25
 20
151.9375
 10
3.25
 20
82.875
 10
7.3125
 20
78.8125
  0
LWPOLYLINE
  5
197
100
AcDbEntity
  8
R2V
  6
ByLayer
 62
    0
370
   -1
100
AcDbPolyline
 90
    5
 70
    0
 43
0
 10
141.375
 20
160.0625
 10
137.3125
 20
156
 10
133.25
 20
151.9375
 10
133.25
 20
82.875
 10
137.3125
 20
78.8125
  0
LWPOLYLINE
  5
198
100
AcDbEntity
  8
R2V
  6
ByLayer
 62
    0
370
   -1
100
AcDbPolyline
 90
    5
 70
    0
 43
0
 10
210.4375
 20
160.0625
 10
210.4375
 20
164.125
 10
271.375
 20
164.125
 10
275.4375
 20
160.0625
 10
340.4375
 20
160.0625
  0
LWPOLYLINE
  5
199
100
AcDbEntity
  8
R2V
  6
ByLayer
 62
    0
370
   -1
100
AcDbPolyline
 90
    5
 70
    0
 43
0
 10
271.375
 20
160.0625
 10
267.3125
 20
156
 10
263.25
 20
151.9375
 10
263.25
 20
82.875
 10
267.3125
 20
78.8125
  0
LWPOLYLINE
  5
19A
100
AcDbEntity
  8
R2V
  6
ByLayer
 62
    0
370
   -1
100
AcDbPolyline
 90
    5
 70
    0
 43
0
 10
401.375
 20
160.0625
 10
397.3125
 20
156
 10
393.25
 20
151.9375
 10
393.25
 20
82.875
 10
397.3125
 20
78.8125
  0
LWPOLYLINE
  5
19B
100
AcDbEntity
  8
R2V
  6
ByLayer
 62
    0
370
   -1
100
AcDbPolyline
 90
    3
 70
    0
 43
0
 10
-8.9375
 20
78.8125
 10
-4.875
 20
82.875
 10
-0.8125
 20
82.875
  0
LWPOLYLINE
  5
19C
100
AcDbEntity
  8
R2V
  6
ByLayer
 62
    0
370
   -1
100
AcDbPolyline
 90
    3
 70
    0
 43
0
 10
121.0625
 20
78.8125
 10
125.125
 20
82.875
 10
129.1875
 20
82.875
  0
LWPOLYLINE
  5
19D
100
AcDbEntity
  8
R2V
  6
ByLayer
 62
    0
370
   -1
100
AcDbPolyline
 90
    3
 70
    0
 43
0
 10
251.0625
 20
78.8125
 10
255.125
 20
82.875
 10
259.1875
 20
82.875
  0
LWPOLYLINE
  5
19E
100
AcDbEntity
  8
R2V
  6
ByLayer
 62
    0
370
   -1
100
AcDbPolyline
 90
    3
 70
    0
 43
0
 10
381.0625
 20
78.8125
 10
385.125
 20
82.875
 10
389.1875
 20
82.875
  0
LWPOLYLINE
  5
19F
100
AcDbEntity
  8
R2V
  6
ByLayer
 62
    0
370
   -1
100
AcDbPolyline
 90
    2
 70
    0
 43
0
 10
39.8125
 20
119.4375
 10
52
 20
119.4375
  0
LWPOLYLINE
  5
1A0
100
AcDbEntity
  8
R2V
  6
ByLayer
 62
    0
370
   -1
100
AcDbPolyline
 90
    2
 70
    0
 43
0
 10
169.8125
 20
119.4375
 10
182
 20
119.4375
  0
LWPOLYLINE
  5
1A1
100
AcDbEntity
  8
R2V
  6
ByLayer
 62
    0
370
   -1
100
AcDbPolyline
 90
    2
 70
    0
 43
0
 10
299.8125
 20
119.4375
 10
312
 20
119.4375
  0
LWPOLYLINE
  5
1A2
100
AcDbEntity
  8
R2V
  6
ByLayer
 62
    0
370
   -1
100
AcDbPolyline
 90
    2
 70
    0
 43
0
 10
429.8125
 20
119.4375
 10
442
 20
119.4375
  0
LWPOLYLINE
  5
1A3
100
AcDbEntity
  8
R2V
  6
ByLayer
 62
    0
370
   -1
100
AcDbPolyline
 90
    2
 70
    0
 43
0
 10
39.8125
 20
127.5625
 10
52
 20
127.5625
  0
LWPOLYLINE
  5
1A4
100
AcDbEntity
  8
R2V
  6
ByLayer
 62
    0
370
   -1
100
AcDbPolyline
 90
    2
 70
    0
 43
0
 10
169.8125
 20
127.5625
 10
182
 20
127.5625
  0
LWPOLYLINE
  5
1A5
100
AcDbEntity
  8
R2V
  6
ByLayer
 62
    0
370
   -1
100
AcDbPolyline
 90
    2
 70
    0
 43
0
 10
299.8125
 20
127.5625
 10
312
 20
127.5625
  0
LWPOLYLINE
  5
1A6
100
AcDbEntity
  8
R2V
  6
ByLayer
 62
    0
370
   -1
100
AcDbPolyline
 90
    2
 70
    0
 43
0
 10
429.8125
 20
127.5625
 10
442
 20
127.5625
  0
ENDBLK
  5
5E
330
5C
100
AcDbEntity
  8
0
100
AcDbBlockEnd
  0
BLOCK
  5
60
330
5F
100
AcDbEntity
  8
0
100
AcDbBlockBegin
  2
ACL_4-0
 70
    0
 10
0
 20
0
  3
ACL_4-0
  1

  0
LWPOLYLINE
  5
1A7
100
AcDbEntity
  8
R2V
  6
ByLayer
 62
    0
370
   -1
100
AcDbPolyline
 90
    7
 70
    0
 43
0
 10
26.504854368932
 20
32.18446601941741
 10
26.504854368932
 20
335.0970873786409
 10
187.4271844660194
 20
335.0970873786409
 10
196.8932038834951
 20
13.25242718446589
 10
17.03883495145624
 20
13.25242718446589
 10
17.03883495145624
 20
32.18446601941741
 10
187.4271844660194
 20
32.18446601941741
  0
LWPOLYLINE
  5
1A8
100
AcDbEntity
  8
R2V
  6
ByLayer
 62
    0
370
   -1
100
AcDbPolyline
 90
    3
 70
    0
 43
0
 10
64.36893203883494
 20
32.18446601941741
 10
64.36893203883494
 20
316.1650485436894
 10
187.4271844660194
 20
316.1650485436894
  0
LWPOLYLINE
  5
1A9
100
AcDbEntity
  8
R2V
  6
ByLayer
 62
    0
370
   -1
100
AcDbPolyline
 90
    2
 70
    0
 43
0
 10
149.5631067961165
 20
32.18446601941741
 10
149.5631067961165
 20
316.1650485436894
  0
LWPOLYLINE
  5
1AA
100
AcDbEntity
  8
R2V
  6
ByLayer
 62
    0
370
   -1
100
AcDbPolyline
 90
    2
 70
    0
 43
0
 10
187.4271844660194
 20
32.18446601941741
 10
196.8932038834951
 20
32.18446601941741
  0
LWPOLYLINE
  5
1AB
100
AcDbEntity
  8
R2V
  6
ByLayer
 62
    0
370
   -1
100
AcDbPolyline
 90
    7
 70
    0
 43
0
 10
329.4174757281553
 20
32.18446601941741
 10
329.4174757281553
 20
335.0970873786409
 10
490.3398058252427
 20
335.0970873786409
 10
499.8058252427184
 20
13.25242718446589
 10
319.9514563106796
 20
13.25242718446589
 10
319.9514563106796
 20
32.18446601941741
 10
490.3398058252427
 20
32.18446601941741
  0
LWPOLYLINE
  5
1AC
100
AcDbEntity
  8
R2V
  6
ByLayer
 62
    0
370
   -1
100
AcDbPolyline
 90
    3
 70
    0
 43
0
 10
367.2815533980582
 20
32.18446601941741
 10
367.2815533980582
 20
316.1650485436894
 10
490.3398058252427
 20
316.1650485436894
  0
LWPOLYLINE
  5
1AD
100
AcDbEntity
  8
R2V
  6
ByLayer
 62
    0
370
   -1
100
AcDbPolyline
 90
    2
 70
    0
 43
0
 10
452.4757281553398
 20
32.18446601941741
 10
452.4757281553398
 20
316.1650485436894
  0
LWPOLYLINE
  5
1AE
100
AcDbEntity
  8
R2V
  6
ByLayer
 62
    0
370
   -1
100
AcDbPolyline
 90
    2
 70
    0
 43
0
 10
490.3398058252427
 20
32.18446601941741
 10
499.8058252427184
 20
32.18446601941741
  0
LWPOLYLINE
  5
1AF
100
AcDbEntity
  8
R2V
  6
ByLayer
 62
    0
370
   -1
100
AcDbPolyline
 90
    7
 70
    0
 43
0
 10
632.3300970873786
 20
32.18446601941741
 10
632.3300970873786
 20
335.0970873786409
 10
793.252427184466
 20
335.0970873786409
 10
802.7184466019417
 20
13.25242718446589
 10
622.8640776699028
 20
13.25242718446589
 10
622.8640776699028
 20
32.18446601941741
 10
793.252427184466
 20
32.18446601941741
  0
LWPOLYLINE
  5
1B0
100
AcDbEntity
  8
R2V
  6
ByLayer
 62
    0
370
   -1
100
AcDbPolyline
 90
    3
 70
    0
 43
0
 10
670.1941747572815
 20
32.18446601941741
 10
670.1941747572815
 20
316.1650485436894
 10
793.252427184466
 20
316.1650485436894
  0
LWPOLYLINE
  5
1B1
100
AcDbEntity
  8
R2V
  6
ByLayer
 62
    0
370
   -1
100
AcDbPolyline
 90
    2
 70
    0
 43
0
 10
755.3883495145631
 20
32.18446601941741
 10
755.3883495145631
 20
316.1650485436894
  0
LWPOLYLINE
  5
1B2
100
AcDbEntity
  8
R2V
  6
ByLayer
 62
    0
370
   -1
100
AcDbPolyline
 90
    2
 70
    0
 43
0
 10
793.252427184466
 20
32.18446601941741
 10
802.7184466019417
 20
32.18446601941741
  0
LWPOLYLINE
  5
1B3
100
AcDbEntity
  8
R2V
  6
ByLayer
 62
    0
370
   -1
100
AcDbPolyline
 90
    7
 70
    0
 43
0
 10
935.2427184466019
 20
32.18446601941741
 10
935.2427184466019
 20
335.0970873786409
 10
1096.165048543689
 20
335.0970873786409
 10
1105.631067961165
 20
13.25242718446589
 10
925.7766990291261
 20
13.25242718446589
 10
925.7766990291261
 20
32.18446601941741
 10
1096.165048543689
 20
32.18446601941741
  0
LWPOLYLINE
  5
1B4
100
AcDbEntity
  8
R2V
  6
ByLayer
 62
    0
370
   -1
100
AcDbPolyline
 90
    3
 70
    0
 43
0
 10
973.1067961165048
 20
32.18446601941741
 10
973.1067961165048
 20
316.1650485436894
 10
1096.165048543689
 20
316.1650485436894
  0
LWPOLYLINE
  5
1B5
100
AcDbEntity
  8
R2V
  6
ByLayer
 62
    0
370
   -1
100
AcDbPolyline
 90
    2
 70
    0
 43
0
 10
1058.300970873786
 20
32.18446601941741
 10
1058.300970873786
 20
316.1650485436894
  0
LWPOLYLINE
  5
1B6
100
AcDbEntity
  8
R2V
  6
ByLayer
 62
    0
370
   -1
100
AcDbPolyline
 90
    2
 70
    0
 43
0
 10
1096.165048543689
 20
32.18446601941741
 10
1105.631067961165
 20
32.18446601941741
  0
LWPOLYLINE
  5
1B7
100
AcDbEntity
  8
R2V
  6
ByLayer
 62
    0
370
   -1
100
AcDbPolyline
 90
    6
 70
    0
 43
0
 10
196.8932038834951
 20
202.5728155339807
 10
196.8932038834951
 20
363.4951456310678
 10
187.4271844660194
 20
382.4271844660193
 10
329.4174757281553
 20
382.4271844660193
 10
499.8058252427184
 20
363.4951456310678
 10
499.8058252427184
 20
202.5728155339807
  0
LWPOLYLINE
  5
1B8
100
AcDbEntity
  8
R2V
  6
ByLayer
 62
    0
370
   -1
100
AcDbPolyline
 90
    6
 70
    0
 43
0
 10
802.7184466019417
 20
202.5728155339807
 10
802.7184466019417
 20
363.4951456310678
 10
793.252427184466
 20
382.4271844660193
 10
935.2427184466019
 20
382.4271844660193
 10
1105.631067961165
 20
363.4951456310678
 10
1105.631067961165
 20
202.5728155339807
  0
LWPOLYLINE
  5
1B9
100
AcDbEntity
  8
R2V
  6
ByLayer
 62
    0
370
   -1
100
AcDbPolyline
 90
    2
 70
    0
 43
0
 10
26.504854368932
 20
278.3009708737864
 10
45.43689320388341
 20
278.3009708737864
  0
LWPOLYLINE
  5
1BA
100
AcDbEntity
  8
R2V
  6
ByLayer
 62
    0
370
   -1
100
AcDbPolyline
 90
    2
 70
    0
 43
0
 10
187.4271844660194
 20
278.3009708737864
 10
168.4951456310679
 20
278.3009708737864
  0
LWPOLYLINE
  5
1BB
100
AcDbEntity
  8
R2V
  6
ByLayer
 62
    0
370
   -1
100
AcDbPolyline
 90
    2
 70
    0
 43
0
 10
329.4174757281553
 20
278.3009708737864
 10
348.3495145631068
 20
278.3009708737864
  0
LWPOLYLINE
  5
1BC
100
AcDbEntity
  8
R2V
  6
ByLayer
 62
    0
370
   -1
100
AcDbPolyline
 90
    2
 70
    0
 43
0
 10
490.3398058252427
 20
278.3009708737864
 10
471.4077669902912
 20
278.3009708737864
  0
LWPOLYLINE
  5
1BD
100
AcDbEntity
  8
R2V
  6
ByLayer
 62
    0
370
   -1
100
AcDbPolyline
 90
    2
 70
    0
 43
0
 10
632.3300970873786
 20
278.3009708737864
 10
651.26213592233
 20
278.3009708737864
  0
LWPOLYLINE
  5
1BE
100
AcDbEntity
  8
R2V
  6
ByLayer
 62
    0
370
   -1
100
AcDbPolyline
 90
    2
 70
    0
 43
0
 10
793.252427184466
 20
278.3009708737864
 10
774.3203883495145
 20
278.3009708737864
  0
LWPOLYLINE
  5
1BF
100
AcDbEntity
  8
R2V
  6
ByLayer
 62
    0
370
   -1
100
AcDbPolyline
 90
    2
 70
    0
 43
0
 10
935.2427184466019
 20
278.3009708737864
 10
954.1747572815533
 20
278.3009708737864
  0
LWPOLYLINE
  5
1C0
100
AcDbEntity
  8
R2V
  6
ByLayer
 62
    0
370
   -1
100
AcDbPolyline
 90
    2
 70
    0
 43
0
 10
1096.165048543689
 20
278.3009708737864
 10
1077.233009708738
 20
278.3009708737864
  0
LWPOLYLINE
  5
1C1
100
AcDbEntity
  8
R2V
  6
ByLayer
 62
    0
370
   -1
100
AcDbPolyline
 90
    2
 70
    0
 43
0
 10
26.504854368932
 20
297.2330097087379
 10
45.43689320388341
 20
297.2330097087379
  0
LWPOLYLINE
  5
1C2
100
AcDbEntity
  8
R2V
  6
ByLayer
 62
    0
370
   -1
100
AcDbPolyline
 90
    2
 70
    0
 43
0
 10
187.4271844660194
 20
297.2330097087379
 10
168.4951456310679
 20
297.2330097087379
  0
LWPOLYLINE
  5
1C3
100
AcDbEntity
  8
R2V
  6
ByLayer
 62
    0
370
   -1
100
AcDbPolyline
 90
    2
 70
    0
 43
0
 10
329.4174757281553
 20
297.2330097087379
 10
348.3495145631068
 20
297.2330097087379
  0
LWPOLYLINE
  5
1C4
100
AcDbEntity
  8
R2V
  6
ByLayer
 62
    0
370
   -1
100
AcDbPolyline
 90
    2
 70
    0
 43
0
 10
490.3398058252427
 20
297.2330097087379
 10
471.4077669902912
 20
297.2330097087379
  0
LWPOLYLINE
  5
1C5
100
AcDbEntity
  8
R2V
  6
ByLayer
 62
    0
370
   -1
100
AcDbPolyline
 90
    2
 70
    0
 43
0
 10
632.3300970873786
 20
297.2330097087379
 10
651.26213592233
 20
297.2330097087379
  0
LWPOLYLINE
  5
1C6
100
AcDbEntity
  8
R2V
  6
ByLayer
 62
    0
370
   -1
100
AcDbPolyline
 90
    2
 70
    0
 43
0
 10
793.252427184466
 20
297.2330097087379
 10
774.3203883495145
 20
297.2330097087379
  0
LWPOLYLINE
  5
1C7
100
AcDbEntity
  8
R2V
  6
ByLayer
 62
    0
370
   -1
100
AcDbPolyline
 90
    2
 70
    0
 43
0
 10
935.2427184466019
 20
297.2330097087379
 10
954.1747572815533
 20
297.2330097087379
  0
LWPOLYLINE
  5
1C8
100
AcDbEntity
  8
R2V
  6
ByLayer
 62
    0
370
   -1
100
AcDbPolyline
 90
    2
 70
    0
 43
0
 10
1096.165048543689
 20
297.2330097087379
 10
1077.233009708738
 20
297.2330097087379
  0
LWPOLYLINE
  5
1C9
100
AcDbEntity
  8
R2V
  6
ByLayer
 62
    0
370
   -1
100
AcDbPolyline
 90
    2
 70
    0
 43
0
 10
26.504854368932
 20
316.1650485436894
 10
64.36893203883494
 20
316.1650485436894
  0
LWPOLYLINE
  5
1CA
100
AcDbEntity
  8
R2V
  6
ByLayer
 62
    0
370
   -1
100
AcDbPolyline
 90
    2
 70
    0
 43
0
 10
329.4174757281553
 20
316.1650485436894
 10
367.2815533980582
 20
316.1650485436894
  0
LWPOLYLINE
  5
1CB
100
AcDbEntity
  8
R2V
  6
ByLayer
 62
    0
370
   -1
100
AcDbPolyline
 90
    2
 70
    0
 43
0
 10
632.3300970873786
 20
316.1650485436894
 10
670.1941747572815
 20
316.1650485436894
  0
LWPOLYLINE
  5
1CC
100
AcDbEntity
  8
R2V
  6
ByLayer
 62
    0
370
   -1
100
AcDbPolyline
 90
    2
 70
    0
 43
0
 10
935.2427184466019
 20
316.1650485436894
 10
973.1067961165048
 20
316.1650485436894
  0
LWPOLYLINE
  5
1CD
100
AcDbEntity
  8
R2V
  6
ByLayer
 62
    0
370
   -1
100
AcDbPolyline
 90
    6
 70
    0
 43
0
 10
26.504854368932
 20
372.9611650485435
 10
-39.75728155339812
 20
382.4271844660193
 10
-39.75728155339812
 20
420.2912621359224
 10
1162.427184466019
 20
420.2912621359224
 10
1162.427184466019
 20
382.4271844660193
 10
1096.165048543689
 20
372.9611650485435
  0
LWPOLYLINE
  5
1CE
100
AcDbEntity
  8
R2V
  6
ByLayer
 62
    0
370
   -1
100
AcDbPolyline
 90
    2
 70
    0
 43
0
 10
26.504854368932
 20
372.9611650485435
 10
187.4271844660194
 20
372.9611650485435
  0
LWPOLYLINE
  5
1CF
100
AcDbEntity
  8
R2V
  6
ByLayer
 62
    0
370
   -1
100
AcDbPolyline
 90
    5
 70
    0
 43
0
 10
26.504854368932
 20
372.9611650485435
 10
17.03883495145624
 20
363.4951456310678
 10
7.572815533980588
 20
354.029126213592
 10
7.572815533980588
 20
193.1067961165049
 10
17.03883495145624
 20
183.6407766990292
  0
LWPOLYLINE
  5
1D0
100
AcDbEntity
  8
R2V
  6
ByLayer
 62
    0
370
   -1
100
AcDbPolyline
 90
    5
 70
    0
 43
0
 10
329.4174757281553
 20
372.9611650485435
 10
319.9514563106796
 20
363.4951456310678
 10
310.4854368932039
 20
354.029126213592
 10
310.4854368932039
 20
193.1067961165049
 10
319.9514563106796
 20
183.6407766990292
  0
LWPOLYLINE
  5
1D1
100
AcDbEntity
  8
R2V
  6
ByLayer
 62
    0
370
   -1
100
AcDbPolyline
 90
    5
 70
    0
 43
0
 10
490.3398058252427
 20
372.9611650485435
 10
490.3398058252427
 20
382.4271844660193
 10
632.3300970873786
 20
382.4271844660193
 10
641.7961165048544
 20
372.9611650485435
 10
793.252427184466
 20
372.9611650485435
  0
LWPOLYLINE
  5
1D2
100
AcDbEntity
  8
R2V
  6
ByLayer
 62
    0
370
   -1
100
AcDbPolyline
 90
    5
 70
    0
 43
0
 10
632.3300970873786
 20
372.9611650485435
 10
622.8640776699028
 20
363.4951456310678
 10
613.3980582524272
 20
354.029126213592
 10
613.3980582524272
 20
193.1067961165049
 10
622.8640776699028
 20
183.6407766990292
  0
LWPOLYLINE
  5
1D3
100
AcDbEntity
  8
R2V
  6
ByLayer
 62
    0
370
   -1
100
AcDbPolyline
 90
    5
 70
    0
 43
0
 10
935.2427184466019
 20
372.9611650485435
 10
925.7766990291261
 20
363.4951456310678
 10
916.3106796116505
 20
354.029126213592
 10
916.3106796116505
 20
193.1067961165049
 10
925.7766990291261
 20
183.6407766990292
  0
LWPOLYLINE
  5
1D4
100
AcDbEntity
  8
R2V
  6
ByLayer
 62
    0
370
   -1
100
AcDbPolyline
 90
    3
 70
    0
 43
0
 10
-20.82524271844659
 20
183.6407766990292
 10
-11.35922330097094
 20
193.1067961165049
 10
-1.893203883495175
 20
193.1067961165049
  0
LWPOLYLINE
  5
1D5
100
AcDbEntity
  8
R2V
  6
ByLayer
 62
    0
370
   -1
100
AcDbPolyline
 90
    3
 70
    0
 43
0
 10
282.0873786407767
 20
183.6407766990292
 10
291.5533980582524
 20
193.1067961165049
 10
301.0194174757281
 20
193.1067961165049
  0
LWPOLYLINE
  5
1D6
100
AcDbEntity
  8
R2V
  6
ByLayer
 62
    0
370
   -1
100
AcDbPolyline
 90
    3
 70
    0
 43
0
 10
585
 20
183.6407766990292
 10
594.4660194174756
 20
193.1067961165049
 10
603.9320388349514
 20
193.1067961165049
  0
LWPOLYLINE
  5
1D7
100
AcDbEntity
  8
R2V
  6
ByLayer
 62
    0
370
   -1
100
AcDbPolyline
 90
    3
 70
    0
 43
0
 10
887.9126213592233
 20
183.6407766990292
 10
897.3786407766989
 20
193.1067961165049
 10
906.8446601941747
 20
193.1067961165049
  0
LWPOLYLINE
  5
1D8
100
AcDbEntity
  8
R2V
  6
ByLayer
 62
    0
370
   -1
100
AcDbPolyline
 90
    2
 70
    0
 43
0
 10
92.76699029126212
 20
278.3009708737864
 10
121.1650485436893
 20
278.3009708737864
  0
LWPOLYLINE
  5
1D9
100
AcDbEntity
  8
R2V
  6
ByLayer
 62
    0
370
   -1
100
AcDbPolyline
 90
    2
 70
    0
 43
0
 10
395.6796116504854
 20
278.3009708737864
 10
424.0776699029126
 20
278.3009708737864
  0
LWPOLYLINE
  5
1DA
100
AcDbEntity
  8
R2V
  6
ByLayer
 62
    0
370
   -1
100
AcDbPolyline
 90
    2
 70
    0
 43
0
 10
698.5922330097087
 20
278.3009708737864
 10
726.9902912621359
 20
278.3009708737864
  0
LWPOLYLINE
  5
1DB
100
AcDbEntity
  8
R2V
  6
ByLayer
 62
    0
370
   -1
100
AcDbPolyline
 90
    2
 70
    0
 43
0
 10
1001.504854368932
 20
278.3009708737864
 10
1029.902912621359
 20
278.3009708737864
  0
LWPOLYLINE
  5
1DC
100
AcDbEntity
  8
R2V
  6
ByLayer
 62
    0
370
   -1
100
AcDbPolyline
 90
    2
 70
    0
 43
0
 10
92.76699029126212
 20
297.2330097087379
 10
121.1650485436893
 20
297.2330097087379
  0
LWPOLYLINE
  5
1DD
100
AcDbEntity
  8
R2V
  6
ByLayer
 62
    0
370
   -1
100
AcDbPolyline
 90
    2
 70
    0
 43
0
 10
395.6796116504854
 20
297.2330097087379
 10
424.0776699029126
 20
297.2330097087379
  0
LWPOLYLINE
  5
1DE
100
AcDbEntity
  8
R2V
  6
ByLayer
 62
    0
370
   -1
100
AcDbPolyline
 90
    2
 70
    0
 43
0
 10
698.5922330097087
 20
297.2330097087379
 10
726.9902912621359
 20
297.2330097087379
  0
LWPOLYLINE
  5
1DF
100
AcDbEntity
  8
R2V
  6
ByLayer
 62
    0
370
   -1
100
AcDbPolyline
 90
    2
 70
    0
 43
0
 10
1001.504854368932
 20
297.2330097087379
 10
1029.902912621359
 20
297.2330097087379
  0
ENDBLK
  5
61
330
5F
100
AcDbEntity
  8
0
100
AcDbBlockEnd
  0
BLOCK
  5
63
330
62
100
AcDbEntity
  8
0
100
AcDbBlockBegin
  2
sunstrip
 70
    0
 10
0
 20
0
  3
sunstrip
  1

  0
LWPOLYLINE
  5
1E0
100
AcDbEntity
  8
R2V
  6
ByLayer
 62
    0
370
   -1
100
AcDbPolyline
 90
   11
 70
    0
 43
0
 10
10.46292342327388
 20
69.52458719346032
 10
20.07829842327374
 20
117.6014621934601
 10
991.2321734232737
 20
117.6014621934601
 10
1000.847548423274
 20
11.83221219346024
 10
10.46292342327388
 20
11.83221219346024
 10
10.46292342327388
 20
69.52458719346032
 10
-8.767826576726293
 20
69.52458719346032
 10
0.8475484232735653
 20
136.8322121934602
 10
1010.462923423274
 20
136.8322121934602
 10
1020.078298423274
 20
69.52458719346032
 10
1000.847548423274
 20
69.52458719346032
  0
LWPOLYLINE
  5
1E1
100
AcDbEntity
  8
R2V
  6
ByLayer
 62
    0
370
   -1
100
AcDbPolyline
 90
    5
 70
    0
 43
0
 10
68.15529842327351
 20
31.06296219345995
 10
106.6167984232738
 20
59.90921219346001
 10
77.77067342327382
 20
98.37071219346035
 10
39.30904842327345
 20
69.52458719346032
 10
68.15529842327351
 20
31.06296219345995
  0
LWPOLYLINE
  5
1E2
100
AcDbEntity
  8
R2V
  6
ByLayer
 62
    0
370
   -1
100
AcDbPolyline
 90
    5
 70
    0
 43
0
 10
164.3090484232739
 20
31.06296219345995
 10
202.7706734232738
 20
59.90921219346001
 10
173.9245484232738
 20
98.37071219346035
 10
135.4629234232739
 20
69.52458719346032
 10
164.3090484232739
 20
31.06296219345995
  0
LWPOLYLINE
  5
1E3
100
AcDbEntity
  8
R2V
  6
ByLayer
 62
    0
370
   -1
100
AcDbPolyline
 90
    5
 70
    0
 43
0
 10
260.4629234232739
 20
31.06296219345995
 10
298.9245484232738
 20
59.90921219346001
 10
270.0782984232737
 20
98.37071219346035
 10
231.6167984232738
 20
69.52458719346032
 10
260.4629234232739
 20
31.06296219345995
  0
LWPOLYLINE
  5
1E4
100
AcDbEntity
  8
R2V
  6
ByLayer
 62
    0
370
   -1
100
AcDbPolyline
 90
    5
 70
    0
 43
0
 10
356.6167984232738
 20
31.06296219345995
 10
395.0782984232737
 20
59.90921219346001
 10
366.2321734232737
 20
98.37071219346035
 10
327.7706734232738
 20
69.52458719346032
 10
356.6167984232738
 20
31.06296219345995
  0
LWPOLYLINE
  5
1E5
100
AcDbEntity
  8
R2V
  6
ByLayer
 62
    0
370
   -1
100
AcDbPolyline
 90
    5
 70
    0
 43
0
 10
452.7706734232738
 20
31.06296219345995
 10
491.2321734232737
 20
59.90921219346001
 10
462.3860484232737
 20
98.37071219346035
 10
423.9245484232738
 20
69.52458719346032
 10
452.7706734232738
 20
31.06296219345995
  0
LWPOLYLINE
  5
1E6
100
AcDbEntity
  8
R2V
  6
ByLayer
 62
    0
370
   -1
100
AcDbPolyline
 90
    5
 70
    0
 43
0
 10
548.9245484232738
 20
31.06296219345995
 10
587.3860484232737
 20
59.90921219346001
 10
558.5399234232736
 20
98.37071219346035
 10
520.0782984232737
 20
69.52458719346032
 10
548.9245484232738
 20
31.06296219345995
  0
LWPOLYLINE
  5
1E7
100
AcDbEntity
  8
R2V
  6
ByLayer
 62
    0
370
   -1
100
AcDbPolyline
 90
    5
 70
    0
 43
0
 10
645.0782984232737
 20
31.06296219345995
 10
683.5399234232736
 20
59.90921219346001
 10
654.6936734232736
 20
98.37071219346035
 10
616.2321734232737
 20
69.52458719346032
 10
645.0782984232737
 20
31.06296219345995
  0
LWPOLYLINE
  5
1E8
100
AcDbEntity
  8
R2V
  6
ByLayer
 62
    0
370
   -1
100
AcDbPolyline
 90
    5
 70
    0
 43
0
 10
741.2321734232737
 20
31.06296219345995
 10
779.6936734232736
 20
59.90921219346001
 10
750.8475484232736
 20
98.37071219346035
 10
712.3860484232737
 20
69.52458719346032
 10
741.2321734232737
 20
31.06296219345995
  0
LWPOLYLINE
  5
1E9
100
AcDbEntity
  8
R2V
  6
ByLayer
 62
    0
370
   -1
100
AcDbPolyline
 90
    5
 70
    0
 43
0
 10
837.3860484232737
 20
31.06296219345995
 10
875.8475484232736
 20
59.90921219346001
 10
847.0014234232735
 20
98.37071219346035
 10
808.5399234232736
 20
69.52458719346032
 10
837.3860484232737
 20
31.06296219345995
  0
LWPOLYLINE
  5
1EA
100
AcDbEntity
  8
R2V
  6
ByLayer
 62
    0
370
   -1
100
AcDbPolyline
 90
    5
 70
    0
 43
0
 10
933.5399234232736
 20
31.06296219345995
 10
972.0014234232735
 20
59.90921219346001
 10
943.155298423274
 20
98.37071219346035
 10
904.6936734232736
 20
69.52458719346032
 10
933.5399234232736
 20
31.06296219345995
  0
ENDBLK
  5
64
330
62
100
AcDbEntity
  8
0
100
AcDbBlockEnd
  0
BLOCK
  5
66
330
65
100
AcDbEntity
  8
0
100
AcDbBlockBegin
  2
minibeam
 70
    0
 10
0
 20
0
  3
minibeam
  1

  0
LWPOLYLINE
  5
1EB
100
AcDbEntity
  8
R2V
  6
ByLayer
 62
    0
370
   -1
100
AcDbPolyline
 90
    9
 70
    0
 43
0
 10
10.44318548586148
 20
54.97252669358068
 10
15.62175691443281
 20
106.7582409792949
 10
41.51461405728992
 20
137.8296695507236
 10
124.3717569144328
 20
137.8296695507236
 10
155.4431854858615
 20
96.40109812215201
 10
155.4431854858615
 20
8.365383836437786
 10
10.44318548586148
 20
8.365383836437786
 10
10.44318548586148
 20
54.97252669358068
 10
155.4431854858615
 20
54.97252669358068
  0
LWPOLYLINE
  5
1EC
100
AcDbEntity
  8
R2V
  6
ByLayer
 62
    0
370
   -1
100
AcDbPolyline
 90
    7
 70
    0
 43
0
 10
0.08604262871858737
 20
75.68681240786646
 10
5.264614057289918
 20
132.651098122152
 10
57.05032834300437
 20
184.4368124078665
 10
108.8360426287186
 20
184.4368124078665
 10
165.8003283430044
 20
127.4725266935807
 10
165.8003283430044
 20
75.68681240786646
 10
155.4431854858615
 20
75.68681240786646
  0
LWPOLYLINE
  5
1ED
100
AcDbEntity
  8
R2V
  6
ByLayer
 62
    0
370
   -1
100
AcDbPolyline
 90
    2
 70
    0
 43
0
 10
0.08604262871858737
 20
75.68681240786646
 10
10.44318548586148
 20
75.68681240786646
  0
LWPOLYLINE
  5
1EE
100
AcDbEntity
  8
R2V
  6
ByLayer
 62
    0
370
   -1
100
AcDbPolyline
 90
    2
 70
    0
 43
0
 10
0.08604262871858737
 20
75.68681240786646
 10
-15.44967165699563
 20
75.68681240786646
  0
LWPOLYLINE
  5
1EF
100
AcDbEntity
  8
R2V
  6
ByLayer
 62
    0
370
   -1
100
AcDbPolyline
 90
    2
 70
    0
 43
0
 10
10.44318548586148
 20
91.22252669358068
 10
155.4431854858615
 20
91.22252669358068
  0
ENDBLK
  5
67
330
65
100
AcDbEntity
  8
0
100
AcDbBlockEnd
  0
BLOCK
  5
69
330
68
100
AcDbEntity
  8
0
100
AcDbBlockBegin
  2
SZ290_710
 70
    0
 10
0
 20
0
  3
SZ290_710
  1

  0
LINE
  5
1F0
100
AcDbEntity
  8
0
  6
CONTINUOUS
 62
    7
370
   25
100
AcDbLine
 10
608.938806122278
 20
12.17286842085559
 11
651.0279187848328
 21
12.17286842085559
  0
LINE
  5
1F1
100
AcDbEntity
  8
0
  6
CONTINUOUS
 62
    7
370
   25
100
AcDbLine
 10
447.3411850718003
 20
12.17286842085559
 11
593.098683735363
 21
12.17286842085559
  0
LINE
  5
1F2
100
AcDbEntity
  8
0
  6
CONTINUOUS
 62
    7
370
   25
100
AcDbLine
 10
406.4542849611362
 20
12.17286842085559
 11
428.137120905305
 21
12.17286842085559
  0
LINE
  5
1F3
100
AcDbEntity
  8
0
  6
CONTINUOUS
 62
    7
370
   25
100
AcDbLine
 10
37.39152001163893
 20
12.17286842085559
 11
383.3346191945675
 21
12.17286842085559
  0
LINE
  5
1F4
100
AcDbEntity
  8
0
  6
CONTINUOUS
 62
    7
370
   25
100
AcDbLine
 10
-1.061193877721962
 20
12.17286842085559
 11
18.21993595680578
 21
12.17286842085559
  0
LINE
  5
1F5
100
AcDbEntity
  8
0
  6
CONTINUOUS
 62
    7
370
   25
100
AcDbLine
 10
-58.97208121516815
 20
12.17286842085559
 11
-16.90131626463699
 21
12.17286842085559
  0
LINE
  5
1F6
100
AcDbEntity
  8
0
  6
CONTINUOUS
 62
    7
370
   25
100
AcDbLine
 10
651.0279187848328
 20
62.1728684208565
 11
-58.97208121516815
 21
62.1728684208565
  0
LINE
  5
1F7
100
AcDbEntity
  8
0
  6
CONTINUOUS
 62
    7
370
   25
100
AcDbLine
 10
-58.97208121516815
 20
-226.8271315791444
 11
651.0279187848328
 21
-226.8271315791444
  0
LINE
  5
1F8
100
AcDbEntity
  8
0
  6
CONTINUOUS
 62
    7
370
   25
100
AcDbLine
 10
-16.88296855261251
 20
-176.8271315791435
 11
-58.97208121516815
 21
-176.8271315791435
  0
LINE
  5
1F9
100
AcDbEntity
  8
0
  6
CONTINUOUS
 62
    7
370
   25
100
AcDbLine
 10
144.7146524978616
 20
-176.8271315791435
 11
-1.042846165699302
 21
-176.8271315791435
  0
LINE
  5
1FA
100
AcDbEntity
  8
0
  6
CONTINUOUS
 62
    7
370
   25
100
AcDbLine
 10
185.6873344179612
 20
-176.8271315791435
 11
163.9187166643569
 21
-176.8271315791435
  0
LINE
  5
1FB
100
AcDbEntity
  8
0
  6
CONTINUOUS
 62
    7
370
   25
100
AcDbLine
 10
554.664317558023
 20
-176.8271315791435
 11
208.7555401912641
 21
-176.8271315791435
  0
LINE
  5
1FC
100
AcDbEntity
  8
0
  6
CONTINUOUS
 62
    7
370
   25
100
AcDbLine
 10
593.1170314473866
 20
-176.8271315791435
 11
573.8359016128579
 21
-176.8271315791435
  0
LINE
  5
1FD
100
AcDbEntity
  8
0
  6
CONTINUOUS
 62
    7
370
   25
100
AcDbLine
 10
651.0279187848328
 20
-176.8271315791435
 11
608.9571538343016
 21
-176.8271315791435
  0
LINE
  5
1FE
100
AcDbEntity
  8
0
  6
CONTINUOUS
 62
    7
370
   25
100
AcDbLine
 10
18.15044306246091
 20
12.15296844860222
 11
144.6848912866717
 21
-176.8578635863105
  0
LINE
  5
1FF
100
AcDbEntity
  8
0
  6
CONTINUOUS
 62
    7
370
   25
100
AcDbLine
 10
163.9187166643569
 20
-176.8271315791435
 11
37.39152001163893
 21
12.17286842085559
  0
LINE
  5
200
100
AcDbEntity
  8
0
  6
CONTINUOUS
 62
    7
370
   25
100
AcDbLine
 10
-0.9720812151681457
 20
-176.8493240507132
 11
-0.9720812151681457
 21
12.20095374626635
  0
LINE
  5
201
100
AcDbEntity
  8
0
  6
CONTINUOUS
 62
    7
370
   25
100
AcDbLine
 10
-16.97208121516815
 20
12.19506089242532
 11
-16.97208121516815
 21
-176.8552169045543
  0
LINE
  5
202
100
AcDbEntity
  8
0
  6
CONTINUOUS
 62
    7
370
   25
100
AcDbLine
 10
383.3212076256459
 20
12.19285861722074
 11
185.6340585297839
 21
-176.7960559184221
  0
LINE
  5
203
100
AcDbEntity
  8
0
  6
CONTINUOUS
 62
    7
370
   25
100
AcDbLine
 10
208.7555401912641
 20
-176.8271315791435
 11
406.4542849611362
 21
12.17286842085559
  0
LINE
  5
204
100
AcDbEntity
  8
0
  6
CONTINUOUS
 62
    7
370
   25
100
AcDbLine
 10
573.905394507201
 20
-176.8072316068901
 11
447.370946282992
 21
12.20360042802258
  0
LINE
  5
205
100
AcDbEntity
  8
0
  6
CONTINUOUS
 62
    7
370
   25
100
AcDbLine
 10
428.137120905305
 20
12.17286842085559
 11
554.664317558023
 21
-176.8271315791435
  0
LINE
  5
206
100
AcDbEntity
  8
0
  6
CONTINUOUS
 62
    7
370
   25
100
AcDbLine
 10
609.0279187848319
 20
-176.8493240507132
 11
609.0279187848319
 21
12.20095374626635
  0
LINE
  5
207
100
AcDbEntity
  8
0
  6
CONTINUOUS
 62
    7
370
   25
100
AcDbLine
 10
593.0279187848319
 20
12.19506089242532
 11
593.0279187848319
 21
-176.8552169045543
  0
LINE
  5
208
100
AcDbEntity
  8
0
  6
CONTINUOUS
 62
    7
370
   25
100
AcDbLine
 10
37.39152001163893
 20
-176.8271315791435
 11
91.02791878483185
 21
-96.707760911685
  0
LINE
  5
209
100
AcDbEntity
  8
0
  6
CONTINUOUS
 62
    7
370
   25
100
AcDbLine
 10
100.6551183379979
 20
-82.32713157914259
 11
163.905394507201
 21
12.15296844860222
  0
LINE
  5
20A
100
AcDbEntity
  8
0
  6
CONTINUOUS
 62
    7
370
   25
100
AcDbLine
 10
144.664317558023
 20
12.17286842085559
 11
91.02791878483185
 21
-67.94650224659927
  0
LINE
  5
20B
100
AcDbEntity
  8
0
  6
CONTINUOUS
 62
    7
370
   25
100
AcDbLine
 10
81.40071923166397
 20
-82.32713157914259
 11
18.13712090530498
 21
-176.8271315791435
  0
LINE
  5
20C
100
AcDbEntity
  8
0
  6
CONTINUOUS
 62
    7
370
   25
100
AcDbLine
 10
406.4217790398816
 20
-176.7960559184221
 11
307.6049125762001
 21
-82.3271315791435
  0
LINE
  5
20D
100
AcDbEntity
  8
0
  6
CONTINUOUS
 62
    7
370
   25
100
AcDbLine
 10
296.0279187848337
 20
-71.25952551459613
 11
208.755540191265
 21
12.17286842085559
  0
LINE
  5
20E
100
AcDbEntity
  8
0
  6
CONTINUOUS
 62
    7
370
   25
100
AcDbLine
 10
185.6015526085293
 20
12.17286842085559
 11
284.4509249934654
 21
-82.3271315791435
  0
LINE
  5
20F
100
AcDbEntity
  8
0
  6
CONTINUOUS
 62
    7
370
   25
100
AcDbLine
 10
296.0279187848337
 20
-93.39473764369177
 11
383.3002973784023
 21
-176.8271315791435
  0
LINE
  5
210
100
AcDbEntity
  8
0
  6
CONTINUOUS
 62
    7
370
   25
100
AcDbLine
 10
554.664317558023
 20
12.17286842085559
 11
501.0279187848319
 21
-67.94650224659927
  0
LINE
  5
211
100
AcDbEntity
  8
0
  6
CONTINUOUS
 62
    7
370
   25
100
AcDbLine
 10
491.400719231664
 20
-82.32713157914259
 11
428.1504430624618
 21
-176.8072316068901
  0
LINE
  5
212
100
AcDbEntity
  8
0
  6
CONTINUOUS
 62
    7
370
   25
100
AcDbLine
 10
447.3915200116389
 20
-176.8271315791435
 11
501.0279187848319
 21
-96.707760911685
  0
LINE
  5
213
100
AcDbEntity
  8
0
  6
CONTINUOUS
 62
    7
370
   25
100
AcDbLine
 10
510.6551183379997
 20
-82.32713157914259
 11
573.9187166643569
 21
12.17286842085559
  0
SPLINE
  5
214
100
AcDbEntity
  8
0
  6
CONTINUOUS
 62
    7
370
   25
100
AcDbSpline
210
0
220
0
230
0
 70
    8
 71
    3
 72
   19
 73
   15
 74
    0
 42
1e-07
 43
1e-07
 40
0
 40
0
 40
0
 40
0
 40
0.0764399780362764
 40
0.1524358862820676
 40
0.2647020126685979
 40
0.3374646747581373
 40
0.412324983292411
 40
0.4855804550982923
 40
0.5611765067717895
 40
0.6716328539253524
 40
0.7826312734131228
 40
0.8810622985670208
 40
0.9744575308241872
 40
0.9999999999999999
 40
0.9999999999999999
 40
0.9999999999999999
 40
0.9999999999999999
 10
37.39152001163893
 20
12.17286842085559
 30
0
 10
37.31051164686505
 20
12.19138291635591
 30
0
 10
37.14896552665778
 20
12.22830434939442
 30
0
 10
35.83652783585057
 20
12.51248520193258
 30
0
 10
34.01342969215875
 20
12.85753575258423
 30
0
 10
31.89458587521221
 20
13.16815709904313
 30
0
 10
29.9567686012706
 20
13.37399864909457
 30
0
 10
27.90528089540567
 20
13.49209279727256
 30
0
 10
25.48669240141862
 20
13.49387709399616
 30
0
 10
22.77055471931271
 20
13.27208127325775
 30
0
 10
20.26377764149402
 20
12.79015211153092
 30
0
 10
18.73341499118214
 20
12.36654715653458
 30
0
 10
18.08166759769483
 20
12.15517658851695
 30
0
 10
18.19549166603792
 20
12.19154082378191
 30
0
 10
18.21993595680578
 20
12.19935022607569
 30
0
  0
SPLINE
  5
215
100
AcDbEntity
  8
0
  6
CONTINUOUS
 62
    7
370
   25
100
AcDbSpline
210
0
220
0
230
0
 70
    8
 71
    3
 72
   21
 73
   17
 74
    0
 42
1e-07
 43
1e-07
 40
0
 40
0
 40
0
 40
0
 40
0.0763560948505608
 40
0.1526233304346821
 40
0.2311859344743352
 40
0.3187083408941951
 40
0.3860675326644423
 40
0.4553376222551389
 40
0.5474182410967645
 40
0.6421330772686629
 40
0.719129932833143
 40
0.7979005781886667
 40
0.8779080641245663
 40
0.9423517719175007
 40
0.9924775117013911
 40
1
 40
1
 40
1
 40
1
 10
406.4542849611362
 20
12.17286842085559
 30
0
 10
406.3770396454511
 20
12.1956801383285
 30
0
 10
406.2226389081789
 20
12.2412770261808
 30
0
 10
405.0185975963932
 20
12.56127753556211
 30
0
 10
403.1872415356993
 20
12.9469366098001
 30
0
 10
400.99525005531
 20
13.2602810139997
 30
0
 10
398.7337172145899
 20
13.4393377051947
 30
0
 10
396.3615317783324
 20
13.50931879767813
 30
0
 10
393.6981492752438
 20
13.448892109589
 30
0
 10
391.0225211640955
 20
13.2552888420305
 30
0
 10
388.596196419212
 20
12.99089595024452
 30
0
 10
386.4754353491307
 20
12.7015901175555
 30
0
 10
384.6994508738708
 20
12.41824955640823
 30
0
 10
383.6501843491942
 20
12.23586541940222
 30
0
 10
383.2392006899354
 20
12.16194625548815
 30
0
 10
383.3236052818102
 20
12.17703668375179
 30
0
 10
383.3346191945675
 20
12.17900582614857
 30
0
  0
SPLINE
  5
216
100
AcDbEntity
  8
0
  6
CONTINUOUS
 62
    7
370
   25
100
AcDbSpline
210
0
220
0
230
0
 70
    8
 71
    3
 72
   20
 73
   16
 74
    0
 42
1e-07
 43
1e-07
 40
0
 40
0
 40
0
 40
0
 40
0.0105079060546391
 40
0.0791472005970103
 40
0.1641276658240269
 40
0.2807925675367172
 40
0.3545854426353168
 40
0.4305123502235665
 40
0.5044555748602256
 40
0.5809407531440804
 40
0.6885242052372063
 40
0.7965766062860913
 40
0.8937549739757565
 40
0.9869301973467841
 40
1
 40
1
 40
1
 40
1
 10
447.3411850718003
 20
12.18411668300269
 30
0
 10
447.3576579440978
 20
12.18043756417137
 30
0
 10
447.4817342083252
 20
12.15272586264746
 30
0
 10
446.9729828864347
 20
12.26765240109944
 30
0
 10
445.6987845768272
 20
12.54103613537882
 30
0
 10
443.6646901401218
 20
12.91778755127598
 30
0
 10
441.4583356207204
 20
13.2220688943562
 30
0
 10
439.4680559711805
 20
13.41240072277014
 30
0
 10
437.3777666153783
 20
13.50463236858559
 30
0
 10
434.9726546132797
 20
13.46795821156593
 30
0
 10
432.3392543229365
 20
13.20552445152316
 30
0
 10
430.0005809624581
 20
12.72480415373957
 30
0
 10
428.5542813061875
 20
12.31000597555158
 30
0
 10
428.1530152513023
 20
12.17794920204233
 30
0
 10
428.1388619794689
 20
12.1734249720248
 30
0
 10
428.137120905305
 20
12.17286842085559
 30
0
  0
SPLINE
  5
217
100
AcDbEntity
  8
0
  6
CONTINUOUS
 62
    7
370
   25
100
AcDbSpline
210
0
220
0
230
0
 70
    8
 71
    3
 72
   18
 73
   14
 74
    0
 42
1e-07
 43
1e-07
 40
0
 40
0
 40
0
 40
0
 40
0.0292088327245431
 40
0.1311656720357136
 40
0.2344432179664841
 40
0.3422205214593474
 40
0.4512560818873329
 40
0.5557009132537915
 40
0.6569753392543342
 40
0.7612975820603858
 40
0.8701594031442135
 40
0.9781880356053013
 40
1
 40
1
 40
1
 40
1
 10
-1.061193877721962
 20
12.2010969358771
 30
0
 10
-1.034776224389134
 20
12.19273713659641
 30
0
 10
-0.9161446691432502
 20
12.15519648233749
 30
0
 10
-1.565434169089713
 20
12.36320057886678
 30
0
 10
-2.952224258537171
 20
12.75365138805319
 30
0
 10
-5.088545725900985
 20
13.21129601848043
 30
0
 10
-7.677572790924387
 20
13.50406249781827
 30
0
 10
-10.377372603396
 20
13.49326512003154
 30
0
 10
-12.8592239303307
 20
13.20670869389687
 30
0
 10
-14.97053183411299
 20
12.76020570434684
 30
0
 10
-16.40143433106823
 20
12.35699478601146
 30
0
 10
-17.05359399971167
 20
12.14712048850652
 30
0
 10
-16.92321814686147
 20
12.18831979486185
 30
0
 10
-16.90131626463699
 20
12.19524087982973
 30
0
  0
SPLINE
  5
218
100
AcDbEntity
  8
0
  6
CONTINUOUS
 62
    7
370
   25
100
AcDbSpline
210
0
220
0
230
0
 70
    8
 71
    3
 72
   18
 73
   14
 74
    0
 42
1e-07
 43
1e-07
 40
0
 40
0
 40
0
 40
0
 40
0.0292088327245432
 40
0.1311656720357137
 40
0.2344432179664841
 40
0.3422205214593473
 40
0.4512560818873327
 40
0.5557009132537911
 40
0.6569753392543339
 40
0.7612975820603853
 40
0.8701594031442129
 40
0.9781880356053008
 40
1
 40
1
 40
1
 40
1
 10
608.938806122278
 20
12.2010969358771
 30
0
 10
608.9652237756109
 20
12.19273713659641
 30
0
 10
609.0838553308567
 20
12.15519648233749
 30
0
 10
608.4345658309103
 20
12.36320057886678
 30
0
 10
607.0477757414628
 20
12.75365138805319
 30
0
 10
604.911454274099
 20
13.21129601848043
 30
0
 10
602.3224272090756
 20
13.50406249781827
 30
0
 10
599.622627396604
 20
13.49326512003154
 30
0
 10
597.1407760696693
 20
13.20670869389687
 30
0
 10
595.029468165887
 20
12.76020570434684
 30
0
 10
593.5985656689318
 20
12.35699478601146
 30
0
 10
592.9464060002902
 20
12.14712048850652
 30
0
 10
593.0767818531385
 20
12.18831979486185
 30
0
 10
593.098683735363
 20
12.19524087982973
 30
0
  0
LINE
  5
219
100
AcDbEntity
  8
0
  6
CONTINUOUS
 62
    7
370
   25
100
AcDbLine
 10
651.0279187848328
 20
62.1728684208565
 11
651.0279187848328
 21
12.17286842085559
  0
LINE
  5
21A
100
AcDbEntity
  8
0
  6
CONTINUOUS
 62
    7
370
   25
100
AcDbLine
 10
-58.97208121516815
 20
62.1728684208565
 11
-58.97208121516815
 21
12.17286842085559
  0
SPLINE
  5
21B
100
AcDbEntity
  8
0
  6
CONTINUOUS
 62
    7
370
   25
100
AcDbSpline
210
0
220
0
230
0
 70
    8
 71
    3
 72
   20
 73
   16
 74
    0
 42
1e-07
 43
1e-07
 40
0
 40
0
 40
0
 40
0
 40
0.0105079060546153
 40
0.0791472005969894
 40
0.1641276658240057
 40
0.2807925675366936
 40
0.3545854426352914
 40
0.4305123502235421
 40
0.5044555748602033
 40
0.5809407531440579
 40
0.6885242052371912
 40
0.7965766062860835
 40
0.8937549739757547
 40
0.9869301973467863
 40
1
 40
1
 40
1
 40
1
 10
144.7146524978616
 20
-176.8383798412906
 30
0
 10
144.6981796255659
 20
-176.8347007224593
 30
0
 10
144.5741033613376
 20
-176.8069890209354
 30
0
 10
145.082854683229
 20
-176.9219155593873
 30
0
 10
146.3570529928365
 20
-177.1952992936667
 30
0
 10
148.3911474295419
 20
-177.5720507095639
 30
0
 10
150.5975019489433
 20
-177.8763320526441
 30
0
 10
152.5877815984823
 20
-178.066663881058
 30
0
 10
154.6780709542836
 20
-178.1588955268717
 30
0
 10
157.0831829563831
 20
-178.1222213698538
 30
0
 10
159.7165832467272
 20
-177.8597876098111
 30
0
 10
162.0552566072056
 20
-177.3790673120275
 30
0
 10
163.5015562634762
 20
-176.9642691338386
 30
0
 10
163.9028223183614
 20
-176.8322123603302
 30
0
 10
163.9169755901949
 20
-176.8276881303127
 30
0
 10
163.9187166643569
 20
-176.8271315791435
 30
0
  0
SPLINE
  5
21C
100
AcDbEntity
  8
0
  6
CONTINUOUS
 62
    7
370
   25
100
AcDbSpline
210
0
220
0
230
0
 70
    8
 71
    3
 72
   21
 73
   17
 74
    0
 42
1e-07
 43
1e-07
 40
0
 40
0
 40
0
 40
0
 40
0.0232192855848739
 40
0.09797724305179591
 40
0.1736091565533493
 40
0.2539972651745618
 40
0.3666470884796899
 40
0.4433968784622396
 40
0.522303319264527
 40
0.6019468967660896
 40
0.6831313973339118
 40
0.7477594123741599
 40
0.8136015216887424
 40
0.8934350974121273
 40
0.9526672813478722
 40
0.9999999999999999
 40
0.9999999999999999
 40
0.9999999999999999
 40
0.9999999999999999
 10
185.6873344179612
 20
-176.8515615269853
 30
0
 10
185.6624397297901
 20
-176.8444804221244
 30
0
 10
185.557392875332
 20
-176.8146006426887
 30
0
 10
186.1653364420681
 20
-176.9894875367845
 30
0
 10
187.458401166331
 20
-177.3131279382433
 30
0
 10
189.6682102303876
 20
-177.7433306695284
 30
0
 10
192.3358167672086
 20
-178.0466755462294
 30
0
 10
195.1088066609527
 20
-178.1573752403228
 30
0
 10
197.5581169345687
 20
-178.1300273475708
 30
0
 10
200.01423441512
 20
-177.993084460184
 30
0
 10
202.2493237772778
 20
-177.7840961388256
 30
0
 10
204.2402497588855
 20
-177.5420464704239
 30
0
 10
206.0792893833213
 20
-177.279007391513
 30
0
 10
207.6100511199556
 20
-177.029535364185
 30
0
 10
208.595604004995
 20
-176.8560247844161
 30
0
 10
208.7063502528745
 20
-176.8360179670235
 30
0
 10
208.7555401912641
 20
-176.8271315791435
 30
0
  0
SPLINE
  5
21D
100
AcDbEntity
  8
0
  6
CONTINUOUS
 62
    7
370
   25
100
AcDbSpline
210
0
220
0
230
0
 70
    8
 71
    3
 72
   19
 73
   15
 74
    0
 42
1e-07
 43
1e-07
 40
0
 40
0
 40
0
 40
0
 40
0.0764399780362759
 40
0.152435886282068
 40
0.2647020126685916
 40
0.337464674758132
 40
0.4123249832924038
 40
0.4855804550982856
 40
0.5611765067717808
 40
0.6716328539253558
 40
0.7826312734131358
 40
0.881062298567042
 40
0.9744575308242136
 40
1
 40
1
 40
1
 40
1
 10
554.664317558023
 20
-176.8271315791435
 30
0
 10
554.7453259227977
 20
-176.8456460746438
 30
0
 10
554.9068720430059
 20
-176.8825675076823
 30
0
 10
556.2193097338131
 20
-177.1667483602205
 30
0
 10
558.042407877505
 20
-177.5117989108721
 30
0
 10
560.1612516944515
 20
-177.822420257331
 30
0
 10
562.0990689683931
 20
-178.0282618073825
 30
0
 10
564.150556674258
 20
-178.1463559555596
 30
0
 10
566.5691451682424
 20
-178.1481402522841
 30
0
 10
569.2852828503492
 20
-177.9263444315457
 30
0
 10
571.7920599281688
 20
-177.444415269817
 30
0
 10
573.3224225784816
 20
-177.0208103148225
 30
0
 10
573.9741699719671
 20
-176.8094397468049
 30
0
 10
573.860345903624
 20
-176.8458039820698
 30
0
 10
573.8359016128579
 20
-176.8536133843636
 30
0
  0
SPLINE
  5
21E
100
AcDbEntity
  8
0
  6
CONTINUOUS
 62
    7
370
   25
100
AcDbSpline
210
0
220
0
230
0
 70
    8
 71
    3
 72
   18
 73
   14
 74
    0
 42
1e-07
 43
1e-07
 40
0
 40
0
 40
0
 40
0
 40
0.0292088327245421
 40
0.1311656720357128
 40
0.2344432179664836
 40
0.3422205214593467
 40
0.4512560818873324
 40
0.5557009132537912
 40
0.6569753392543346
 40
0.7612975820603888
 40
0.8701594031442141
 40
0.9781880356053019
 40
1
 40
1
 40
1
 40
1
 10
-16.88296855261251
 20
-176.8553600941641
 30
0
 10
-16.90938620594716
 20
-176.8470002948843
 30
0
 10
-17.02801776119304
 20
-176.8094596406254
 30
0
 10
-16.37872826124658
 20
-177.0174637371547
 30
0
 10
-14.99193817179912
 20
-177.4079145463411
 30
0
 10
-12.85561670443531
 20
-177.8655591767683
 30
0
 10
-10.2665896394119
 20
-178.1583256561062
 30
0
 10
-7.566789826940294
 20
-178.1475282783194
 30
0
 10
-5.084938500005592
 20
-177.8609718521848
 30
0
 10
-2.973630596221483
 20
-177.4144688626347
 30
0
 10
-1.542728099268061
 20
-177.0112579442994
 30
0
 10
-0.8905684306246258
 20
-176.8013836467935
 30
0
 10
-1.020944283474819
 20
-176.8425829531498
 30
0
 10
-1.042846165699302
 20
-176.8495040381176
 30
0
  0
SPLINE
  5
21F
100
AcDbEntity
  8
0
  6
CONTINUOUS
 62
    7
370
   25
100
AcDbSpline
210
0
220
0
230
0
 70
    8
 71
    3
 72
   18
 73
   14
 74
    0
 42
1e-07
 43
1e-07
 40
0
 40
0
 40
0
 40
0
 40
0.0292088327245422
 40
0.131165672035713
 40
0.2344432179664837
 40
0.3422205214593468
 40
0.4512560818873325
 40
0.5557009132537913
 40
0.6569753392543346
 40
0.7612975820603888
 40
0.870159403144214
 40
0.9781880356053018
 40
1
 40
1
 40
1
 40
1
 10
593.1170314473866
 20
-176.8553600941641
 30
0
 10
593.0906137940538
 20
-176.8470002948843
 30
0
 10
592.971982238807
 20
-176.8094596406254
 30
0
 10
593.6212717387534
 20
-177.0174637371547
 30
0
 10
595.0080618282009
 20
-177.4079145463411
 30
0
 10
597.1443832955656
 20
-177.8655591767683
 30
0
 10
599.7334103605881
 20
-178.1583256561062
 30
0
 10
602.4332101730597
 20
-178.1475282783194
 30
0
 10
604.9150614999935
 20
-177.8609718521848
 30
0
 10
607.0263694037785
 20
-177.4144688626347
 30
0
 10
608.4572719007319
 20
-177.0112579442994
 30
0
 10
609.1094315693745
 20
-176.8013836467935
 30
0
 10
608.9790557165252
 20
-176.8425829531498
 30
0
 10
608.9571538343016
 20
-176.8495040381176
 30
0
  0
LINE
  5
220
100
AcDbEntity
  8
0
  6
CONTINUOUS
 62
    7
370
   25
100
AcDbLine
 10
651.0279187848328
 20
-176.8271315791435
 11
651.0279187848328
 21
-226.8271315791444
  0
LINE
  5
221
100
AcDbEntity
  8
0
  6
CONTINUOUS
 62
    7
370
   25
100
AcDbLine
 10
-58.97208121516815
 20
-176.8271315791435
 11
-58.97208121516815
 21
-226.8271315791444
  0
ENDBLK
  5
6A
330
68
100
AcDbEntity
  8
0
100
AcDbBlockEnd
  0
ENDSEC
  0
SECTION
  2
ENTITIES
  0
INSERT
  5
222
100
AcDbEntity
  8
0
  6
ByLayer
 62
  256
370
   -1
100
AcDbBlockReference
  2
SZ290_2500-0
 10
139.9688416633199
 20
445.8720244587553
 30
0
 41
1
 42
1
 43
0
 50
90
 70
    1
 71
    1
 44
0
 45
0
  0
INSERT
  5
223
100
AcDbEntity
  8
0
  6
ByLayer
 62
  256
370
   -1
100
AcDbBlockReference
  2
SZ290_1000-0
 10
750.4435885109593
 20
2971.897421634967
 30
0
 41
1
 42
1
 43
0
 50
90
 70
    1
 71
    1
 44
0
 45
0
  0
INSERT
  5
224
100
AcDbEntity
  8
0
  6
ByLayer
 62
  256
370
   -1
100
AcDbBlockReference
  2
SZ290_2500-0
 10
5054.127990442404
 20
3850.468828669507
 30
0
 41
1
 42
1
 43
0
 50
180
 70
    1
 71
    1
 44
0
 45
0
  0
INSERT
  5
225
100
AcDbEntity
  8
0
  6
ByLayer
 62
  256
370
   -1
100
AcDbBlockReference
  2
SZ290_2500-0
 10
7554.127990442403
 20
3850.468828669507
 30
0
 41
1
 42
1
 43
0
 50
180
 70
    1
 71
    1
 44
0
 45
0
  0
INSERT
  5
226
100
AcDbEntity
  8
0
  6
ByLayer
 62
  256
370
   -1
100
AcDbBlockReference
  2
SZ290_2500-0
 10
2554.127990442406
 20
3850.468828669507
 30
0
 41
1
 42
1
 43
0
 50
180
 70
    1
 71
    1
 44
0
 45
0
  0
INSERT
  5
227
100
AcDbEntity
  8
0
  6
ByLayer
 62
  256
370
   -1
100
AcDbBlockReference
  2
SZ290_3A_90_TOP
 10
20.5886
 20
3969.9
 30
0
 41
1
 42
1
 43
0
 50
0
 70
    1
 71
    1
 44
0
 45
0
  0
INSERT
  5
228
100
AcDbEntity
  8
0
  6
DOT2
 62
  256
370
   -1
100
AcDbBlockReference
  2
ACL_4-0
 10
709.2912621359225
 20
2044.04709917195
 30
0
 41
1
 42
1
 43
0
 50
90
 70
    1
 71
    1
 44
0
 45
0
  0
INSERT
  5
229
100
AcDbEntity
  8
0
  6
DOT2
 62
  256
370
   -1
100
AcDbBlockReference
  2
sunstrip
 10
3225.544627071121
 20
2690.421688582914
 30
0
 41
1
 42
1
 43
0
 50
90
 70
    1
 71
    1
 44
0
 45
0
  0
INSERT
  5
22A
100
AcDbEntity
  8
0
  6
DOT2
 62
  256
370
   -1
100
AcDbBlockReference
  2
sunstrip
 10
1809.429496566509
 20
2690.421688582914
 30
0
 41
1
 42
1
 43
0
 50
90
 70
    1
 71
    1
 44
0
 45
0
  0
INSERT
  5
22B
100
AcDbEntity
  8
0
  6
DOT2
 62
  256
370
   -1
100
AcDbBlockReference
  2
minibeam
 10
219.5587349060342
 20
999.5700299669451
 30
0
 41
1
 42
1
 43
0
 50
180
 70
    1
 71
    1
 44
0
 45
0
  0
INSERT
  5
22C
100
AcDbEntity
  8
R2V
  6
ByLayer
 62
  256
370
   -1
100
AcDbBlockReference
  2
SZ290_710
 10
8058.972096116326
 20
3937.32711858533
 30
0
 41
1
 42
1
 43
0
 50
0
 70
    1
 71
    1
 44
0
 45
0
  0
INSERT
  5
22D
100
AcDbEntity
  8
0
  6
ByLayer
 62
  256
370
   -1
100
AcDbBlockReference
  2
SZ290_2500-0
 10
9070.03123760243
 20
445.874267783686
 30
0
 41
-1
 42
1
 43
0
 50
270
 70
    1
 71
    1
 44
0
 45
0
  0
INSERT
  5
22E
100
AcDbEntity
  8
0
  6
ByLayer
 62
  256
370
   -1
100
AcDbBlockReference
  2
SZ290_1000-0
 10
8459.556490754791
 20
2971.899664959899
 30
0
 41
-1
 42
1
 43
0
 50
270
 70
    1
 71
    1
 44
0
 45
0
  0
INSERT
  5
22F
100
AcDbEntity
  8
0
  6
ByLayer
 62
  256
370
   -1
100
AcDbBlockReference
  2
SZ290_3A_90_TOP
 10
9189.411410141205
 20
3969.902247854885
 30
0
 41
-1
 42
1
 43
0
 50
0
 70
    1
 71
    1
 44
0
 45
0
  0
INSERT
  5
230
100
AcDbEntity
  8
0
  6
DOT2
 62
  256
370
   -1
100
AcDbBlockReference
  2
ACL_4-0
 10
8500.708748005281
 20
2044.049347026835
 30
0
 41
-1
 42
1
 43
0
 50
270
 70
    1
 71
    1
 44
0
 45
0
  0
INSERT
  5
231
100
AcDbEntity
  8
0
  6
DOT2
 62
  256
370
   -1
100
AcDbBlockReference
  2
sunstrip
 10
5984.455383070083
 20
2690.423936437799
 30
0
 41
-1
 42
1
 43
0
 50
270
 70
    1
 71
    1
 44
0
 45
0
  0
INSERT
  5
232
100
AcDbEntity
  8
0
  6
DOT2
 62
  256
370
   -1
100
AcDbBlockReference
  2
sunstrip
 10
7400.570513574696
 20
2690.423936437799
 30
0
 41
-1
 42
1
 43
0
 50
270
 70
    1
 71
    1
 44
0
 45
0
  0
INSERT
  5
233
100
AcDbEntity
  8
0
  6
DOT2
 62
  256
370
   -1
100
AcDbBlockReference
  2
minibeam
 10
8990.441275235171
 20
999.5722778218305
 30
0
 41
-1
 42
1
 43
0
 50
180
 70
    1
 71
    1
 44
0
 45
0
  0
LINE
  5
234
100
AcDbEntity
  8
construction
  6
ByLayer
 62
  256
370
   -1
100
AcDbLine
 10
4605.000014901159
 20
3735.497740581814
 11
4605.000014901159
 21
3745.497740581814
  0
LWPOLYLINE
  5
235
100
AcDbEntity
  8
Scene
  6
ByLayer
 62
  256
370
   -1
100
AcDbPolyline
 90
    4
 70
    1
 43
0
 10
405.0000149011594
 20
900
 10
8805.000014901159
 20
900
 10
8805.000014901159
 20
1000
 10
405.0000149011594
 20
1000
  0
MTEXT
  5
236
100
AcDbEntity
  8
R2V
  6
ByLayer
 62
  256
370
   -1
100
AcDbMText
 10
4614.487089813921
 20
4502.513709710723
 30
0
 40
150
 41
2233.333410476434
 71
    5
 72
    1
  1
Face - Fond de scene
  7
standard
210
0
220
0
230
1
 50
0
 73
    2
 44
1
  0
LWPOLYLINE
  5
237
100
AcDbEntity
  8
R2V
  6
ByLayer
 62
  256
370
   -1
100
AcDbPolyline
 90
    4
 70
    1
 43
0
 10
3414.819419592321
 20
4655.825108428471
 10
5795.180610209997
 20
4655.825108428471
 10
5795.180610209997
 20
4316.926227052395
 10
3414.819419592321
 20
4316.926227052395
  0
ENDSEC
  0
SECTION
  2
OBJECTS
  0
DICTIONARY
  5
C
330
0
100
AcDbDictionary
281
    1
  3
ACAD_GROUP
350
D
  0
DICTIONARY
  5
D
330
C
100
AcDbDictionary
281
    1
  0
ENDSEC
  0
EOF
